<ttFont>
    <TTGlyph name="A" xMin="30" yMin="0" xMax="692" yMax="727">
      <contour>
        <pt x="243" y="159" on="1"/>
        <pt x="171" y="0" on="1"/>
        <pt x="30" y="0" on="1"/>
        <pt x="380" y="727" on="1"/>
        <pt x="520" y="727" on="1"/>
        <pt x="692" y="0" on="1"/>
        <pt x="544" y="0" on="1"/>
        <pt x="430" y="541" on="1"/>
        <pt x="426" y="578" on="1"/>
        <pt x="413" y="539" on="1"/>
        <pt x="296" y="280" on="1"/>
        <pt x="281" y="260" on="1"/>
        <pt x="297" y="262" on="1"/>
        <pt x="373" y="262" on="1"/>
        <pt x="395" y="262" on="0"/>
        <pt x="425" y="242" on="0"/>
        <pt x="445" y="212" on="0"/>
        <pt x="457" y="175" on="0"/>
        <pt x="460" y="159" on="1"/>
      </contour>
    </TTGlyph>
    <TTGlyph name="AE" xMin="0" yMin="0" xMax="933" yMax="727">
      <contour>
        <pt x="237" y="159" on="1"/>
        <pt x="141" y="0" on="1"/>
        <pt x="0" y="0" on="1"/>
        <pt x="461" y="727" on="1"/>
        <pt x="933" y="727" on="1"/>
        <pt x="920" y="624" on="1"/>
        <pt x="622" y="624" on="1"/>
        <pt x="636" y="103" on="1"/>
        <pt x="927" y="103" on="1"/>
        <pt x="915" y="0" on="1"/>
        <pt x="506" y="0" on="1"/>
        <pt x="490" y="552" on="1"/>
        <pt x="492" y="589" on="1"/>
        <pt x="474" y="554" on="1"/>
        <pt x="308" y="280" on="1"/>
        <pt x="290" y="260" on="1"/>
        <pt x="311" y="262" on="1"/>
        <pt x="378" y="262" on="1"/>
        <pt x="400" y="262" on="0"/>
        <pt x="430" y="242" on="0"/>
        <pt x="450" y="212" on="0"/>
        <pt x="462" y="175" on="0"/>
        <pt x="465" y="159" on="1"/>
      </contour>
      <contour>
        <pt x="666" y="331" on="1"/>
        <pt x="674" y="349" on="0"/>
        <pt x="696" y="386" on="0"/>
        <pt x="727" y="414" on="0"/>
        <pt x="767" y="432" on="0"/>
        <pt x="793" y="432" on="1"/>
        <pt x="907" y="432" on="1"/>
        <pt x="894" y="331" on="1"/>
      </contour>
    </TTGlyph>
    <TTGlyph name="Aacute" xMin="12" yMin="0" xMax="674" yMax="890">
      <contour>
        <pt x="525" y="808" on="1"/>
        <pt x="508" y="791" on="0"/>
        <pt x="465" y="771" on="0"/>
        <pt x="422" y="762" on="0"/>
        <pt x="384" y="762" on="0"/>
        <pt x="372" y="765" on="1"/>
        <pt x="474" y="890" on="1"/>
        <pt x="607" y="890" on="1"/>
      </contour>
      <contour>
        <pt x="225" y="159" on="1"/>
        <pt x="153" y="0" on="1"/>
        <pt x="12" y="0" on="1"/>
        <pt x="362" y="727" on="1"/>
        <pt x="502" y="727" on="1"/>
        <pt x="674" y="0" on="1"/>
        <pt x="526" y="0" on="1"/>
        <pt x="412" y="541" on="1"/>
        <pt x="408" y="578" on="1"/>
        <pt x="395" y="539" on="1"/>
        <pt x="278" y="280" on="1"/>
        <pt x="263" y="260" on="1"/>
        <pt x="279" y="262" on="1"/>
        <pt x="355" y="262" on="1"/>
        <pt x="377" y="262" on="0"/>
        <pt x="407" y="242" on="0"/>
        <pt x="427" y="212" on="0"/>
        <pt x="439" y="175" on="0"/>
        <pt x="442" y="159" on="1"/>
      </contour>
    </TTGlyph>
    <TTGlyph name="Acircumflex" xMin="14" yMin="0" xMax="676" yMax="890">
      <contour>
        <pt x="501" y="890" on="1"/>
        <pt x="594" y="774" on="1"/>
        <pt x="510" y="756" on="1"/>
        <pt x="439" y="812" on="1"/>
        <pt x="356" y="756" on="1"/>
        <pt x="279" y="774" on="1"/>
        <pt x="398" y="890" on="1"/>
      </contour>
      <contour>
        <pt x="227" y="159" on="1"/>
        <pt x="155" y="0" on="1"/>
        <pt x="14" y="0" on="1"/>
        <pt x="364" y="727" on="1"/>
        <pt x="504" y="727" on="1"/>
        <pt x="676" y="0" on="1"/>
        <pt x="528" y="0" on="1"/>
        <pt x="414" y="541" on="1"/>
        <pt x="410" y="578" on="1"/>
        <pt x="397" y="539" on="1"/>
        <pt x="280" y="280" on="1"/>
        <pt x="265" y="260" on="1"/>
        <pt x="281" y="262" on="1"/>
        <pt x="357" y="262" on="1"/>
        <pt x="379" y="262" on="0"/>
        <pt x="409" y="242" on="0"/>
        <pt x="429" y="212" on="0"/>
        <pt x="441" y="175" on="0"/>
        <pt x="444" y="159" on="1"/>
      </contour>
    </TTGlyph>
    <TTGlyph name="Adieresis" xMin="14" yMin="0" xMax="676" yMax="903">
      <contour>
        <pt x="285" y="840" on="1"/>
        <pt x="288" y="866" on="0"/>
        <pt x="329" y="903" on="0"/>
        <pt x="355" y="903" on="1"/>
        <pt x="381" y="903" on="0"/>
        <pt x="415" y="866" on="0"/>
        <pt x="412" y="840" on="1"/>
        <pt x="408" y="814" on="0"/>
        <pt x="366" y="777" on="0"/>
        <pt x="340" y="777" on="1"/>
        <pt x="314" y="777" on="0"/>
        <pt x="281" y="814" on="0"/>
      </contour>
      <contour>
        <pt x="480" y="840" on="1"/>
        <pt x="483" y="866" on="0"/>
        <pt x="524" y="903" on="0"/>
        <pt x="550" y="903" on="1"/>
        <pt x="576" y="903" on="0"/>
        <pt x="610" y="866" on="0"/>
        <pt x="607" y="840" on="1"/>
        <pt x="603" y="814" on="0"/>
        <pt x="561" y="777" on="0"/>
        <pt x="535" y="777" on="1"/>
        <pt x="509" y="777" on="0"/>
        <pt x="476" y="814" on="0"/>
      </contour>
      <contour>
        <pt x="227" y="159" on="1"/>
        <pt x="155" y="0" on="1"/>
        <pt x="14" y="0" on="1"/>
        <pt x="364" y="727" on="1"/>
        <pt x="504" y="727" on="1"/>
        <pt x="676" y="0" on="1"/>
        <pt x="528" y="0" on="1"/>
        <pt x="414" y="541" on="1"/>
        <pt x="410" y="578" on="1"/>
        <pt x="397" y="539" on="1"/>
        <pt x="280" y="280" on="1"/>
        <pt x="265" y="260" on="1"/>
        <pt x="281" y="262" on="1"/>
        <pt x="357" y="262" on="1"/>
        <pt x="379" y="262" on="0"/>
        <pt x="409" y="242" on="0"/>
        <pt x="429" y="212" on="0"/>
        <pt x="441" y="175" on="0"/>
        <pt x="444" y="159" on="1"/>
      </contour>
    </TTGlyph>
    <TTGlyph name="Agrave" xMin="14" yMin="0" xMax="676" yMax="890">
      <contour>
        <pt x="319" y="890" on="1"/>
        <pt x="452" y="890" on="1"/>
        <pt x="510" y="765" on="1"/>
        <pt x="497" y="762" on="0"/>
        <pt x="458" y="761" on="0"/>
        <pt x="417" y="770" on="0"/>
        <pt x="380" y="791" on="0"/>
        <pt x="370" y="808" on="1"/>
      </contour>
      <contour>
        <pt x="227" y="159" on="1"/>
        <pt x="155" y="0" on="1"/>
        <pt x="14" y="0" on="1"/>
        <pt x="364" y="727" on="1"/>
        <pt x="504" y="727" on="1"/>
        <pt x="676" y="0" on="1"/>
        <pt x="528" y="0" on="1"/>
        <pt x="414" y="541" on="1"/>
        <pt x="410" y="578" on="1"/>
        <pt x="397" y="539" on="1"/>
        <pt x="280" y="280" on="1"/>
        <pt x="265" y="260" on="1"/>
        <pt x="281" y="262" on="1"/>
        <pt x="357" y="262" on="1"/>
        <pt x="379" y="262" on="0"/>
        <pt x="409" y="242" on="0"/>
        <pt x="429" y="212" on="0"/>
        <pt x="441" y="175" on="0"/>
        <pt x="444" y="159" on="1"/>
      </contour>
    </TTGlyph>
    <TTGlyph name="Aring" xMin="15" yMin="0" xMax="677" yMax="895">
      <contour>
        <pt x="228" y="159" on="1"/>
        <pt x="156" y="0" on="1"/>
        <pt x="15" y="0" on="1"/>
        <pt x="364" y="725" on="1"/>
        <pt x="329" y="752" on="0"/>
        <pt x="334" y="797" on="1"/>
        <pt x="337" y="818" on="0"/>
        <pt x="358" y="854" on="0"/>
        <pt x="391" y="880" on="0"/>
        <pt x="433" y="895" on="0"/>
        <pt x="457" y="895" on="1"/>
        <pt x="505" y="895" on="0"/>
        <pt x="559" y="842" on="0"/>
        <pt x="553" y="798" on="1"/>
        <pt x="551" y="775" on="0"/>
        <pt x="525" y="737" on="0"/>
        <pt x="505" y="724" on="1"/>
        <pt x="677" y="0" on="1"/>
        <pt x="529" y="0" on="1"/>
        <pt x="415" y="546" on="1"/>
        <pt x="411" y="574" on="1"/>
        <pt x="400" y="545" on="1"/>
        <pt x="281" y="280" on="1"/>
        <pt x="266" y="260" on="1"/>
        <pt x="280" y="262" on="1"/>
        <pt x="358" y="262" on="1"/>
        <pt x="380" y="262" on="0"/>
        <pt x="410" y="242" on="0"/>
        <pt x="430" y="212" on="0"/>
        <pt x="442" y="175" on="0"/>
        <pt x="445" y="159" on="1"/>
      </contour>
      <contour>
        <pt x="440" y="760" on="1"/>
        <pt x="458" y="760" on="0"/>
        <pt x="480" y="782" on="0"/>
        <pt x="482" y="799" on="1"/>
        <pt x="484" y="816" on="0"/>
        <pt x="468" y="839" on="0"/>
        <pt x="450" y="839" on="1"/>
        <pt x="433" y="839" on="0"/>
        <pt x="411" y="816" on="0"/>
        <pt x="409" y="798" on="1"/>
        <pt x="407" y="784" on="0"/>
        <pt x="423" y="760" on="0"/>
      </contour>
    </TTGlyph>
    <TTGlyph name="Atilde" xMin="14" yMin="0" xMax="676" yMax="901">
      <contour>
        <pt x="284" y="783" on="1"/>
        <pt x="288" y="811" on="0"/>
        <pt x="311" y="855" on="0"/>
        <pt x="342" y="885" on="0"/>
        <pt x="379" y="901" on="0"/>
        <pt x="397" y="901" on="1"/>
        <pt x="419" y="901" on="0"/>
        <pt x="451" y="884" on="0"/>
        <pt x="477" y="865" on="0"/>
        <pt x="498" y="848" on="0"/>
        <pt x="509" y="848" on="1"/>
        <pt x="522" y="848" on="0"/>
        <pt x="540" y="873" on="0"/>
        <pt x="545" y="893" on="1"/>
        <pt x="617" y="887" on="1"/>
        <pt x="612" y="855" on="0"/>
        <pt x="587" y="811" on="0"/>
        <pt x="557" y="782" on="0"/>
        <pt x="523" y="769" on="0"/>
        <pt x="509" y="769" on="1"/>
        <pt x="484" y="769" on="0"/>
        <pt x="452" y="786" on="0"/>
        <pt x="429" y="805" on="0"/>
        <pt x="410" y="822" on="0"/>
        <pt x="398" y="822" on="1"/>
        <pt x="387" y="822" on="0"/>
        <pt x="363" y="803" on="0"/>
        <pt x="358" y="777" on="1"/>
      </contour>
      <contour>
        <pt x="227" y="159" on="1"/>
        <pt x="155" y="0" on="1"/>
        <pt x="14" y="0" on="1"/>
        <pt x="364" y="727" on="1"/>
        <pt x="504" y="727" on="1"/>
        <pt x="676" y="0" on="1"/>
        <pt x="528" y="0" on="1"/>
        <pt x="414" y="541" on="1"/>
        <pt x="410" y="578" on="1"/>
        <pt x="397" y="539" on="1"/>
        <pt x="280" y="280" on="1"/>
        <pt x="265" y="260" on="1"/>
        <pt x="281" y="262" on="1"/>
        <pt x="357" y="262" on="1"/>
        <pt x="379" y="262" on="0"/>
        <pt x="409" y="242" on="0"/>
        <pt x="429" y="212" on="0"/>
        <pt x="441" y="175" on="0"/>
        <pt x="444" y="159" on="1"/>
      </contour>
    </TTGlyph>
    <TTGlyph name="B" xMin="81" yMin="-11" xMax="658" yMax="740">
      <contour>
        <pt x="363" y="428" on="1"/>
        <pt x="389" y="428" on="0"/>
        <pt x="438" y="443" on="0"/>
        <pt x="478" y="471" on="0"/>
        <pt x="505" y="510" on="0"/>
        <pt x="508" y="534" on="1"/>
        <pt x="510" y="552" on="0"/>
        <pt x="500" y="589" on="0"/>
        <pt x="472" y="619" on="0"/>
        <pt x="425" y="639" on="0"/>
        <pt x="389" y="639" on="1"/>
        <pt x="362" y="639" on="0"/>
        <pt x="326" y="636" on="0"/>
        <pt x="298" y="632" on="1"/>
        <pt x="273" y="428" on="1"/>
      </contour>
      <contour>
        <pt x="371" y="90" on="1"/>
        <pt x="425" y="90" on="0"/>
        <pt x="501" y="150" on="0"/>
        <pt x="508" y="206" on="1"/>
        <pt x="511" y="236" on="0"/>
        <pt x="491" y="283" on="0"/>
        <pt x="450" y="316" on="0"/>
        <pt x="389" y="334" on="0"/>
        <pt x="352" y="334" on="1"/>
        <pt x="262" y="334" on="1"/>
        <pt x="221" y="0" on="1"/>
        <pt x="81" y="0" on="1"/>
        <pt x="168" y="716" on="1"/>
        <pt x="209" y="723" on="0"/>
        <pt x="272" y="732" on="0"/>
        <pt x="325" y="738" on="0"/>
        <pt x="374" y="740" on="0"/>
        <pt x="401" y="740" on="1"/>
        <pt x="468" y="740" on="0"/>
        <pt x="568" y="711" on="0"/>
        <pt x="631" y="657" on="0"/>
        <pt x="658" y="581" on="0"/>
        <pt x="652" y="535" on="1"/>
        <pt x="647" y="498" on="0"/>
        <pt x="593" y="425" on="0"/>
        <pt x="553" y="402" on="1"/>
        <pt x="522" y="388" on="1"/>
        <pt x="549" y="381" on="1"/>
        <pt x="575" y="371" on="0"/>
        <pt x="617" y="334" on="0"/>
        <pt x="646" y="286" on="0"/>
        <pt x="658" y="232" on="0"/>
        <pt x="655" y="205" on="1"/>
        <pt x="650" y="166" on="0"/>
        <pt x="605" y="89" on="0"/>
        <pt x="532" y="28" on="0"/>
        <pt x="433" y="-11" on="0"/>
        <pt x="374" y="-11" on="1"/>
        <pt x="360" y="-11" on="0"/>
        <pt x="337" y="-10" on="0"/>
        <pt x="312" y="-6" on="0"/>
        <pt x="281" y="1" on="0"/>
        <pt x="260" y="6" on="1"/>
        <pt x="268" y="19" on="0"/>
        <pt x="289" y="49" on="0"/>
        <pt x="317" y="74" on="0"/>
        <pt x="351" y="90" on="0"/>
      </contour>
    </TTGlyph>
    <TTGlyph name="C" xMin="82" yMin="-12" xMax="697" yMax="740">
      <contour>
        <pt x="433" y="-12" on="1"/>
        <pt x="340" y="-12" on="0"/>
        <pt x="203" y="46" on="0"/>
        <pt x="117" y="148" on="0"/>
        <pt x="82" y="285" on="0"/>
        <pt x="92" y="364" on="1"/>
        <pt x="102" y="442" on="0"/>
        <pt x="172" y="579" on="0"/>
        <pt x="284" y="681" on="0"/>
        <pt x="435" y="740" on="0"/>
        <pt x="525" y="740" on="1"/>
        <pt x="567" y="740" on="0"/>
        <pt x="652" y="724" on="0"/>
        <pt x="697" y="706" on="1"/>
        <pt x="650" y="614" on="1"/>
        <pt x="607" y="627" on="0"/>
        <pt x="548" y="637" on="0"/>
        <pt x="513" y="637" on="1"/>
        <pt x="453" y="637" on="0"/>
        <pt x="359" y="590" on="0"/>
        <pt x="291" y="514" on="0"/>
        <pt x="250" y="416" on="0"/>
        <pt x="244" y="364" on="1"/>
        <pt x="238" y="312" on="0"/>
        <pt x="254" y="214" on="0"/>
        <pt x="304" y="137" on="0"/>
        <pt x="386" y="91" on="0"/>
        <pt x="446" y="91" on="1"/>
        <pt x="481" y="91" on="0"/>
        <pt x="550" y="108" on="0"/>
        <pt x="589" y="125" on="1"/>
        <pt x="615" y="34" on="1"/>
        <pt x="567" y="11" on="0"/>
        <pt x="475" y="-12" on="0"/>
      </contour>
    </TTGlyph>
    <TTGlyph name="Ccedilla" xMin="84" yMin="-213" xMax="697" yMax="740">
      <contour>
        <pt x="433" y="-12" on="1"/>
        <pt x="425" y="-12" on="0"/>
        <pt x="411" y="-11" on="0"/>
        <pt x="403" y="-11" on="1"/>
        <pt x="392" y="-43" on="1"/>
        <pt x="407" y="-46" on="0"/>
        <pt x="434" y="-60" on="0"/>
        <pt x="455" y="-80" on="0"/>
        <pt x="465" y="-107" on="0"/>
        <pt x="463" y="-123" on="1"/>
        <pt x="460" y="-146" on="0"/>
        <pt x="434" y="-179" on="0"/>
        <pt x="395" y="-202" on="0"/>
        <pt x="348" y="-213" on="0"/>
        <pt x="325" y="-213" on="1"/>
        <pt x="290" y="-213" on="0"/>
        <pt x="247" y="-193" on="1"/>
        <pt x="272" y="-138" on="1"/>
        <pt x="289" y="-145" on="0"/>
        <pt x="318" y="-150" on="0"/>
        <pt x="333" y="-150" on="1"/>
        <pt x="350" y="-150" on="0"/>
        <pt x="374" y="-137" on="0"/>
        <pt x="376" y="-126" on="1"/>
        <pt x="378" y="-111" on="0"/>
        <pt x="341" y="-95" on="0"/>
        <pt x="306" y="-91" on="1"/>
        <pt x="340" y="-3" on="1"/>
        <pt x="271" y="10" on="0"/>
        <pt x="171" y="77" on="0"/>
        <pt x="108" y="174" on="0"/>
        <pt x="84" y="295" on="0"/>
        <pt x="92" y="364" on="1"/>
        <pt x="102" y="442" on="0"/>
        <pt x="172" y="579" on="0"/>
        <pt x="284" y="681" on="0"/>
        <pt x="435" y="740" on="0"/>
        <pt x="525" y="740" on="1"/>
        <pt x="567" y="740" on="0"/>
        <pt x="652" y="724" on="0"/>
        <pt x="697" y="706" on="1"/>
        <pt x="650" y="614" on="1"/>
        <pt x="607" y="627" on="0"/>
        <pt x="548" y="637" on="0"/>
        <pt x="513" y="637" on="1"/>
        <pt x="453" y="637" on="0"/>
        <pt x="359" y="590" on="0"/>
        <pt x="291" y="514" on="0"/>
        <pt x="250" y="416" on="0"/>
        <pt x="244" y="364" on="1"/>
        <pt x="238" y="312" on="0"/>
        <pt x="254" y="214" on="0"/>
        <pt x="304" y="137" on="0"/>
        <pt x="386" y="91" on="0"/>
        <pt x="446" y="91" on="1"/>
        <pt x="481" y="91" on="0"/>
        <pt x="550" y="108" on="0"/>
        <pt x="589" y="125" on="1"/>
        <pt x="615" y="34" on="1"/>
        <pt x="567" y="11" on="0"/>
        <pt x="475" y="-12" on="0"/>
      </contour>
    </TTGlyph>
    <TTGlyph name="D" xMin="83" yMin="-12" xMax="788" yMax="740">
      <contour>
        <pt x="374" y="91" on="1"/>
        <pt x="431" y="91" on="0"/>
        <pt x="520" y="139" on="0"/>
        <pt x="583" y="217" on="0"/>
        <pt x="620" y="315" on="0"/>
        <pt x="626" y="365" on="1"/>
        <pt x="633" y="424" on="0"/>
        <pt x="615" y="524" on="0"/>
        <pt x="558" y="596" on="0"/>
        <pt x="460" y="637" on="0"/>
        <pt x="388" y="637" on="1"/>
        <pt x="368" y="637" on="0"/>
        <pt x="324" y="633" on="0"/>
        <pt x="301" y="629" on="1"/>
        <pt x="224" y="0" on="1"/>
        <pt x="83" y="0" on="1"/>
        <pt x="170" y="714" on="1"/>
        <pt x="239" y="728" on="0"/>
        <pt x="356" y="740" on="0"/>
        <pt x="400" y="740" on="1"/>
        <pt x="500" y="740" on="0"/>
        <pt x="651" y="689" on="0"/>
        <pt x="748" y="593" on="0"/>
        <pt x="788" y="454" on="0"/>
        <pt x="777" y="365" on="1"/>
        <pt x="767" y="286" on="0"/>
        <pt x="697" y="148" on="0"/>
        <pt x="590" y="46" on="0"/>
        <pt x="452" y="-12" on="0"/>
        <pt x="376" y="-12" on="1"/>
        <pt x="362" y="-12" on="0"/>
        <pt x="339" y="-11" on="0"/>
        <pt x="313" y="-7" on="0"/>
        <pt x="283" y="-1" on="0"/>
        <pt x="262" y="5" on="1"/>
        <pt x="269" y="18" on="0"/>
        <pt x="291" y="48" on="0"/>
        <pt x="319" y="74" on="0"/>
        <pt x="353" y="91" on="0"/>
      </contour>
    </TTGlyph>
    <TTGlyph name="E" xMin="83" yMin="0" xMax="608" yMax="727">
      <contour>
        <pt x="172" y="727" on="1"/>
        <pt x="608" y="727" on="1"/>
        <pt x="595" y="624" on="1"/>
        <pt x="302" y="624" on="1"/>
        <pt x="238" y="103" on="1"/>
        <pt x="547" y="103" on="1"/>
        <pt x="535" y="0" on="1"/>
        <pt x="83" y="0" on="1"/>
      </contour>
      <contour>
        <pt x="304" y="331" on="1"/>
        <pt x="311" y="347" on="0"/>
        <pt x="332" y="383" on="0"/>
        <pt x="360" y="413" on="0"/>
        <pt x="395" y="432" on="0"/>
        <pt x="417" y="432" on="1"/>
        <pt x="538" y="432" on="1"/>
        <pt x="525" y="331" on="1"/>
      </contour>
    </TTGlyph>
    <TTGlyph name="Eacute" xMin="67" yMin="0" xMax="592" yMax="890">
      <contour>
        <pt x="156" y="727" on="1"/>
        <pt x="592" y="727" on="1"/>
        <pt x="579" y="624" on="1"/>
        <pt x="286" y="624" on="1"/>
        <pt x="222" y="103" on="1"/>
        <pt x="531" y="103" on="1"/>
        <pt x="519" y="0" on="1"/>
        <pt x="67" y="0" on="1"/>
      </contour>
      <contour>
        <pt x="288" y="331" on="1"/>
        <pt x="295" y="347" on="0"/>
        <pt x="316" y="383" on="0"/>
        <pt x="344" y="413" on="0"/>
        <pt x="379" y="432" on="0"/>
        <pt x="401" y="432" on="1"/>
        <pt x="522" y="432" on="1"/>
        <pt x="509" y="331" on="1"/>
      </contour>
      <contour>
        <pt x="480" y="808" on="1"/>
        <pt x="463" y="791" on="0"/>
        <pt x="420" y="771" on="0"/>
        <pt x="377" y="762" on="0"/>
        <pt x="339" y="762" on="0"/>
        <pt x="327" y="765" on="1"/>
        <pt x="429" y="890" on="1"/>
        <pt x="562" y="890" on="1"/>
      </contour>
    </TTGlyph>
    <TTGlyph name="Ecircumflex" xMin="67" yMin="0" xMax="592" yMax="890">
      <contour>
        <pt x="156" y="727" on="1"/>
        <pt x="592" y="727" on="1"/>
        <pt x="579" y="624" on="1"/>
        <pt x="286" y="624" on="1"/>
        <pt x="222" y="103" on="1"/>
        <pt x="531" y="103" on="1"/>
        <pt x="519" y="0" on="1"/>
        <pt x="67" y="0" on="1"/>
      </contour>
      <contour>
        <pt x="288" y="331" on="1"/>
        <pt x="295" y="347" on="0"/>
        <pt x="316" y="383" on="0"/>
        <pt x="344" y="413" on="0"/>
        <pt x="379" y="432" on="0"/>
        <pt x="401" y="432" on="1"/>
        <pt x="522" y="432" on="1"/>
        <pt x="509" y="331" on="1"/>
      </contour>
      <contour>
        <pt x="463" y="890" on="1"/>
        <pt x="556" y="774" on="1"/>
        <pt x="472" y="756" on="1"/>
        <pt x="401" y="812" on="1"/>
        <pt x="318" y="756" on="1"/>
        <pt x="241" y="774" on="1"/>
        <pt x="360" y="890" on="1"/>
      </contour>
    </TTGlyph>
    <TTGlyph name="Edieresis" xMin="67" yMin="0" xMax="592" yMax="903">
      <contour>
        <pt x="156" y="727" on="1"/>
        <pt x="592" y="727" on="1"/>
        <pt x="579" y="624" on="1"/>
        <pt x="286" y="624" on="1"/>
        <pt x="222" y="103" on="1"/>
        <pt x="531" y="103" on="1"/>
        <pt x="519" y="0" on="1"/>
        <pt x="67" y="0" on="1"/>
      </contour>
      <contour>
        <pt x="288" y="331" on="1"/>
        <pt x="295" y="347" on="0"/>
        <pt x="316" y="383" on="0"/>
        <pt x="344" y="413" on="0"/>
        <pt x="379" y="432" on="0"/>
        <pt x="401" y="432" on="1"/>
        <pt x="522" y="432" on="1"/>
        <pt x="509" y="331" on="1"/>
      </contour>
      <contour>
        <pt x="242" y="840" on="1"/>
        <pt x="245" y="866" on="0"/>
        <pt x="286" y="903" on="0"/>
        <pt x="312" y="903" on="1"/>
        <pt x="338" y="903" on="0"/>
        <pt x="372" y="866" on="0"/>
        <pt x="369" y="840" on="1"/>
        <pt x="365" y="814" on="0"/>
        <pt x="323" y="777" on="0"/>
        <pt x="297" y="777" on="1"/>
        <pt x="271" y="777" on="0"/>
        <pt x="238" y="814" on="0"/>
      </contour>
      <contour>
        <pt x="437" y="840" on="1"/>
        <pt x="440" y="866" on="0"/>
        <pt x="481" y="903" on="0"/>
        <pt x="507" y="903" on="1"/>
        <pt x="533" y="903" on="0"/>
        <pt x="567" y="866" on="0"/>
        <pt x="564" y="840" on="1"/>
        <pt x="560" y="814" on="0"/>
        <pt x="518" y="777" on="0"/>
        <pt x="492" y="777" on="1"/>
        <pt x="466" y="777" on="0"/>
        <pt x="433" y="814" on="0"/>
      </contour>
    </TTGlyph>
    <TTGlyph name="Egrave" xMin="67" yMin="0" xMax="592" yMax="890">
      <contour>
        <pt x="156" y="727" on="1"/>
        <pt x="592" y="727" on="1"/>
        <pt x="579" y="624" on="1"/>
        <pt x="286" y="624" on="1"/>
        <pt x="222" y="103" on="1"/>
        <pt x="531" y="103" on="1"/>
        <pt x="519" y="0" on="1"/>
        <pt x="67" y="0" on="1"/>
      </contour>
      <contour>
        <pt x="288" y="331" on="1"/>
        <pt x="295" y="347" on="0"/>
        <pt x="316" y="383" on="0"/>
        <pt x="344" y="413" on="0"/>
        <pt x="379" y="432" on="0"/>
        <pt x="401" y="432" on="1"/>
        <pt x="522" y="432" on="1"/>
        <pt x="509" y="331" on="1"/>
      </contour>
      <contour>
        <pt x="277" y="890" on="1"/>
        <pt x="410" y="890" on="1"/>
        <pt x="468" y="765" on="1"/>
        <pt x="455" y="762" on="0"/>
        <pt x="416" y="761" on="0"/>
        <pt x="375" y="770" on="0"/>
        <pt x="338" y="791" on="0"/>
        <pt x="328" y="808" on="1"/>
      </contour>
    </TTGlyph>
    <TTGlyph name="Eth" xMin="26" yMin="-12" xMax="772" yMax="740">
      <contour>
        <pt x="358" y="91" on="1"/>
        <pt x="415" y="91" on="0"/>
        <pt x="504" y="139" on="0"/>
        <pt x="567" y="217" on="0"/>
        <pt x="604" y="315" on="0"/>
        <pt x="610" y="365" on="1"/>
        <pt x="617" y="424" on="0"/>
        <pt x="599" y="524" on="0"/>
        <pt x="542" y="596" on="0"/>
        <pt x="444" y="637" on="0"/>
        <pt x="372" y="637" on="1"/>
        <pt x="352" y="637" on="0"/>
        <pt x="308" y="633" on="0"/>
        <pt x="285" y="629" on="1"/>
        <pt x="257" y="401" on="1"/>
        <pt x="460" y="401" on="1"/>
        <pt x="449" y="310" on="1"/>
        <pt x="246" y="310" on="1"/>
        <pt x="208" y="0" on="1"/>
        <pt x="67" y="0" on="1"/>
        <pt x="105" y="310" on="1"/>
        <pt x="26" y="310" on="1"/>
        <pt x="37" y="401" on="1"/>
        <pt x="116" y="401" on="1"/>
        <pt x="154" y="714" on="1"/>
        <pt x="223" y="728" on="0"/>
        <pt x="340" y="740" on="0"/>
        <pt x="384" y="740" on="1"/>
        <pt x="484" y="740" on="0"/>
        <pt x="635" y="689" on="0"/>
        <pt x="732" y="593" on="0"/>
        <pt x="772" y="454" on="0"/>
        <pt x="761" y="365" on="1"/>
        <pt x="751" y="286" on="0"/>
        <pt x="681" y="148" on="0"/>
        <pt x="574" y="46" on="0"/>
        <pt x="436" y="-12" on="0"/>
        <pt x="360" y="-12" on="1"/>
        <pt x="346" y="-12" on="0"/>
        <pt x="323" y="-11" on="0"/>
        <pt x="297" y="-7" on="0"/>
        <pt x="267" y="-1" on="0"/>
        <pt x="246" y="5" on="1"/>
        <pt x="253" y="18" on="0"/>
        <pt x="275" y="48" on="0"/>
        <pt x="303" y="74" on="0"/>
        <pt x="337" y="91" on="0"/>
      </contour>
    </TTGlyph>
    <TTGlyph name="Euro" xMin="-3" yMin="-12" xMax="619" yMax="712">
      <contour>
        <pt x="365" y="-12" on="1"/>
        <pt x="293" y="-12" on="0"/>
        <pt x="189" y="29" on="0"/>
        <pt x="119" y="99" on="0"/>
        <pt x="81" y="192" on="0"/>
        <pt x="75" y="244" on="1"/>
        <pt x="-3" y="244" on="1"/>
        <pt x="6" y="319" on="1"/>
        <pt x="74" y="319" on="1"/>
        <pt x="74" y="327" on="0"/>
        <pt x="75" y="342" on="0"/>
        <pt x="76" y="350" on="1"/>
        <pt x="78" y="361" on="0"/>
        <pt x="81" y="385" on="0"/>
        <pt x="84" y="396" on="1"/>
        <pt x="15" y="396" on="1"/>
        <pt x="24" y="471" on="1"/>
        <pt x="106" y="471" on="1"/>
        <pt x="126" y="521" on="0"/>
        <pt x="189" y="609" on="0"/>
        <pt x="276" y="674" on="0"/>
        <pt x="386" y="712" on="0"/>
        <pt x="454" y="712" on="1"/>
        <pt x="495" y="712" on="0"/>
        <pt x="575" y="696" on="0"/>
        <pt x="619" y="679" on="1"/>
        <pt x="573" y="591" on="1"/>
        <pt x="532" y="603" on="0"/>
        <pt x="475" y="613" on="0"/>
        <pt x="442" y="613" on="1"/>
        <pt x="394" y="613" on="0"/>
        <pt x="318" y="568" on="0"/>
        <pt x="263" y="495" on="0"/>
        <pt x="228" y="400" on="0"/>
        <pt x="222" y="350" on="1"/>
        <pt x="221" y="342" on="0"/>
        <pt x="220" y="327" on="0"/>
        <pt x="220" y="319" on="1"/>
        <pt x="496" y="319" on="1"/>
        <pt x="486" y="244" on="1"/>
        <pt x="240" y="244" on="1"/>
        <pt x="220" y="245" on="1"/>
        <pt x="226" y="229" on="1"/>
        <pt x="238" y="168" on="0"/>
        <pt x="311" y="87" on="0"/>
        <pt x="377" y="87" on="1"/>
        <pt x="410" y="87" on="0"/>
        <pt x="477" y="103" on="0"/>
        <pt x="514" y="120" on="1"/>
        <pt x="539" y="32" on="1"/>
        <pt x="494" y="9" on="0"/>
        <pt x="406" y="-12" on="0"/>
      </contour>
      <contour>
        <pt x="514" y="471" on="1"/>
        <pt x="505" y="396" on="1"/>
        <pt x="265" y="396" on="1"/>
        <pt x="279" y="425" on="0"/>
        <pt x="324" y="471" on="0"/>
        <pt x="361" y="471" on="1"/>
      </contour>
    </TTGlyph>
    <TTGlyph name="F" xMin="83" yMin="0" xMax="608" yMax="727">
      <contour>
        <pt x="172" y="727" on="1"/>
        <pt x="608" y="727" on="1"/>
        <pt x="595" y="624" on="1"/>
        <pt x="302" y="624" on="1"/>
        <pt x="226" y="0" on="1"/>
        <pt x="83" y="0" on="1"/>
      </contour>
      <contour>
        <pt x="304" y="331" on="1"/>
        <pt x="311" y="347" on="0"/>
        <pt x="332" y="383" on="0"/>
        <pt x="360" y="413" on="0"/>
        <pt x="395" y="432" on="0"/>
        <pt x="417" y="432" on="1"/>
        <pt x="538" y="432" on="1"/>
        <pt x="525" y="331" on="1"/>
      </contour>
    </TTGlyph>
    <TTGlyph name="G" xMin="76" yMin="-12" xMax="737" yMax="740">
      <contour>
        <pt x="519" y="637" on="1"/>
        <pt x="459" y="637" on="0"/>
        <pt x="362" y="592" on="0"/>
        <pt x="290" y="517" on="0"/>
        <pt x="245" y="417" on="0"/>
        <pt x="238" y="363" on="1"/>
        <pt x="232" y="311" on="0"/>
        <pt x="251" y="213" on="0"/>
        <pt x="304" y="137" on="0"/>
        <pt x="389" y="91" on="0"/>
        <pt x="449" y="91" on="1"/>
        <pt x="471" y="91" on="0"/>
        <pt x="514" y="94" on="0"/>
        <pt x="546" y="102" on="1"/>
        <pt x="575" y="337" on="1"/>
        <pt x="703" y="337" on="1"/>
        <pt x="666" y="37" on="1"/>
        <pt x="637" y="25" on="0"/>
        <pt x="574" y="6" on="0"/>
        <pt x="512" y="-6" on="0"/>
        <pt x="457" y="-12" on="0"/>
        <pt x="436" y="-12" on="1"/>
        <pt x="343" y="-12" on="0"/>
        <pt x="204" y="46" on="0"/>
        <pt x="114" y="148" on="0"/>
        <pt x="76" y="285" on="0"/>
        <pt x="86" y="363" on="1"/>
        <pt x="96" y="442" on="0"/>
        <pt x="169" y="579" on="0"/>
        <pt x="285" y="681" on="0"/>
        <pt x="439" y="740" on="0"/>
        <pt x="531" y="740" on="1"/>
        <pt x="573" y="740" on="0"/>
        <pt x="683" y="720" on="0"/>
        <pt x="737" y="696" on="1"/>
        <pt x="688" y="600" on="1"/>
        <pt x="634" y="622" on="0"/>
        <pt x="554" y="637" on="0"/>
      </contour>
    </TTGlyph>
    <TTGlyph name="H" xMin="83" yMin="0" xMax="771" yMax="727">
      <contour>
        <pt x="304" y="330" on="1"/>
        <pt x="311" y="346" on="0"/>
        <pt x="331" y="383" on="0"/>
        <pt x="360" y="413" on="0"/>
        <pt x="395" y="433" on="0"/>
        <pt x="417" y="433" on="1"/>
        <pt x="594" y="433" on="1"/>
        <pt x="630" y="727" on="1"/>
        <pt x="771" y="727" on="1"/>
        <pt x="682" y="0" on="1"/>
        <pt x="541" y="0" on="1"/>
        <pt x="581" y="330" on="1"/>
      </contour>
      <contour>
        <pt x="172" y="727" on="1"/>
        <pt x="315" y="727" on="1"/>
        <pt x="226" y="0" on="1"/>
        <pt x="83" y="0" on="1"/>
      </contour>
    </TTGlyph>
    <TTGlyph name="I" xMin="83" yMin="0" xMax="311" yMax="727">
      <contour>
        <pt x="222" y="0" on="1"/>
        <pt x="83" y="0" on="1"/>
        <pt x="172" y="727" on="1"/>
        <pt x="311" y="727" on="1"/>
      </contour>
    </TTGlyph>
    <TTGlyph name="Iacute" xMin="65" yMin="0" xMax="396" yMax="890">
      <contour>
        <pt x="204" y="0" on="1"/>
        <pt x="65" y="0" on="1"/>
        <pt x="154" y="727" on="1"/>
        <pt x="293" y="727" on="1"/>
      </contour>
      <contour>
        <pt x="314" y="808" on="1"/>
        <pt x="297" y="791" on="0"/>
        <pt x="254" y="771" on="0"/>
        <pt x="211" y="762" on="0"/>
        <pt x="173" y="762" on="0"/>
        <pt x="161" y="765" on="1"/>
        <pt x="263" y="890" on="1"/>
        <pt x="396" y="890" on="1"/>
      </contour>
    </TTGlyph>
    <TTGlyph name="Icircumflex" xMin="90" yMin="0" xMax="413" yMax="890">
      <contour>
        <pt x="229" y="0" on="1"/>
        <pt x="90" y="0" on="1"/>
        <pt x="179" y="727" on="1"/>
        <pt x="318" y="727" on="1"/>
      </contour>
      <contour>
        <pt x="320" y="890" on="1"/>
        <pt x="413" y="774" on="1"/>
        <pt x="329" y="756" on="1"/>
        <pt x="258" y="812" on="1"/>
        <pt x="175" y="756" on="1"/>
        <pt x="98" y="774" on="1"/>
        <pt x="217" y="890" on="1"/>
      </contour>
    </TTGlyph>
    <TTGlyph name="Idieresis" xMin="104" yMin="0" xMax="440" yMax="903">
      <contour>
        <pt x="243" y="0" on="1"/>
        <pt x="104" y="0" on="1"/>
        <pt x="193" y="727" on="1"/>
        <pt x="332" y="727" on="1"/>
      </contour>
      <contour>
        <pt x="115" y="840" on="1"/>
        <pt x="118" y="866" on="0"/>
        <pt x="159" y="903" on="0"/>
        <pt x="185" y="903" on="1"/>
        <pt x="211" y="903" on="0"/>
        <pt x="245" y="866" on="0"/>
        <pt x="242" y="840" on="1"/>
        <pt x="238" y="814" on="0"/>
        <pt x="196" y="777" on="0"/>
        <pt x="170" y="777" on="1"/>
        <pt x="144" y="777" on="0"/>
        <pt x="111" y="814" on="0"/>
      </contour>
      <contour>
        <pt x="310" y="840" on="1"/>
        <pt x="313" y="866" on="0"/>
        <pt x="354" y="903" on="0"/>
        <pt x="380" y="903" on="1"/>
        <pt x="406" y="903" on="0"/>
        <pt x="440" y="866" on="0"/>
        <pt x="437" y="840" on="1"/>
        <pt x="433" y="814" on="0"/>
        <pt x="391" y="777" on="0"/>
        <pt x="365" y="777" on="1"/>
        <pt x="339" y="777" on="0"/>
        <pt x="306" y="814" on="0"/>
      </contour>
    </TTGlyph>
    <TTGlyph name="Igrave" xMin="73" yMin="0" xMax="306" yMax="890">
      <contour>
        <pt x="212" y="0" on="1"/>
        <pt x="73" y="0" on="1"/>
        <pt x="162" y="727" on="1"/>
        <pt x="301" y="727" on="1"/>
      </contour>
      <contour>
        <pt x="115" y="890" on="1"/>
        <pt x="248" y="890" on="1"/>
        <pt x="306" y="765" on="1"/>
        <pt x="293" y="762" on="0"/>
        <pt x="254" y="761" on="0"/>
        <pt x="213" y="770" on="0"/>
        <pt x="176" y="791" on="0"/>
        <pt x="166" y="808" on="1"/>
      </contour>
    </TTGlyph>
    <TTGlyph name="J" xMin="-27" yMin="-222" xMax="379" yMax="727">
      <contour>
        <pt x="305" y="128" on="1"/>
        <pt x="296" y="58" on="0"/>
        <pt x="254" y="-40" on="0"/>
        <pt x="185" y="-117" on="0"/>
        <pt x="89" y="-183" on="0"/>
        <pt x="26" y="-222" on="1"/>
        <pt x="-27" y="-140" on="1"/>
        <pt x="14" y="-109" on="0"/>
        <pt x="79" y="-57" on="0"/>
        <pt x="126" y="3" on="0"/>
        <pt x="157" y="76" on="0"/>
        <pt x="163" y="128" on="1"/>
        <pt x="237" y="727" on="1"/>
        <pt x="379" y="727" on="1"/>
      </contour>
    </TTGlyph>
    <TTGlyph name="K" xMin="83" yMin="0" xMax="747" yMax="727">
      <contour>
        <pt x="487" y="436" on="1"/>
        <pt x="693" y="0" on="1"/>
        <pt x="529" y="0" on="1"/>
        <pt x="404" y="322" on="1"/>
        <pt x="400" y="346" on="1"/>
        <pt x="385" y="324" on="1"/>
        <pt x="312" y="243" on="1"/>
        <pt x="307" y="276" on="0"/>
        <pt x="317" y="346" on="0"/>
        <pt x="341" y="413" on="0"/>
        <pt x="376" y="473" on="0"/>
        <pt x="397" y="497" on="1"/>
        <pt x="590" y="727" on="1"/>
        <pt x="747" y="727" on="1"/>
      </contour>
      <contour>
        <pt x="83" y="0" on="1"/>
        <pt x="172" y="727" on="1"/>
        <pt x="315" y="727" on="1"/>
        <pt x="226" y="0" on="1"/>
      </contour>
    </TTGlyph>
    <TTGlyph name="L" xMin="82" yMin="0" xMax="500" yMax="727">
      <contour>
        <pt x="171" y="727" on="1"/>
        <pt x="315" y="727" on="1"/>
        <pt x="238" y="104" on="1"/>
        <pt x="500" y="104" on="1"/>
        <pt x="488" y="0" on="1"/>
        <pt x="82" y="0" on="1"/>
      </contour>
    </TTGlyph>
    <TTGlyph name="M" xMin="74" yMin="0" xMax="928" yMax="727">
      <contour>
        <pt x="233" y="727" on="1"/>
        <pt x="414" y="727" on="1"/>
        <pt x="504" y="166" on="1"/>
        <pt x="506" y="130" on="1"/>
        <pt x="519" y="166" on="1"/>
        <pt x="746" y="727" on="1"/>
        <pt x="928" y="727" on="1"/>
        <pt x="907" y="0" on="1"/>
        <pt x="776" y="0" on="1"/>
        <pt x="804" y="548" on="1"/>
        <pt x="807" y="596" on="1"/>
        <pt x="789" y="548" on="1"/>
        <pt x="565" y="10" on="1"/>
        <pt x="418" y="10" on="1"/>
        <pt x="324" y="549" on="1"/>
        <pt x="318" y="596" on="1"/>
        <pt x="309" y="549" on="1"/>
        <pt x="205" y="0" on="1"/>
        <pt x="74" y="0" on="1"/>
      </contour>
    </TTGlyph>
    <TTGlyph name="N" xMin="94" yMin="0" xMax="766" yMax="727">
      <contour>
        <pt x="292" y="509" on="1"/>
        <pt x="280" y="545" on="1"/>
        <pt x="278" y="511" on="1"/>
        <pt x="216" y="0" on="1"/>
        <pt x="94" y="0" on="1"/>
        <pt x="183" y="727" on="1"/>
        <pt x="321" y="727" on="1"/>
        <pt x="568" y="238" on="1"/>
        <pt x="577" y="198" on="1"/>
        <pt x="580" y="238" on="1"/>
        <pt x="640" y="727" on="1"/>
        <pt x="766" y="727" on="1"/>
        <pt x="677" y="0" on="1"/>
        <pt x="551" y="0" on="1"/>
      </contour>
    </TTGlyph>
    <TTGlyph name="Ntilde" xMin="84" yMin="0" xMax="756" yMax="901">
      <contour>
        <pt x="280" y="511" on="1"/>
        <pt x="270" y="545" on="1"/>
        <pt x="268" y="511" on="1"/>
        <pt x="206" y="0" on="1"/>
        <pt x="84" y="0" on="1"/>
        <pt x="173" y="727" on="1"/>
        <pt x="311" y="727" on="1"/>
        <pt x="559" y="236" on="1"/>
        <pt x="567" y="203" on="1"/>
        <pt x="570" y="238" on="1"/>
        <pt x="630" y="727" on="1"/>
        <pt x="756" y="727" on="1"/>
        <pt x="667" y="0" on="1"/>
        <pt x="541" y="0" on="1"/>
      </contour>
      <contour>
        <pt x="313" y="783" on="1"/>
        <pt x="317" y="811" on="0"/>
        <pt x="340" y="855" on="0"/>
        <pt x="371" y="885" on="0"/>
        <pt x="408" y="901" on="0"/>
        <pt x="426" y="901" on="1"/>
        <pt x="448" y="901" on="0"/>
        <pt x="480" y="884" on="0"/>
        <pt x="506" y="865" on="0"/>
        <pt x="527" y="848" on="0"/>
        <pt x="538" y="848" on="1"/>
        <pt x="551" y="848" on="0"/>
        <pt x="569" y="873" on="0"/>
        <pt x="574" y="893" on="1"/>
        <pt x="646" y="887" on="1"/>
        <pt x="641" y="855" on="0"/>
        <pt x="616" y="811" on="0"/>
        <pt x="586" y="782" on="0"/>
        <pt x="552" y="769" on="0"/>
        <pt x="538" y="769" on="1"/>
        <pt x="513" y="769" on="0"/>
        <pt x="481" y="786" on="0"/>
        <pt x="458" y="805" on="0"/>
        <pt x="439" y="822" on="0"/>
        <pt x="427" y="822" on="1"/>
        <pt x="416" y="822" on="0"/>
        <pt x="392" y="803" on="0"/>
        <pt x="387" y="777" on="1"/>
      </contour>
    </TTGlyph>
    <TTGlyph name="O" xMin="77" yMin="-14" xMax="818" yMax="742">
      <contour>
        <pt x="483" y="639" on="1"/>
        <pt x="431" y="639" on="0"/>
        <pt x="347" y="595" on="0"/>
        <pt x="285" y="519" on="0"/>
        <pt x="246" y="419" on="0"/>
        <pt x="239" y="364" on="1"/>
        <pt x="233" y="312" on="0"/>
        <pt x="247" y="213" on="0"/>
        <pt x="291" y="136" on="0"/>
        <pt x="363" y="89" on="0"/>
        <pt x="415" y="89" on="1"/>
        <pt x="456" y="89" on="0"/>
        <pt x="537" y="126" on="0"/>
        <pt x="604" y="196" on="0"/>
        <pt x="651" y="298" on="0"/>
        <pt x="659" y="364" on="1"/>
        <pt x="666" y="423" on="0"/>
        <pt x="650" y="524" on="0"/>
        <pt x="605" y="597" on="0"/>
        <pt x="532" y="639" on="0"/>
      </contour>
      <contour>
        <pt x="403" y="-14" on="1"/>
        <pt x="316" y="-14" on="0"/>
        <pt x="189" y="44" on="0"/>
        <pt x="109" y="145" on="0"/>
        <pt x="77" y="283" on="0"/>
        <pt x="87" y="364" on="1"/>
        <pt x="97" y="442" on="0"/>
        <pt x="163" y="580" on="0"/>
        <pt x="268" y="683" on="0"/>
        <pt x="410" y="742" on="0"/>
        <pt x="496" y="742" on="1"/>
        <pt x="594" y="742" on="0"/>
        <pt x="723" y="674" on="0"/>
        <pt x="796" y="565" on="0"/>
        <pt x="818" y="430" on="0"/>
        <pt x="810" y="364" on="1"/>
        <pt x="801" y="290" on="0"/>
        <pt x="737" y="154" on="0"/>
        <pt x="632" y="49" on="0"/>
        <pt x="490" y="-14" on="0"/>
      </contour>
    </TTGlyph>
    <TTGlyph name="OE" xMin="54" yMin="-14" xMax="1003" yMax="742">
      <contour>
        <pt x="473" y="742" on="1"/>
        <pt x="493" y="742" on="0"/>
        <pt x="530" y="737" on="0"/>
        <pt x="568" y="732" on="0"/>
        <pt x="607" y="727" on="0"/>
        <pt x="630" y="727" on="1"/>
        <pt x="1003" y="727" on="1"/>
        <pt x="990" y="624" on="1"/>
        <pt x="697" y="624" on="1"/>
        <pt x="633" y="103" on="1"/>
        <pt x="942" y="103" on="1"/>
        <pt x="930" y="0" on="1"/>
        <pt x="541" y="0" on="1"/>
        <pt x="491" y="0" on="0"/>
        <pt x="416" y="-14" on="0"/>
        <pt x="380" y="-14" on="1"/>
        <pt x="295" y="-14" on="0"/>
        <pt x="168" y="42" on="0"/>
        <pt x="87" y="142" on="0"/>
        <pt x="54" y="281" on="0"/>
        <pt x="64" y="364" on="1"/>
        <pt x="74" y="446" on="0"/>
        <pt x="142" y="584" on="0"/>
        <pt x="249" y="685" on="0"/>
        <pt x="390" y="742" on="0"/>
      </contour>
      <contour>
        <pt x="392" y="89" on="1"/>
        <pt x="446" y="89" on="0"/>
        <pt x="490" y="105" on="1"/>
        <pt x="554" y="622" on="1"/>
        <pt x="511" y="639" on="0"/>
        <pt x="460" y="639" on="1"/>
        <pt x="408" y="639" on="0"/>
        <pt x="324" y="595" on="0"/>
        <pt x="262" y="519" on="0"/>
        <pt x="223" y="419" on="0"/>
        <pt x="216" y="364" on="1"/>
        <pt x="210" y="312" on="0"/>
        <pt x="224" y="213" on="0"/>
        <pt x="268" y="136" on="0"/>
        <pt x="340" y="89" on="0"/>
      </contour>
      <contour>
        <pt x="699" y="331" on="1"/>
        <pt x="706" y="347" on="0"/>
        <pt x="727" y="383" on="0"/>
        <pt x="755" y="413" on="0"/>
        <pt x="790" y="432" on="0"/>
        <pt x="812" y="432" on="1"/>
        <pt x="933" y="432" on="1"/>
        <pt x="920" y="331" on="1"/>
      </contour>
    </TTGlyph>
    <TTGlyph name="Oacute" xMin="53" yMin="-14" xMax="796" yMax="890">
      <contour>
        <pt x="391" y="89" on="1"/>
        <pt x="443" y="89" on="0"/>
        <pt x="527" y="136" on="0"/>
        <pt x="590" y="213" on="0"/>
        <pt x="629" y="312" on="0"/>
        <pt x="635" y="364" on="1"/>
        <pt x="642" y="419" on="0"/>
        <pt x="627" y="519" on="0"/>
        <pt x="584" y="595" on="0"/>
        <pt x="511" y="639" on="0"/>
        <pt x="459" y="639" on="1"/>
        <pt x="407" y="639" on="0"/>
        <pt x="323" y="595" on="0"/>
        <pt x="261" y="519" on="0"/>
        <pt x="222" y="419" on="0"/>
        <pt x="215" y="364" on="1"/>
        <pt x="209" y="312" on="0"/>
        <pt x="223" y="213" on="0"/>
        <pt x="267" y="136" on="0"/>
        <pt x="339" y="89" on="0"/>
      </contour>
      <contour>
        <pt x="379" y="-14" on="1"/>
        <pt x="294" y="-14" on="0"/>
        <pt x="167" y="42" on="0"/>
        <pt x="86" y="142" on="0"/>
        <pt x="53" y="281" on="0"/>
        <pt x="63" y="364" on="1"/>
        <pt x="73" y="446" on="0"/>
        <pt x="141" y="584" on="0"/>
        <pt x="248" y="685" on="0"/>
        <pt x="389" y="742" on="0"/>
        <pt x="472" y="742" on="1"/>
        <pt x="556" y="742" on="0"/>
        <pt x="683" y="686" on="0"/>
        <pt x="764" y="585" on="0"/>
        <pt x="796" y="446" on="0"/>
        <pt x="786" y="364" on="1"/>
        <pt x="776" y="282" on="0"/>
        <pt x="705" y="143" on="0"/>
        <pt x="597" y="43" on="0"/>
        <pt x="458" y="-14" on="0"/>
      </contour>
      <contour>
        <pt x="576" y="808" on="1"/>
        <pt x="559" y="791" on="0"/>
        <pt x="516" y="771" on="0"/>
        <pt x="473" y="762" on="0"/>
        <pt x="435" y="762" on="0"/>
        <pt x="423" y="765" on="1"/>
        <pt x="525" y="890" on="1"/>
        <pt x="658" y="890" on="1"/>
      </contour>
    </TTGlyph>
    <TTGlyph name="Ocircumflex" xMin="53" yMin="-14" xMax="796" yMax="890">
      <contour>
        <pt x="391" y="89" on="1"/>
        <pt x="443" y="89" on="0"/>
        <pt x="527" y="136" on="0"/>
        <pt x="590" y="213" on="0"/>
        <pt x="629" y="312" on="0"/>
        <pt x="635" y="364" on="1"/>
        <pt x="642" y="419" on="0"/>
        <pt x="627" y="519" on="0"/>
        <pt x="584" y="595" on="0"/>
        <pt x="511" y="639" on="0"/>
        <pt x="459" y="639" on="1"/>
        <pt x="407" y="639" on="0"/>
        <pt x="323" y="595" on="0"/>
        <pt x="261" y="519" on="0"/>
        <pt x="222" y="419" on="0"/>
        <pt x="215" y="364" on="1"/>
        <pt x="209" y="312" on="0"/>
        <pt x="223" y="213" on="0"/>
        <pt x="267" y="136" on="0"/>
        <pt x="339" y="89" on="0"/>
      </contour>
      <contour>
        <pt x="379" y="-14" on="1"/>
        <pt x="294" y="-14" on="0"/>
        <pt x="167" y="42" on="0"/>
        <pt x="86" y="142" on="0"/>
        <pt x="53" y="281" on="0"/>
        <pt x="63" y="364" on="1"/>
        <pt x="73" y="446" on="0"/>
        <pt x="141" y="584" on="0"/>
        <pt x="248" y="685" on="0"/>
        <pt x="389" y="742" on="0"/>
        <pt x="472" y="742" on="1"/>
        <pt x="556" y="742" on="0"/>
        <pt x="683" y="686" on="0"/>
        <pt x="764" y="585" on="0"/>
        <pt x="796" y="446" on="0"/>
        <pt x="786" y="364" on="1"/>
        <pt x="776" y="282" on="0"/>
        <pt x="705" y="143" on="0"/>
        <pt x="597" y="43" on="0"/>
        <pt x="458" y="-14" on="0"/>
      </contour>
      <contour>
        <pt x="544" y="890" on="1"/>
        <pt x="637" y="774" on="1"/>
        <pt x="553" y="756" on="1"/>
        <pt x="482" y="812" on="1"/>
        <pt x="399" y="756" on="1"/>
        <pt x="322" y="774" on="1"/>
        <pt x="441" y="890" on="1"/>
      </contour>
    </TTGlyph>
    <TTGlyph name="Odieresis" xMin="54" yMin="-14" xMax="797" yMax="903">
      <contour>
        <pt x="392" y="89" on="1"/>
        <pt x="444" y="89" on="0"/>
        <pt x="528" y="136" on="0"/>
        <pt x="591" y="213" on="0"/>
        <pt x="630" y="312" on="0"/>
        <pt x="636" y="364" on="1"/>
        <pt x="643" y="419" on="0"/>
        <pt x="628" y="519" on="0"/>
        <pt x="585" y="595" on="0"/>
        <pt x="512" y="639" on="0"/>
        <pt x="460" y="639" on="1"/>
        <pt x="408" y="639" on="0"/>
        <pt x="324" y="595" on="0"/>
        <pt x="262" y="519" on="0"/>
        <pt x="223" y="419" on="0"/>
        <pt x="216" y="364" on="1"/>
        <pt x="210" y="312" on="0"/>
        <pt x="224" y="213" on="0"/>
        <pt x="268" y="136" on="0"/>
        <pt x="340" y="89" on="0"/>
      </contour>
      <contour>
        <pt x="380" y="-14" on="1"/>
        <pt x="295" y="-14" on="0"/>
        <pt x="168" y="42" on="0"/>
        <pt x="87" y="142" on="0"/>
        <pt x="54" y="281" on="0"/>
        <pt x="64" y="364" on="1"/>
        <pt x="74" y="446" on="0"/>
        <pt x="142" y="584" on="0"/>
        <pt x="249" y="685" on="0"/>
        <pt x="390" y="742" on="0"/>
        <pt x="473" y="742" on="1"/>
        <pt x="557" y="742" on="0"/>
        <pt x="684" y="686" on="0"/>
        <pt x="765" y="585" on="0"/>
        <pt x="797" y="446" on="0"/>
        <pt x="787" y="364" on="1"/>
        <pt x="777" y="282" on="0"/>
        <pt x="706" y="143" on="0"/>
        <pt x="598" y="43" on="0"/>
        <pt x="459" y="-14" on="0"/>
      </contour>
      <contour>
        <pt x="326" y="840" on="1"/>
        <pt x="329" y="866" on="0"/>
        <pt x="370" y="903" on="0"/>
        <pt x="396" y="903" on="1"/>
        <pt x="422" y="903" on="0"/>
        <pt x="456" y="866" on="0"/>
        <pt x="453" y="840" on="1"/>
        <pt x="449" y="814" on="0"/>
        <pt x="407" y="777" on="0"/>
        <pt x="381" y="777" on="1"/>
        <pt x="355" y="777" on="0"/>
        <pt x="322" y="814" on="0"/>
      </contour>
      <contour>
        <pt x="521" y="840" on="1"/>
        <pt x="524" y="866" on="0"/>
        <pt x="565" y="903" on="0"/>
        <pt x="591" y="903" on="1"/>
        <pt x="617" y="903" on="0"/>
        <pt x="651" y="866" on="0"/>
        <pt x="648" y="840" on="1"/>
        <pt x="644" y="814" on="0"/>
        <pt x="602" y="777" on="0"/>
        <pt x="576" y="777" on="1"/>
        <pt x="550" y="777" on="0"/>
        <pt x="517" y="814" on="0"/>
      </contour>
    </TTGlyph>
    <TTGlyph name="Ograve" xMin="55" yMin="-14" xMax="798" yMax="890">
      <contour>
        <pt x="393" y="89" on="1"/>
        <pt x="445" y="89" on="0"/>
        <pt x="529" y="136" on="0"/>
        <pt x="592" y="213" on="0"/>
        <pt x="631" y="312" on="0"/>
        <pt x="637" y="364" on="1"/>
        <pt x="644" y="419" on="0"/>
        <pt x="629" y="519" on="0"/>
        <pt x="586" y="595" on="0"/>
        <pt x="513" y="639" on="0"/>
        <pt x="461" y="639" on="1"/>
        <pt x="409" y="639" on="0"/>
        <pt x="325" y="595" on="0"/>
        <pt x="263" y="519" on="0"/>
        <pt x="224" y="419" on="0"/>
        <pt x="217" y="364" on="1"/>
        <pt x="211" y="312" on="0"/>
        <pt x="225" y="213" on="0"/>
        <pt x="269" y="136" on="0"/>
        <pt x="341" y="89" on="0"/>
      </contour>
      <contour>
        <pt x="381" y="-14" on="1"/>
        <pt x="296" y="-14" on="0"/>
        <pt x="169" y="42" on="0"/>
        <pt x="88" y="142" on="0"/>
        <pt x="55" y="281" on="0"/>
        <pt x="65" y="364" on="1"/>
        <pt x="75" y="446" on="0"/>
        <pt x="143" y="584" on="0"/>
        <pt x="250" y="685" on="0"/>
        <pt x="391" y="742" on="0"/>
        <pt x="474" y="742" on="1"/>
        <pt x="558" y="742" on="0"/>
        <pt x="685" y="686" on="0"/>
        <pt x="766" y="585" on="0"/>
        <pt x="798" y="446" on="0"/>
        <pt x="788" y="364" on="1"/>
        <pt x="778" y="282" on="0"/>
        <pt x="707" y="143" on="0"/>
        <pt x="599" y="43" on="0"/>
        <pt x="460" y="-14" on="0"/>
      </contour>
      <contour>
        <pt x="326" y="890" on="1"/>
        <pt x="459" y="890" on="1"/>
        <pt x="517" y="765" on="1"/>
        <pt x="504" y="762" on="0"/>
        <pt x="465" y="761" on="0"/>
        <pt x="424" y="770" on="0"/>
        <pt x="387" y="791" on="0"/>
        <pt x="377" y="808" on="1"/>
      </contour>
    </TTGlyph>
    <TTGlyph name="Oslash" xMin="52" yMin="-60" xMax="799" yMax="789">
      <contour>
        <pt x="697" y="665" on="1"/>
        <pt x="752" y="614" on="0"/>
        <pt x="799" y="460" on="0"/>
        <pt x="787" y="364" on="1"/>
        <pt x="777" y="282" on="0"/>
        <pt x="706" y="143" on="0"/>
        <pt x="598" y="43" on="0"/>
        <pt x="459" y="-14" on="0"/>
        <pt x="380" y="-14" on="1"/>
        <pt x="339" y="-14" on="0"/>
        <pt x="269" y="-1" on="0"/>
        <pt x="238" y="11" on="1"/>
        <pt x="188" y="-60" on="1"/>
        <pt x="69" y="-60" on="1"/>
        <pt x="156" y="62" on="1"/>
        <pt x="99" y="113" on="0"/>
        <pt x="52" y="267" on="0"/>
        <pt x="64" y="364" on="1"/>
        <pt x="74" y="446" on="0"/>
        <pt x="142" y="584" on="0"/>
        <pt x="249" y="685" on="0"/>
        <pt x="390" y="742" on="0"/>
        <pt x="473" y="742" on="1"/>
        <pt x="553" y="742" on="0"/>
        <pt x="613" y="716" on="1"/>
        <pt x="666" y="789" on="1"/>
        <pt x="785" y="789" on="1"/>
      </contour>
      <contour>
        <pt x="392" y="89" on="1"/>
        <pt x="444" y="89" on="0"/>
        <pt x="528" y="136" on="0"/>
        <pt x="591" y="213" on="0"/>
        <pt x="630" y="312" on="0"/>
        <pt x="636" y="364" on="1"/>
        <pt x="643" y="416" on="0"/>
        <pt x="631" y="509" on="0"/>
        <pt x="613" y="546" on="1"/>
        <pt x="325" y="144" on="1"/>
        <pt x="316" y="159" on="0"/>
        <pt x="298" y="193" on="0"/>
        <pt x="291" y="231" on="0"/>
        <pt x="297" y="272" on="0"/>
        <pt x="311" y="294" on="1"/>
        <pt x="545" y="619" on="1"/>
        <pt x="508" y="639" on="0"/>
        <pt x="460" y="639" on="1"/>
        <pt x="408" y="639" on="0"/>
        <pt x="324" y="595" on="0"/>
        <pt x="262" y="519" on="0"/>
        <pt x="223" y="419" on="0"/>
        <pt x="216" y="364" on="1"/>
        <pt x="210" y="312" on="0"/>
        <pt x="224" y="213" on="0"/>
        <pt x="268" y="136" on="0"/>
        <pt x="340" y="89" on="0"/>
      </contour>
    </TTGlyph>
    <TTGlyph name="Otilde" xMin="54" yMin="-14" xMax="797" yMax="901">
      <contour>
        <pt x="392" y="89" on="1"/>
        <pt x="444" y="89" on="0"/>
        <pt x="528" y="136" on="0"/>
        <pt x="591" y="213" on="0"/>
        <pt x="630" y="312" on="0"/>
        <pt x="636" y="364" on="1"/>
        <pt x="643" y="419" on="0"/>
        <pt x="628" y="519" on="0"/>
        <pt x="585" y="595" on="0"/>
        <pt x="512" y="639" on="0"/>
        <pt x="460" y="639" on="1"/>
        <pt x="408" y="639" on="0"/>
        <pt x="324" y="595" on="0"/>
        <pt x="262" y="519" on="0"/>
        <pt x="223" y="419" on="0"/>
        <pt x="216" y="364" on="1"/>
        <pt x="210" y="312" on="0"/>
        <pt x="224" y="213" on="0"/>
        <pt x="268" y="136" on="0"/>
        <pt x="340" y="89" on="0"/>
      </contour>
      <contour>
        <pt x="380" y="-14" on="1"/>
        <pt x="295" y="-14" on="0"/>
        <pt x="168" y="42" on="0"/>
        <pt x="87" y="142" on="0"/>
        <pt x="54" y="281" on="0"/>
        <pt x="64" y="364" on="1"/>
        <pt x="74" y="446" on="0"/>
        <pt x="142" y="584" on="0"/>
        <pt x="249" y="685" on="0"/>
        <pt x="390" y="742" on="0"/>
        <pt x="473" y="742" on="1"/>
        <pt x="557" y="742" on="0"/>
        <pt x="684" y="686" on="0"/>
        <pt x="765" y="585" on="0"/>
        <pt x="797" y="446" on="0"/>
        <pt x="787" y="364" on="1"/>
        <pt x="777" y="282" on="0"/>
        <pt x="706" y="143" on="0"/>
        <pt x="598" y="43" on="0"/>
        <pt x="459" y="-14" on="0"/>
      </contour>
      <contour>
        <pt x="322" y="783" on="1"/>
        <pt x="326" y="811" on="0"/>
        <pt x="349" y="855" on="0"/>
        <pt x="380" y="885" on="0"/>
        <pt x="417" y="901" on="0"/>
        <pt x="435" y="901" on="1"/>
        <pt x="457" y="901" on="0"/>
        <pt x="489" y="884" on="0"/>
        <pt x="515" y="865" on="0"/>
        <pt x="536" y="848" on="0"/>
        <pt x="547" y="848" on="1"/>
        <pt x="560" y="848" on="0"/>
        <pt x="578" y="873" on="0"/>
        <pt x="583" y="893" on="1"/>
        <pt x="655" y="887" on="1"/>
        <pt x="650" y="855" on="0"/>
        <pt x="625" y="811" on="0"/>
        <pt x="595" y="782" on="0"/>
        <pt x="561" y="769" on="0"/>
        <pt x="547" y="769" on="1"/>
        <pt x="522" y="769" on="0"/>
        <pt x="490" y="786" on="0"/>
        <pt x="467" y="805" on="0"/>
        <pt x="448" y="822" on="0"/>
        <pt x="436" y="822" on="1"/>
        <pt x="425" y="822" on="0"/>
        <pt x="401" y="803" on="0"/>
        <pt x="396" y="777" on="1"/>
      </contour>
    </TTGlyph>
    <TTGlyph name="P" xMin="83" yMin="0" xMax="666" yMax="741">
      <contour>
        <pt x="659" y="513" on="1"/>
        <pt x="653" y="463" on="0"/>
        <pt x="604" y="384" on="0"/>
        <pt x="533" y="327" on="0"/>
        <pt x="445" y="293" on="0"/>
        <pt x="400" y="289" on="1"/>
        <pt x="377" y="287" on="0"/>
        <pt x="327" y="290" on="0"/>
        <pt x="300" y="298" on="1"/>
        <pt x="307" y="312" on="0"/>
        <pt x="327" y="343" on="0"/>
        <pt x="351" y="369" on="0"/>
        <pt x="380" y="387" on="0"/>
        <pt x="397" y="389" on="1"/>
        <pt x="418" y="391" on="0"/>
        <pt x="457" y="412" on="0"/>
        <pt x="489" y="445" on="0"/>
        <pt x="509" y="489" on="0"/>
        <pt x="512" y="513" on="1"/>
        <pt x="515" y="539" on="0"/>
        <pt x="501" y="584" on="0"/>
        <pt x="469" y="618" on="0"/>
        <pt x="420" y="638" on="0"/>
        <pt x="389" y="638" on="1"/>
        <pt x="375" y="638" on="0"/>
        <pt x="356" y="637" on="0"/>
        <pt x="338" y="636" on="0"/>
        <pt x="318" y="633" on="0"/>
        <pt x="304" y="632" on="1"/>
        <pt x="227" y="0" on="1"/>
        <pt x="83" y="0" on="1"/>
        <pt x="171" y="718" on="1"/>
        <pt x="212" y="725" on="0"/>
        <pt x="274" y="734" on="0"/>
        <pt x="326" y="739" on="0"/>
        <pt x="374" y="741" on="0"/>
        <pt x="401" y="741" on="1"/>
        <pt x="462" y="741" on="0"/>
        <pt x="563" y="709" on="0"/>
        <pt x="632" y="650" on="0"/>
        <pt x="666" y="566" on="0"/>
      </contour>
    </TTGlyph>
    <TTGlyph name="Q" xMin="77" yMin="-26" xMax="820" yMax="742">
      <contour>
        <pt x="392" y="-14" on="1"/>
        <pt x="311" y="-14" on="0"/>
        <pt x="188" y="42" on="0"/>
        <pt x="109" y="142" on="0"/>
        <pt x="77" y="281" on="0"/>
        <pt x="87" y="364" on="1"/>
        <pt x="97" y="446" on="0"/>
        <pt x="165" y="584" on="0"/>
        <pt x="272" y="685" on="0"/>
        <pt x="413" y="742" on="0"/>
        <pt x="496" y="742" on="1"/>
        <pt x="580" y="742" on="0"/>
        <pt x="707" y="686" on="0"/>
        <pt x="788" y="585" on="0"/>
        <pt x="820" y="446" on="0"/>
        <pt x="810" y="364" on="1"/>
        <pt x="802" y="295" on="0"/>
        <pt x="736" y="166" on="0"/>
        <pt x="688" y="114" on="1"/>
        <pt x="743" y="50" on="1"/>
        <pt x="657" y="-26" on="1"/>
        <pt x="441" y="226" on="1"/>
        <pt x="527" y="303" on="1"/>
        <pt x="597" y="221" on="1"/>
        <pt x="607" y="200" on="1"/>
        <pt x="616" y="226" on="1"/>
        <pt x="633" y="258" on="0"/>
        <pt x="655" y="330" on="0"/>
        <pt x="659" y="364" on="1"/>
        <pt x="666" y="419" on="0"/>
        <pt x="651" y="519" on="0"/>
        <pt x="608" y="595" on="0"/>
        <pt x="535" y="639" on="0"/>
        <pt x="483" y="639" on="1"/>
        <pt x="431" y="639" on="0"/>
        <pt x="347" y="595" on="0"/>
        <pt x="285" y="519" on="0"/>
        <pt x="246" y="419" on="0"/>
        <pt x="239" y="364" on="1"/>
        <pt x="233" y="312" on="0"/>
        <pt x="247" y="213" on="0"/>
        <pt x="288" y="136" on="0"/>
        <pt x="356" y="89" on="0"/>
        <pt x="404" y="89" on="1"/>
        <pt x="411" y="89" on="0"/>
        <pt x="437" y="91" on="0"/>
        <pt x="446" y="91" on="1"/>
        <pt x="479" y="91" on="0"/>
        <pt x="530" y="52" on="0"/>
        <pt x="544" y="34" on="1"/>
        <pt x="505" y="10" on="0"/>
        <pt x="427" y="-14" on="0"/>
      </contour>
    </TTGlyph>
    <TTGlyph name="R" xMin="83" yMin="0" xMax="666" yMax="741">
      <contour>
        <pt x="660" y="518" on="1"/>
        <pt x="652" y="458" on="0"/>
        <pt x="588" y="370" on="0"/>
        <pt x="540" y="343" on="1"/>
        <pt x="510" y="332" on="1"/>
        <pt x="514" y="330" on="0"/>
        <pt x="527" y="324" on="0"/>
        <pt x="531" y="321" on="1"/>
        <pt x="558" y="295" on="0"/>
        <pt x="583" y="224" on="0"/>
        <pt x="597" y="141" on="0"/>
        <pt x="611" y="48" on="0"/>
        <pt x="628" y="0" on="1"/>
        <pt x="481" y="0" on="1"/>
        <pt x="468" y="38" on="0"/>
        <pt x="457" y="125" on="0"/>
        <pt x="443" y="207" on="0"/>
        <pt x="419" y="277" on="0"/>
        <pt x="394" y="299" on="1"/>
        <pt x="373" y="297" on="0"/>
        <pt x="326" y="300" on="0"/>
        <pt x="301" y="308" on="1"/>
        <pt x="308" y="322" on="0"/>
        <pt x="328" y="353" on="0"/>
        <pt x="352" y="380" on="0"/>
        <pt x="382" y="398" on="0"/>
        <pt x="399" y="400" on="1"/>
        <pt x="420" y="402" on="0"/>
        <pt x="458" y="421" on="0"/>
        <pt x="489" y="452" on="0"/>
        <pt x="510" y="494" on="0"/>
        <pt x="513" y="518" on="1"/>
        <pt x="516" y="544" on="0"/>
        <pt x="500" y="588" on="0"/>
        <pt x="467" y="620" on="0"/>
        <pt x="418" y="638" on="0"/>
        <pt x="389" y="638" on="1"/>
        <pt x="375" y="638" on="0"/>
        <pt x="356" y="637" on="0"/>
        <pt x="338" y="636" on="0"/>
        <pt x="318" y="633" on="0"/>
        <pt x="304" y="632" on="1"/>
        <pt x="227" y="0" on="1"/>
        <pt x="83" y="0" on="1"/>
        <pt x="171" y="718" on="1"/>
        <pt x="212" y="725" on="0"/>
        <pt x="274" y="734" on="0"/>
        <pt x="326" y="739" on="0"/>
        <pt x="374" y="741" on="0"/>
        <pt x="401" y="741" on="1"/>
        <pt x="460" y="741" on="0"/>
        <pt x="560" y="711" on="0"/>
        <pt x="631" y="654" on="0"/>
        <pt x="666" y="571" on="0"/>
      </contour>
    </TTGlyph>
    <TTGlyph name="S" xMin="56" yMin="-13" xMax="562" yMax="740">
      <contour>
        <pt x="367" y="640" on="1"/>
        <pt x="322" y="640" on="0"/>
        <pt x="263" y="596" on="0"/>
        <pt x="259" y="562" on="1"/>
        <pt x="255" y="528" on="0"/>
        <pt x="299" y="478" on="0"/>
        <pt x="369" y="434" on="0"/>
        <pt x="452" y="388" on="0"/>
        <pt x="520" y="328" on="0"/>
        <pt x="561" y="246" on="0"/>
        <pt x="554" y="188" on="1"/>
        <pt x="548" y="140" on="0"/>
        <pt x="502" y="65" on="0"/>
        <pt x="428" y="14" on="0"/>
        <pt x="331" y="-13" on="0"/>
        <pt x="274" y="-13" on="1"/>
        <pt x="231" y="-13" on="0"/>
        <pt x="121" y="10" on="0"/>
        <pt x="56" y="42" on="1"/>
        <pt x="105" y="135" on="1"/>
        <pt x="156" y="109" on="0"/>
        <pt x="249" y="90" on="0"/>
        <pt x="287" y="90" on="1"/>
        <pt x="314" y="90" on="0"/>
        <pt x="360" y="105" on="0"/>
        <pt x="396" y="131" on="0"/>
        <pt x="419" y="165" on="0"/>
        <pt x="421" y="185" on="1"/>
        <pt x="425" y="221" on="0"/>
        <pt x="382" y="273" on="0"/>
        <pt x="312" y="318" on="0"/>
        <pt x="229" y="362" on="0"/>
        <pt x="161" y="419" on="0"/>
        <pt x="120" y="496" on="0"/>
        <pt x="127" y="550" on="1"/>
        <pt x="133" y="599" on="0"/>
        <pt x="177" y="671" on="0"/>
        <pt x="243" y="717" on="0"/>
        <pt x="325" y="740" on="0"/>
        <pt x="370" y="740" on="1"/>
        <pt x="393" y="740" on="0"/>
        <pt x="436" y="737" on="0"/>
        <pt x="482" y="730" on="0"/>
        <pt x="532" y="717" on="0"/>
        <pt x="562" y="707" on="1"/>
        <pt x="514" y="616" on="1"/>
        <pt x="471" y="629" on="0"/>
        <pt x="400" y="640" on="0"/>
      </contour>
    </TTGlyph>
    <TTGlyph name="Scaron" xMin="48" yMin="-13" xMax="554" yMax="895">
      <contour>
        <pt x="359" y="640" on="1"/>
        <pt x="314" y="640" on="0"/>
        <pt x="255" y="596" on="0"/>
        <pt x="251" y="562" on="1"/>
        <pt x="247" y="528" on="0"/>
        <pt x="291" y="478" on="0"/>
        <pt x="361" y="434" on="0"/>
        <pt x="444" y="388" on="0"/>
        <pt x="512" y="328" on="0"/>
        <pt x="553" y="246" on="0"/>
        <pt x="546" y="188" on="1"/>
        <pt x="540" y="140" on="0"/>
        <pt x="494" y="65" on="0"/>
        <pt x="420" y="14" on="0"/>
        <pt x="323" y="-13" on="0"/>
        <pt x="266" y="-13" on="1"/>
        <pt x="223" y="-13" on="0"/>
        <pt x="113" y="10" on="0"/>
        <pt x="48" y="42" on="1"/>
        <pt x="97" y="135" on="1"/>
        <pt x="148" y="109" on="0"/>
        <pt x="241" y="90" on="0"/>
        <pt x="279" y="90" on="1"/>
        <pt x="306" y="90" on="0"/>
        <pt x="352" y="105" on="0"/>
        <pt x="388" y="131" on="0"/>
        <pt x="411" y="165" on="0"/>
        <pt x="413" y="185" on="1"/>
        <pt x="417" y="221" on="0"/>
        <pt x="374" y="273" on="0"/>
        <pt x="304" y="318" on="0"/>
        <pt x="221" y="362" on="0"/>
        <pt x="153" y="419" on="0"/>
        <pt x="112" y="496" on="0"/>
        <pt x="119" y="550" on="1"/>
        <pt x="125" y="599" on="0"/>
        <pt x="169" y="671" on="0"/>
        <pt x="235" y="717" on="0"/>
        <pt x="317" y="740" on="0"/>
        <pt x="362" y="740" on="1"/>
        <pt x="385" y="740" on="0"/>
        <pt x="428" y="737" on="0"/>
        <pt x="474" y="730" on="0"/>
        <pt x="524" y="717" on="0"/>
        <pt x="554" y="707" on="1"/>
        <pt x="506" y="616" on="1"/>
        <pt x="463" y="629" on="0"/>
        <pt x="392" y="640" on="0"/>
      </contour>
      <contour>
        <pt x="322" y="761" on="1"/>
        <pt x="231" y="877" on="1"/>
        <pt x="313" y="895" on="1"/>
        <pt x="383" y="839" on="1"/>
        <pt x="467" y="895" on="1"/>
        <pt x="546" y="877" on="1"/>
        <pt x="425" y="761" on="1"/>
      </contour>
    </TTGlyph>
    <TTGlyph name="T" xMin="81" yMin="0" xMax="616" yMax="727">
      <contour>
        <pt x="81" y="624" on="1"/>
        <pt x="94" y="727" on="1"/>
        <pt x="616" y="727" on="1"/>
        <pt x="603" y="624" on="1"/>
        <pt x="413" y="624" on="1"/>
        <pt x="337" y="0" on="1"/>
        <pt x="195" y="0" on="1"/>
        <pt x="271" y="624" on="1"/>
      </contour>
    </TTGlyph>
    <TTGlyph name="Thorn" xMin="71" yMin="0" xMax="628" yMax="727">
      <contour>
        <pt x="621" y="364" on="1"/>
        <pt x="615" y="312" on="0"/>
        <pt x="566" y="231" on="0"/>
        <pt x="494" y="173" on="0"/>
        <pt x="406" y="139" on="0"/>
        <pt x="361" y="135" on="1"/>
        <pt x="338" y="133" on="0"/>
        <pt x="288" y="136" on="0"/>
        <pt x="261" y="144" on="1"/>
        <pt x="268" y="158" on="0"/>
        <pt x="288" y="189" on="0"/>
        <pt x="312" y="215" on="0"/>
        <pt x="341" y="233" on="0"/>
        <pt x="358" y="235" on="1"/>
        <pt x="379" y="237" on="0"/>
        <pt x="418" y="258" on="0"/>
        <pt x="450" y="292" on="0"/>
        <pt x="471" y="338" on="0"/>
        <pt x="474" y="364" on="1"/>
        <pt x="481" y="420" on="0"/>
        <pt x="414" y="494" on="0"/>
        <pt x="351" y="494" on="1"/>
        <pt x="337" y="494" on="0"/>
        <pt x="318" y="493" on="0"/>
        <pt x="300" y="492" on="0"/>
        <pt x="280" y="489" on="0"/>
        <pt x="266" y="488" on="1"/>
        <pt x="207" y="0" on="1"/>
        <pt x="71" y="0" on="1"/>
        <pt x="160" y="727" on="1"/>
        <pt x="296" y="727" on="1"/>
        <pt x="279" y="594" on="1"/>
        <pt x="301" y="596" on="0"/>
        <pt x="341" y="597" on="0"/>
        <pt x="364" y="597" on="1"/>
        <pt x="425" y="597" on="0"/>
        <pt x="525" y="566" on="0"/>
        <pt x="595" y="506" on="0"/>
        <pt x="628" y="419" on="0"/>
      </contour>
    </TTGlyph>
    <TTGlyph name="U" xMin="108" yMin="-14" xMax="753" yMax="727">
      <contour>
        <pt x="372" y="-14" on="1"/>
        <pt x="305" y="-14" on="0"/>
        <pt x="202" y="24" on="0"/>
        <pt x="135" y="98" on="0"/>
        <pt x="108" y="207" on="0"/>
        <pt x="117" y="278" on="1"/>
        <pt x="172" y="727" on="1"/>
        <pt x="313" y="727" on="1"/>
        <pt x="256" y="263" on="1"/>
        <pt x="251" y="222" on="0"/>
        <pt x="265" y="158" on="0"/>
        <pt x="300" y="113" on="0"/>
        <pt x="352" y="89" on="0"/>
        <pt x="384" y="89" on="1"/>
        <pt x="416" y="89" on="0"/>
        <pt x="474" y="113" on="0"/>
        <pt x="520" y="158" on="0"/>
        <pt x="551" y="222" on="0"/>
        <pt x="556" y="263" on="1"/>
        <pt x="613" y="727" on="1"/>
        <pt x="753" y="727" on="1"/>
        <pt x="698" y="278" on="1"/>
        <pt x="690" y="212" on="0"/>
        <pt x="636" y="104" on="0"/>
        <pt x="552" y="27" on="0"/>
        <pt x="439" y="-14" on="0"/>
      </contour>
    </TTGlyph>
    <TTGlyph name="Uacute" xMin="81" yMin="-14" xMax="726" yMax="890">
      <contour>
        <pt x="345" y="-14" on="1"/>
        <pt x="278" y="-14" on="0"/>
        <pt x="175" y="24" on="0"/>
        <pt x="108" y="98" on="0"/>
        <pt x="81" y="207" on="0"/>
        <pt x="90" y="278" on="1"/>
        <pt x="145" y="727" on="1"/>
        <pt x="286" y="727" on="1"/>
        <pt x="229" y="263" on="1"/>
        <pt x="224" y="222" on="0"/>
        <pt x="238" y="158" on="0"/>
        <pt x="273" y="113" on="0"/>
        <pt x="325" y="89" on="0"/>
        <pt x="357" y="89" on="1"/>
        <pt x="389" y="89" on="0"/>
        <pt x="447" y="113" on="0"/>
        <pt x="493" y="158" on="0"/>
        <pt x="524" y="222" on="0"/>
        <pt x="529" y="263" on="1"/>
        <pt x="586" y="727" on="1"/>
        <pt x="726" y="727" on="1"/>
        <pt x="671" y="278" on="1"/>
        <pt x="663" y="212" on="0"/>
        <pt x="609" y="104" on="0"/>
        <pt x="525" y="27" on="0"/>
        <pt x="412" y="-14" on="0"/>
      </contour>
      <contour>
        <pt x="536" y="808" on="1"/>
        <pt x="519" y="791" on="0"/>
        <pt x="476" y="771" on="0"/>
        <pt x="433" y="762" on="0"/>
        <pt x="395" y="762" on="0"/>
        <pt x="383" y="765" on="1"/>
        <pt x="485" y="890" on="1"/>
        <pt x="618" y="890" on="1"/>
      </contour>
    </TTGlyph>
    <TTGlyph name="Ucircumflex" xMin="81" yMin="-14" xMax="726" yMax="890">
      <contour>
        <pt x="345" y="-14" on="1"/>
        <pt x="278" y="-14" on="0"/>
        <pt x="175" y="24" on="0"/>
        <pt x="108" y="98" on="0"/>
        <pt x="81" y="207" on="0"/>
        <pt x="90" y="278" on="1"/>
        <pt x="145" y="727" on="1"/>
        <pt x="286" y="727" on="1"/>
        <pt x="229" y="263" on="1"/>
        <pt x="224" y="222" on="0"/>
        <pt x="238" y="158" on="0"/>
        <pt x="273" y="113" on="0"/>
        <pt x="325" y="89" on="0"/>
        <pt x="357" y="89" on="1"/>
        <pt x="389" y="89" on="0"/>
        <pt x="447" y="113" on="0"/>
        <pt x="493" y="158" on="0"/>
        <pt x="524" y="222" on="0"/>
        <pt x="529" y="263" on="1"/>
        <pt x="586" y="727" on="1"/>
        <pt x="726" y="727" on="1"/>
        <pt x="671" y="278" on="1"/>
        <pt x="663" y="212" on="0"/>
        <pt x="609" y="104" on="0"/>
        <pt x="525" y="27" on="0"/>
        <pt x="412" y="-14" on="0"/>
      </contour>
      <contour>
        <pt x="507" y="890" on="1"/>
        <pt x="600" y="774" on="1"/>
        <pt x="516" y="756" on="1"/>
        <pt x="445" y="812" on="1"/>
        <pt x="362" y="756" on="1"/>
        <pt x="285" y="774" on="1"/>
        <pt x="404" y="890" on="1"/>
      </contour>
    </TTGlyph>
    <TTGlyph name="Udieresis" xMin="80" yMin="-14" xMax="725" yMax="903">
      <contour>
        <pt x="344" y="-14" on="1"/>
        <pt x="277" y="-14" on="0"/>
        <pt x="174" y="24" on="0"/>
        <pt x="107" y="98" on="0"/>
        <pt x="80" y="207" on="0"/>
        <pt x="89" y="278" on="1"/>
        <pt x="144" y="727" on="1"/>
        <pt x="285" y="727" on="1"/>
        <pt x="228" y="263" on="1"/>
        <pt x="223" y="222" on="0"/>
        <pt x="237" y="158" on="0"/>
        <pt x="272" y="113" on="0"/>
        <pt x="324" y="89" on="0"/>
        <pt x="356" y="89" on="1"/>
        <pt x="388" y="89" on="0"/>
        <pt x="446" y="113" on="0"/>
        <pt x="492" y="158" on="0"/>
        <pt x="523" y="222" on="0"/>
        <pt x="528" y="263" on="1"/>
        <pt x="585" y="727" on="1"/>
        <pt x="725" y="727" on="1"/>
        <pt x="670" y="278" on="1"/>
        <pt x="662" y="212" on="0"/>
        <pt x="608" y="104" on="0"/>
        <pt x="524" y="27" on="0"/>
        <pt x="411" y="-14" on="0"/>
      </contour>
      <contour>
        <pt x="290" y="840" on="1"/>
        <pt x="293" y="866" on="0"/>
        <pt x="334" y="903" on="0"/>
        <pt x="360" y="903" on="1"/>
        <pt x="386" y="903" on="0"/>
        <pt x="420" y="866" on="0"/>
        <pt x="417" y="840" on="1"/>
        <pt x="413" y="814" on="0"/>
        <pt x="371" y="777" on="0"/>
        <pt x="345" y="777" on="1"/>
        <pt x="319" y="777" on="0"/>
        <pt x="286" y="814" on="0"/>
      </contour>
      <contour>
        <pt x="485" y="840" on="1"/>
        <pt x="488" y="866" on="0"/>
        <pt x="529" y="903" on="0"/>
        <pt x="555" y="903" on="1"/>
        <pt x="581" y="903" on="0"/>
        <pt x="615" y="866" on="0"/>
        <pt x="612" y="840" on="1"/>
        <pt x="608" y="814" on="0"/>
        <pt x="566" y="777" on="0"/>
        <pt x="540" y="777" on="1"/>
        <pt x="514" y="777" on="0"/>
        <pt x="481" y="814" on="0"/>
      </contour>
    </TTGlyph>
    <TTGlyph name="Ugrave" xMin="82" yMin="-14" xMax="727" yMax="890">
      <contour>
        <pt x="346" y="-14" on="1"/>
        <pt x="279" y="-14" on="0"/>
        <pt x="176" y="24" on="0"/>
        <pt x="109" y="98" on="0"/>
        <pt x="82" y="207" on="0"/>
        <pt x="91" y="278" on="1"/>
        <pt x="146" y="727" on="1"/>
        <pt x="287" y="727" on="1"/>
        <pt x="230" y="263" on="1"/>
        <pt x="225" y="222" on="0"/>
        <pt x="239" y="158" on="0"/>
        <pt x="274" y="113" on="0"/>
        <pt x="326" y="89" on="0"/>
        <pt x="358" y="89" on="1"/>
        <pt x="390" y="89" on="0"/>
        <pt x="448" y="113" on="0"/>
        <pt x="494" y="158" on="0"/>
        <pt x="525" y="222" on="0"/>
        <pt x="530" y="263" on="1"/>
        <pt x="587" y="727" on="1"/>
        <pt x="727" y="727" on="1"/>
        <pt x="672" y="278" on="1"/>
        <pt x="664" y="212" on="0"/>
        <pt x="610" y="104" on="0"/>
        <pt x="526" y="27" on="0"/>
        <pt x="413" y="-14" on="0"/>
      </contour>
      <contour>
        <pt x="309" y="890" on="1"/>
        <pt x="442" y="890" on="1"/>
        <pt x="500" y="765" on="1"/>
        <pt x="487" y="762" on="0"/>
        <pt x="448" y="761" on="0"/>
        <pt x="407" y="770" on="0"/>
        <pt x="370" y="791" on="0"/>
        <pt x="360" y="808" on="1"/>
      </contour>
    </TTGlyph>
    <TTGlyph name="V" xMin="97" yMin="0" xMax="752" yMax="727">
      <contour>
        <pt x="263" y="0" on="1"/>
        <pt x="97" y="727" on="1"/>
        <pt x="249" y="727" on="1"/>
        <pt x="352" y="175" on="1"/>
        <pt x="354" y="137" on="1"/>
        <pt x="366" y="174" on="1"/>
        <pt x="605" y="727" on="1"/>
        <pt x="752" y="727" on="1"/>
        <pt x="410" y="0" on="1"/>
      </contour>
    </TTGlyph>
    <TTGlyph name="W" xMin="120" yMin="0" xMax="1117" yMax="727">
      <contour>
        <pt x="699" y="717" on="1"/>
        <pt x="762" y="194" on="1"/>
        <pt x="765" y="138" on="1"/>
        <pt x="780" y="192" on="1"/>
        <pt x="981" y="727" on="1"/>
        <pt x="1117" y="727" on="1"/>
        <pt x="823" y="0" on="1"/>
        <pt x="682" y="0" on="1"/>
        <pt x="605" y="535" on="1"/>
        <pt x="601" y="576" on="1"/>
        <pt x="588" y="536" on="1"/>
        <pt x="381" y="0" on="1"/>
        <pt x="237" y="0" on="1"/>
        <pt x="120" y="727" on="1"/>
        <pt x="259" y="727" on="1"/>
        <pt x="328" y="193" on="1"/>
        <pt x="329" y="138" on="1"/>
        <pt x="347" y="193" on="1"/>
        <pt x="542" y="717" on="1"/>
      </contour>
    </TTGlyph>
    <TTGlyph name="X" xMin="29" yMin="0" xMax="708" yMax="727">
      <contour>
        <pt x="129" y="727" on="1"/>
        <pt x="287" y="727" on="1"/>
        <pt x="380" y="488" on="1"/>
        <pt x="387" y="457" on="1"/>
        <pt x="398" y="488" on="1"/>
        <pt x="551" y="727" on="1"/>
        <pt x="708" y="727" on="1"/>
        <pt x="447" y="368" on="1"/>
        <pt x="630" y="0" on="1"/>
        <pt x="475" y="0" on="1"/>
      </contour>
      <contour>
        <pt x="182" y="0" on="1"/>
        <pt x="29" y="0" on="1"/>
        <pt x="266" y="325" on="1"/>
        <pt x="274" y="312" on="0"/>
        <pt x="292" y="270" on="0"/>
        <pt x="301" y="221" on="0"/>
        <pt x="296" y="168" on="0"/>
        <pt x="280" y="145" on="1"/>
      </contour>
    </TTGlyph>
    <TTGlyph name="Y" xMin="114" yMin="0" xMax="745" yMax="727">
      <contour>
        <pt x="455" y="339" on="1"/>
        <pt x="414" y="0" on="1"/>
        <pt x="276" y="0" on="1"/>
        <pt x="315" y="322" on="1"/>
        <pt x="114" y="727" on="1"/>
        <pt x="270" y="727" on="1"/>
      </contour>
      <contour>
        <pt x="591" y="727" on="1"/>
        <pt x="745" y="727" on="1"/>
        <pt x="490" y="377" on="1"/>
        <pt x="482" y="390" on="0"/>
        <pt x="463" y="431" on="0"/>
        <pt x="454" y="480" on="0"/>
        <pt x="460" y="533" on="0"/>
        <pt x="476" y="557" on="1"/>
      </contour>
    </TTGlyph>
    <TTGlyph name="Yacute" xMin="94" yMin="0" xMax="725" yMax="890">
      <contour>
        <pt x="435" y="339" on="1"/>
        <pt x="394" y="0" on="1"/>
        <pt x="256" y="0" on="1"/>
        <pt x="295" y="322" on="1"/>
        <pt x="94" y="727" on="1"/>
        <pt x="250" y="727" on="1"/>
      </contour>
      <contour>
        <pt x="571" y="727" on="1"/>
        <pt x="725" y="727" on="1"/>
        <pt x="470" y="377" on="1"/>
        <pt x="462" y="390" on="0"/>
        <pt x="443" y="431" on="0"/>
        <pt x="434" y="480" on="0"/>
        <pt x="440" y="533" on="0"/>
        <pt x="456" y="557" on="1"/>
      </contour>
      <contour>
        <pt x="532" y="808" on="1"/>
        <pt x="515" y="791" on="0"/>
        <pt x="472" y="771" on="0"/>
        <pt x="429" y="762" on="0"/>
        <pt x="391" y="762" on="0"/>
        <pt x="379" y="765" on="1"/>
        <pt x="481" y="890" on="1"/>
        <pt x="614" y="890" on="1"/>
      </contour>
    </TTGlyph>
    <TTGlyph name="Ydieresis" xMin="92" yMin="0" xMax="723" yMax="903">
      <contour>
        <pt x="433" y="339" on="1"/>
        <pt x="392" y="0" on="1"/>
        <pt x="254" y="0" on="1"/>
        <pt x="293" y="322" on="1"/>
        <pt x="92" y="727" on="1"/>
        <pt x="248" y="727" on="1"/>
      </contour>
      <contour>
        <pt x="569" y="727" on="1"/>
        <pt x="723" y="727" on="1"/>
        <pt x="468" y="377" on="1"/>
        <pt x="460" y="390" on="0"/>
        <pt x="441" y="431" on="0"/>
        <pt x="432" y="480" on="0"/>
        <pt x="438" y="533" on="0"/>
        <pt x="454" y="557" on="1"/>
      </contour>
      <contour>
        <pt x="266" y="840" on="1"/>
        <pt x="269" y="866" on="0"/>
        <pt x="310" y="903" on="0"/>
        <pt x="336" y="903" on="1"/>
        <pt x="362" y="903" on="0"/>
        <pt x="396" y="866" on="0"/>
        <pt x="393" y="840" on="1"/>
        <pt x="389" y="814" on="0"/>
        <pt x="347" y="777" on="0"/>
        <pt x="321" y="777" on="1"/>
        <pt x="295" y="777" on="0"/>
        <pt x="262" y="814" on="0"/>
      </contour>
      <contour>
        <pt x="461" y="840" on="1"/>
        <pt x="464" y="866" on="0"/>
        <pt x="505" y="903" on="0"/>
        <pt x="531" y="903" on="1"/>
        <pt x="557" y="903" on="0"/>
        <pt x="591" y="866" on="0"/>
        <pt x="588" y="840" on="1"/>
        <pt x="584" y="814" on="0"/>
        <pt x="542" y="777" on="0"/>
        <pt x="516" y="777" on="1"/>
        <pt x="490" y="777" on="0"/>
        <pt x="457" y="814" on="0"/>
      </contour>
    </TTGlyph>
    <TTGlyph name="Z" xMin="47" yMin="0" xMax="673" yMax="727">
      <contour>
        <pt x="167" y="727" on="1"/>
        <pt x="673" y="727" on="1"/>
        <pt x="666" y="668" on="1"/>
        <pt x="242" y="115" on="1"/>
        <pt x="224" y="100" on="1"/>
        <pt x="247" y="103" on="1"/>
        <pt x="605" y="103" on="1"/>
        <pt x="593" y="0" on="1"/>
        <pt x="47" y="0" on="1"/>
        <pt x="54" y="59" on="1"/>
        <pt x="477" y="612" on="1"/>
        <pt x="495" y="629" on="1"/>
        <pt x="470" y="626" on="1"/>
        <pt x="154" y="626" on="1"/>
      </contour>
    </TTGlyph>
    <TTGlyph name="Zcaron" xMin="73" yMin="0" xMax="699" yMax="895">
      <contour>
        <pt x="193" y="727" on="1"/>
        <pt x="699" y="727" on="1"/>
        <pt x="692" y="668" on="1"/>
        <pt x="268" y="115" on="1"/>
        <pt x="250" y="100" on="1"/>
        <pt x="273" y="103" on="1"/>
        <pt x="631" y="103" on="1"/>
        <pt x="619" y="0" on="1"/>
        <pt x="73" y="0" on="1"/>
        <pt x="80" y="59" on="1"/>
        <pt x="503" y="612" on="1"/>
        <pt x="521" y="629" on="1"/>
        <pt x="496" y="626" on="1"/>
        <pt x="180" y="626" on="1"/>
      </contour>
      <contour>
        <pt x="405" y="761" on="1"/>
        <pt x="314" y="877" on="1"/>
        <pt x="396" y="895" on="1"/>
        <pt x="466" y="839" on="1"/>
        <pt x="550" y="895" on="1"/>
        <pt x="629" y="877" on="1"/>
        <pt x="508" y="761" on="1"/>
      </contour>
    </TTGlyph>
    <TTGlyph name="a" xMin="69" yMin="-12" xMax="596" yMax="529">
      <contour>
        <pt x="550" y="126" on="1"/>
        <pt x="546" y="98" on="0"/>
        <pt x="545" y="35" on="0"/>
        <pt x="550" y="0" on="1"/>
        <pt x="443" y="0" on="1"/>
        <pt x="437" y="3" on="0"/>
        <pt x="424" y="23" on="0"/>
        <pt x="414" y="52" on="0"/>
        <pt x="410" y="87" on="0"/>
        <pt x="412" y="105" on="1"/>
        <pt x="450" y="418" on="1"/>
        <pt x="430" y="423" on="0"/>
        <pt x="397" y="426" on="0"/>
        <pt x="386" y="426" on="1"/>
        <pt x="352" y="426" on="0"/>
        <pt x="296" y="399" on="0"/>
        <pt x="255" y="350" on="0"/>
        <pt x="229" y="281" on="0"/>
        <pt x="224" y="240" on="1"/>
        <pt x="221" y="216" on="0"/>
        <pt x="221" y="164" on="0"/>
        <pt x="235" y="121" on="0"/>
        <pt x="263" y="95" on="0"/>
        <pt x="289" y="97" on="1"/>
        <pt x="318" y="99" on="0"/>
        <pt x="350" y="60" on="0"/>
        <pt x="366" y="32" on="1"/>
        <pt x="336" y="15" on="0"/>
        <pt x="275" y="-7" on="0"/>
        <pt x="249" y="-9" on="1"/>
        <pt x="201" y="-12" on="0"/>
        <pt x="131" y="32" on="0"/>
        <pt x="87" y="104" on="0"/>
        <pt x="69" y="195" on="0"/>
        <pt x="75" y="240" on="1"/>
        <pt x="82" y="300" on="0"/>
        <pt x="133" y="405" on="0"/>
        <pt x="215" y="483" on="0"/>
        <pt x="326" y="529" on="0"/>
        <pt x="393" y="529" on="1"/>
        <pt x="414" y="529" on="0"/>
        <pt x="455" y="527" on="0"/>
        <pt x="503" y="520" on="0"/>
        <pt x="560" y="508" on="0"/>
        <pt x="596" y="499" on="1"/>
      </contour>
    </TTGlyph>
    <TTGlyph name="aacute" xMin="69" yMin="-12" xMax="596" yMax="740">
      <contour>
        <pt x="550" y="126" on="1"/>
        <pt x="546" y="98" on="0"/>
        <pt x="545" y="35" on="0"/>
        <pt x="550" y="0" on="1"/>
        <pt x="443" y="0" on="1"/>
        <pt x="437" y="3" on="0"/>
        <pt x="424" y="23" on="0"/>
        <pt x="414" y="52" on="0"/>
        <pt x="410" y="87" on="0"/>
        <pt x="412" y="105" on="1"/>
        <pt x="450" y="418" on="1"/>
        <pt x="430" y="423" on="0"/>
        <pt x="397" y="426" on="0"/>
        <pt x="386" y="426" on="1"/>
        <pt x="352" y="426" on="0"/>
        <pt x="296" y="399" on="0"/>
        <pt x="255" y="350" on="0"/>
        <pt x="229" y="281" on="0"/>
        <pt x="224" y="240" on="1"/>
        <pt x="221" y="216" on="0"/>
        <pt x="221" y="164" on="0"/>
        <pt x="235" y="121" on="0"/>
        <pt x="263" y="95" on="0"/>
        <pt x="289" y="97" on="1"/>
        <pt x="318" y="99" on="0"/>
        <pt x="350" y="60" on="0"/>
        <pt x="366" y="32" on="1"/>
        <pt x="336" y="15" on="0"/>
        <pt x="275" y="-7" on="0"/>
        <pt x="249" y="-9" on="1"/>
        <pt x="201" y="-12" on="0"/>
        <pt x="131" y="32" on="0"/>
        <pt x="87" y="104" on="0"/>
        <pt x="69" y="195" on="0"/>
        <pt x="75" y="240" on="1"/>
        <pt x="82" y="300" on="0"/>
        <pt x="133" y="405" on="0"/>
        <pt x="215" y="483" on="0"/>
        <pt x="326" y="529" on="0"/>
        <pt x="393" y="529" on="1"/>
        <pt x="414" y="529" on="0"/>
        <pt x="455" y="527" on="0"/>
        <pt x="503" y="520" on="0"/>
        <pt x="560" y="508" on="0"/>
        <pt x="596" y="499" on="1"/>
      </contour>
      <contour>
        <pt x="481" y="645" on="1"/>
        <pt x="464" y="627" on="0"/>
        <pt x="422" y="607" on="0"/>
        <pt x="379" y="598" on="0"/>
        <pt x="341" y="599" on="0"/>
        <pt x="329" y="602" on="1"/>
        <pt x="432" y="740" on="1"/>
        <pt x="571" y="740" on="1"/>
      </contour>
    </TTGlyph>
    <TTGlyph name="aacute.001" xMin="39" yMin="-13" xMax="525" yMax="740">
      <contour>
        <pt x="426" y="645" on="1"/>
        <pt x="409" y="627" on="0"/>
        <pt x="367" y="607" on="0"/>
        <pt x="324" y="598" on="0"/>
        <pt x="286" y="599" on="0"/>
        <pt x="274" y="602" on="1"/>
        <pt x="377" y="740" on="1"/>
        <pt x="516" y="740" on="1"/>
      </contour>
      <contour>
        <pt x="384" y="0" on="1"/>
        <pt x="368" y="9" on="0"/>
        <pt x="353" y="45" on="0"/>
        <pt x="349" y="63" on="1"/>
        <pt x="322" y="39" on="0"/>
        <pt x="277" y="10" on="0"/>
        <pt x="237" y="-7" on="0"/>
        <pt x="199" y="-13" on="0"/>
        <pt x="179" y="-13" on="1"/>
        <pt x="143" y="-13" on="0"/>
        <pt x="89" y="12" on="0"/>
        <pt x="54" y="54" on="0"/>
        <pt x="39" y="108" on="0"/>
        <pt x="42" y="138" on="1"/>
        <pt x="46" y="169" on="0"/>
        <pt x="80" y="227" on="0"/>
        <pt x="149" y="274" on="0"/>
        <pt x="258" y="307" on="0"/>
        <pt x="338" y="313" on="1"/>
        <pt x="328" y="278" on="0"/>
        <pt x="291" y="226" on="0"/>
        <pt x="259" y="220" on="1"/>
        <pt x="221" y="214" on="0"/>
        <pt x="181" y="176" on="0"/>
        <pt x="178" y="151" on="1"/>
        <pt x="175" y="125" on="0"/>
        <pt x="208" y="90" on="0"/>
        <pt x="234" y="90" on="1"/>
        <pt x="263" y="90" on="0"/>
        <pt x="325" y="129" on="0"/>
        <pt x="355" y="160" on="1"/>
        <pt x="374" y="311" on="1"/>
        <pt x="380" y="363" on="0"/>
        <pt x="331" y="425" on="0"/>
        <pt x="278" y="425" on="1"/>
        <pt x="253" y="425" on="0"/>
        <pt x="195" y="415" on="0"/>
        <pt x="158" y="402" on="1"/>
        <pt x="135" y="490" on="1"/>
        <pt x="182" y="510" on="0"/>
        <pt x="263" y="528" on="0"/>
        <pt x="298" y="528" on="1"/>
        <pt x="416" y="528" on="0"/>
        <pt x="525" y="417" on="0"/>
        <pt x="512" y="311" on="1"/>
        <pt x="489" y="126" on="1"/>
        <pt x="485" y="98" on="0"/>
        <pt x="485" y="35" on="0"/>
        <pt x="490" y="0" on="1"/>
      </contour>
    </TTGlyph>
    <TTGlyph name="acircumflex" xMin="69" yMin="-12" xMax="596" yMax="743">
      <contour>
        <pt x="550" y="126" on="1"/>
        <pt x="546" y="98" on="0"/>
        <pt x="545" y="35" on="0"/>
        <pt x="550" y="0" on="1"/>
        <pt x="443" y="0" on="1"/>
        <pt x="437" y="3" on="0"/>
        <pt x="424" y="23" on="0"/>
        <pt x="414" y="52" on="0"/>
        <pt x="410" y="87" on="0"/>
        <pt x="412" y="105" on="1"/>
        <pt x="450" y="418" on="1"/>
        <pt x="430" y="423" on="0"/>
        <pt x="397" y="426" on="0"/>
        <pt x="386" y="426" on="1"/>
        <pt x="352" y="426" on="0"/>
        <pt x="296" y="399" on="0"/>
        <pt x="255" y="350" on="0"/>
        <pt x="229" y="281" on="0"/>
        <pt x="224" y="240" on="1"/>
        <pt x="221" y="216" on="0"/>
        <pt x="221" y="164" on="0"/>
        <pt x="235" y="121" on="0"/>
        <pt x="263" y="95" on="0"/>
        <pt x="289" y="97" on="1"/>
        <pt x="318" y="99" on="0"/>
        <pt x="350" y="60" on="0"/>
        <pt x="366" y="32" on="1"/>
        <pt x="336" y="15" on="0"/>
        <pt x="275" y="-7" on="0"/>
        <pt x="249" y="-9" on="1"/>
        <pt x="201" y="-12" on="0"/>
        <pt x="131" y="32" on="0"/>
        <pt x="87" y="104" on="0"/>
        <pt x="69" y="195" on="0"/>
        <pt x="75" y="240" on="1"/>
        <pt x="82" y="300" on="0"/>
        <pt x="133" y="405" on="0"/>
        <pt x="215" y="483" on="0"/>
        <pt x="326" y="529" on="0"/>
        <pt x="393" y="529" on="1"/>
        <pt x="414" y="529" on="0"/>
        <pt x="455" y="527" on="0"/>
        <pt x="503" y="520" on="0"/>
        <pt x="560" y="508" on="0"/>
        <pt x="596" y="499" on="1"/>
      </contour>
      <contour>
        <pt x="476" y="743" on="1"/>
        <pt x="566" y="603" on="1"/>
        <pt x="482" y="585" on="1"/>
        <pt x="413" y="658" on="1"/>
        <pt x="328" y="585" on="1"/>
        <pt x="251" y="603" on="1"/>
        <pt x="373" y="743" on="1"/>
      </contour>
    </TTGlyph>
    <TTGlyph name="acircumflex.001" xMin="39" yMin="-13" xMax="525" yMax="743">
      <contour>
        <pt x="409" y="743" on="1"/>
        <pt x="499" y="603" on="1"/>
        <pt x="415" y="585" on="1"/>
        <pt x="346" y="658" on="1"/>
        <pt x="261" y="585" on="1"/>
        <pt x="184" y="603" on="1"/>
        <pt x="306" y="743" on="1"/>
      </contour>
      <contour>
        <pt x="384" y="0" on="1"/>
        <pt x="368" y="9" on="0"/>
        <pt x="353" y="45" on="0"/>
        <pt x="349" y="63" on="1"/>
        <pt x="322" y="39" on="0"/>
        <pt x="277" y="10" on="0"/>
        <pt x="237" y="-7" on="0"/>
        <pt x="199" y="-13" on="0"/>
        <pt x="179" y="-13" on="1"/>
        <pt x="143" y="-13" on="0"/>
        <pt x="89" y="12" on="0"/>
        <pt x="54" y="54" on="0"/>
        <pt x="39" y="108" on="0"/>
        <pt x="42" y="138" on="1"/>
        <pt x="46" y="169" on="0"/>
        <pt x="80" y="227" on="0"/>
        <pt x="149" y="274" on="0"/>
        <pt x="258" y="307" on="0"/>
        <pt x="338" y="313" on="1"/>
        <pt x="328" y="278" on="0"/>
        <pt x="291" y="226" on="0"/>
        <pt x="259" y="220" on="1"/>
        <pt x="221" y="214" on="0"/>
        <pt x="181" y="176" on="0"/>
        <pt x="178" y="151" on="1"/>
        <pt x="175" y="125" on="0"/>
        <pt x="208" y="90" on="0"/>
        <pt x="234" y="90" on="1"/>
        <pt x="263" y="90" on="0"/>
        <pt x="325" y="129" on="0"/>
        <pt x="355" y="160" on="1"/>
        <pt x="374" y="311" on="1"/>
        <pt x="380" y="363" on="0"/>
        <pt x="331" y="425" on="0"/>
        <pt x="278" y="425" on="1"/>
        <pt x="253" y="425" on="0"/>
        <pt x="195" y="415" on="0"/>
        <pt x="158" y="402" on="1"/>
        <pt x="135" y="490" on="1"/>
        <pt x="182" y="510" on="0"/>
        <pt x="263" y="528" on="0"/>
        <pt x="298" y="528" on="1"/>
        <pt x="416" y="528" on="0"/>
        <pt x="525" y="417" on="0"/>
        <pt x="512" y="311" on="1"/>
        <pt x="489" y="126" on="1"/>
        <pt x="485" y="98" on="0"/>
        <pt x="485" y="35" on="0"/>
        <pt x="490" y="0" on="1"/>
      </contour>
    </TTGlyph>
    <TTGlyph name="acute" xMin="126" yMin="598" xMax="368" yMax="740">
      <contour>
        <pt x="278" y="645" on="1"/>
        <pt x="261" y="627" on="0"/>
        <pt x="219" y="607" on="0"/>
        <pt x="176" y="598" on="0"/>
        <pt x="138" y="599" on="0"/>
        <pt x="126" y="602" on="1"/>
        <pt x="229" y="740" on="1"/>
        <pt x="368" y="740" on="1"/>
      </contour>
    </TTGlyph>
    <TTGlyph name="adieresis" xMin="69" yMin="-12" xMax="596" yMax="733">
      <contour>
        <pt x="550" y="126" on="1"/>
        <pt x="546" y="98" on="0"/>
        <pt x="545" y="35" on="0"/>
        <pt x="550" y="0" on="1"/>
        <pt x="443" y="0" on="1"/>
        <pt x="437" y="3" on="0"/>
        <pt x="424" y="23" on="0"/>
        <pt x="414" y="52" on="0"/>
        <pt x="410" y="87" on="0"/>
        <pt x="412" y="105" on="1"/>
        <pt x="450" y="418" on="1"/>
        <pt x="430" y="423" on="0"/>
        <pt x="397" y="426" on="0"/>
        <pt x="386" y="426" on="1"/>
        <pt x="352" y="426" on="0"/>
        <pt x="296" y="399" on="0"/>
        <pt x="255" y="350" on="0"/>
        <pt x="229" y="281" on="0"/>
        <pt x="224" y="240" on="1"/>
        <pt x="221" y="216" on="0"/>
        <pt x="221" y="164" on="0"/>
        <pt x="235" y="121" on="0"/>
        <pt x="263" y="95" on="0"/>
        <pt x="289" y="97" on="1"/>
        <pt x="318" y="99" on="0"/>
        <pt x="350" y="60" on="0"/>
        <pt x="366" y="32" on="1"/>
        <pt x="336" y="15" on="0"/>
        <pt x="275" y="-7" on="0"/>
        <pt x="249" y="-9" on="1"/>
        <pt x="201" y="-12" on="0"/>
        <pt x="131" y="32" on="0"/>
        <pt x="87" y="104" on="0"/>
        <pt x="69" y="195" on="0"/>
        <pt x="75" y="240" on="1"/>
        <pt x="82" y="300" on="0"/>
        <pt x="133" y="405" on="0"/>
        <pt x="215" y="483" on="0"/>
        <pt x="326" y="529" on="0"/>
        <pt x="393" y="529" on="1"/>
        <pt x="414" y="529" on="0"/>
        <pt x="455" y="527" on="0"/>
        <pt x="503" y="520" on="0"/>
        <pt x="560" y="508" on="0"/>
        <pt x="596" y="499" on="1"/>
      </contour>
      <contour>
        <pt x="243" y="670" on="1"/>
        <pt x="246" y="696" on="0"/>
        <pt x="288" y="733" on="0"/>
        <pt x="314" y="733" on="1"/>
        <pt x="340" y="733" on="0"/>
        <pt x="373" y="696" on="0"/>
        <pt x="370" y="670" on="1"/>
        <pt x="366" y="644" on="0"/>
        <pt x="324" y="607" on="0"/>
        <pt x="298" y="607" on="1"/>
        <pt x="272" y="607" on="0"/>
        <pt x="239" y="644" on="0"/>
      </contour>
      <contour>
        <pt x="438" y="670" on="1"/>
        <pt x="441" y="696" on="0"/>
        <pt x="483" y="733" on="0"/>
        <pt x="509" y="733" on="1"/>
        <pt x="535" y="733" on="0"/>
        <pt x="568" y="696" on="0"/>
        <pt x="565" y="670" on="1"/>
        <pt x="561" y="644" on="0"/>
        <pt x="519" y="607" on="0"/>
        <pt x="493" y="607" on="1"/>
        <pt x="467" y="607" on="0"/>
        <pt x="434" y="644" on="0"/>
      </contour>
    </TTGlyph>
    <TTGlyph name="adieresis.001" xMin="40" yMin="-13" xMax="526" yMax="733">
      <contour>
        <pt x="189" y="670" on="1"/>
        <pt x="192" y="696" on="0"/>
        <pt x="234" y="733" on="0"/>
        <pt x="260" y="733" on="1"/>
        <pt x="286" y="733" on="0"/>
        <pt x="319" y="696" on="0"/>
        <pt x="316" y="670" on="1"/>
        <pt x="312" y="644" on="0"/>
        <pt x="270" y="607" on="0"/>
        <pt x="244" y="607" on="1"/>
        <pt x="218" y="607" on="0"/>
        <pt x="185" y="644" on="0"/>
      </contour>
      <contour>
        <pt x="385" y="0" on="1"/>
        <pt x="369" y="9" on="0"/>
        <pt x="354" y="45" on="0"/>
        <pt x="350" y="63" on="1"/>
        <pt x="323" y="39" on="0"/>
        <pt x="278" y="10" on="0"/>
        <pt x="238" y="-7" on="0"/>
        <pt x="200" y="-13" on="0"/>
        <pt x="180" y="-13" on="1"/>
        <pt x="144" y="-13" on="0"/>
        <pt x="90" y="12" on="0"/>
        <pt x="55" y="54" on="0"/>
        <pt x="40" y="108" on="0"/>
        <pt x="43" y="138" on="1"/>
        <pt x="47" y="169" on="0"/>
        <pt x="81" y="227" on="0"/>
        <pt x="150" y="274" on="0"/>
        <pt x="259" y="307" on="0"/>
        <pt x="339" y="313" on="1"/>
        <pt x="329" y="278" on="0"/>
        <pt x="292" y="226" on="0"/>
        <pt x="260" y="220" on="1"/>
        <pt x="222" y="214" on="0"/>
        <pt x="182" y="176" on="0"/>
        <pt x="179" y="151" on="1"/>
        <pt x="176" y="125" on="0"/>
        <pt x="209" y="90" on="0"/>
        <pt x="235" y="90" on="1"/>
        <pt x="264" y="90" on="0"/>
        <pt x="326" y="129" on="0"/>
        <pt x="356" y="160" on="1"/>
        <pt x="375" y="311" on="1"/>
        <pt x="381" y="363" on="0"/>
        <pt x="332" y="425" on="0"/>
        <pt x="279" y="425" on="1"/>
        <pt x="254" y="425" on="0"/>
        <pt x="196" y="415" on="0"/>
        <pt x="159" y="402" on="1"/>
        <pt x="136" y="490" on="1"/>
        <pt x="183" y="510" on="0"/>
        <pt x="264" y="528" on="0"/>
        <pt x="299" y="528" on="1"/>
        <pt x="417" y="528" on="0"/>
        <pt x="526" y="417" on="0"/>
        <pt x="513" y="311" on="1"/>
        <pt x="490" y="126" on="1"/>
        <pt x="486" y="98" on="0"/>
        <pt x="486" y="35" on="0"/>
        <pt x="491" y="0" on="1"/>
      </contour>
      <contour>
        <pt x="384" y="670" on="1"/>
        <pt x="387" y="696" on="0"/>
        <pt x="429" y="733" on="0"/>
        <pt x="455" y="733" on="1"/>
        <pt x="481" y="733" on="0"/>
        <pt x="514" y="696" on="0"/>
        <pt x="511" y="670" on="1"/>
        <pt x="507" y="644" on="0"/>
        <pt x="465" y="607" on="0"/>
        <pt x="439" y="607" on="1"/>
        <pt x="413" y="607" on="0"/>
        <pt x="380" y="644" on="0"/>
      </contour>
    </TTGlyph>
    <TTGlyph name="ae" xMin="35" yMin="-13" xMax="851" yMax="530">
      <contour>
        <pt x="718" y="317" on="1"/>
        <pt x="724" y="340" on="0"/>
        <pt x="720" y="382" on="0"/>
        <pt x="701" y="414" on="0"/>
        <pt x="668" y="433" on="0"/>
        <pt x="645" y="433" on="1"/>
        <pt x="624" y="433" on="0"/>
        <pt x="580" y="415" on="0"/>
        <pt x="542" y="376" on="0"/>
        <pt x="513" y="315" on="0"/>
        <pt x="508" y="272" on="1"/>
        <pt x="497" y="185" on="0"/>
        <pt x="564" y="90" on="0"/>
        <pt x="627" y="90" on="1"/>
        <pt x="662" y="90" on="0"/>
        <pt x="731" y="107" on="0"/>
        <pt x="777" y="127" on="1"/>
        <pt x="801" y="34" on="1"/>
        <pt x="744" y="8" on="0"/>
        <pt x="646" y="-13" on="0"/>
        <pt x="599" y="-13" on="1"/>
        <pt x="564" y="-13" on="0"/>
        <pt x="503" y="11" on="0"/>
        <pt x="457" y="49" on="0"/>
        <pt x="426" y="97" on="0"/>
        <pt x="421" y="121" on="1"/>
        <pt x="401" y="85" on="0"/>
        <pt x="347" y="35" on="0"/>
        <pt x="289" y="2" on="0"/>
        <pt x="230" y="-13" on="0"/>
        <pt x="205" y="-13" on="1"/>
        <pt x="124" y="-13" on="0"/>
        <pt x="35" y="67" on="0"/>
        <pt x="43" y="138" on="1"/>
        <pt x="47" y="169" on="0"/>
        <pt x="81" y="227" on="0"/>
        <pt x="150" y="274" on="0"/>
        <pt x="259" y="307" on="0"/>
        <pt x="339" y="313" on="1"/>
        <pt x="329" y="278" on="0"/>
        <pt x="292" y="226" on="0"/>
        <pt x="260" y="220" on="1"/>
        <pt x="222" y="214" on="0"/>
        <pt x="182" y="176" on="0"/>
        <pt x="179" y="151" on="1"/>
        <pt x="176" y="125" on="0"/>
        <pt x="209" y="90" on="0"/>
        <pt x="235" y="90" on="1"/>
        <pt x="261" y="90" on="0"/>
        <pt x="306" y="116" on="0"/>
        <pt x="341" y="162" on="0"/>
        <pt x="364" y="226" on="0"/>
        <pt x="369" y="265" on="1"/>
        <pt x="375" y="311" on="1"/>
        <pt x="381" y="363" on="0"/>
        <pt x="332" y="425" on="0"/>
        <pt x="279" y="425" on="1"/>
        <pt x="254" y="425" on="0"/>
        <pt x="196" y="415" on="0"/>
        <pt x="159" y="402" on="1"/>
        <pt x="136" y="490" on="1"/>
        <pt x="183" y="510" on="0"/>
        <pt x="279" y="528" on="0"/>
        <pt x="314" y="528" on="1"/>
        <pt x="362" y="528" on="0"/>
        <pt x="446" y="474" on="0"/>
        <pt x="468" y="420" on="1"/>
        <pt x="485" y="445" on="0"/>
        <pt x="531" y="486" on="0"/>
        <pt x="583" y="514" on="0"/>
        <pt x="638" y="530" on="0"/>
        <pt x="664" y="530" on="1"/>
        <pt x="719" y="530" on="0"/>
        <pt x="805" y="486" on="0"/>
        <pt x="851" y="408" on="0"/>
        <pt x="851" y="299" on="0"/>
        <pt x="821" y="235" on="1"/>
        <pt x="541" y="235" on="1"/>
        <pt x="556" y="270" on="0"/>
        <pt x="603" y="317" on="0"/>
        <pt x="629" y="317" on="1"/>
      </contour>
    </TTGlyph>
    <TTGlyph name="agrave" xMin="69" yMin="-12" xMax="596" yMax="740">
      <contour>
        <pt x="550" y="126" on="1"/>
        <pt x="546" y="98" on="0"/>
        <pt x="545" y="35" on="0"/>
        <pt x="550" y="0" on="1"/>
        <pt x="443" y="0" on="1"/>
        <pt x="437" y="3" on="0"/>
        <pt x="424" y="23" on="0"/>
        <pt x="414" y="52" on="0"/>
        <pt x="410" y="87" on="0"/>
        <pt x="412" y="105" on="1"/>
        <pt x="450" y="418" on="1"/>
        <pt x="430" y="423" on="0"/>
        <pt x="397" y="426" on="0"/>
        <pt x="386" y="426" on="1"/>
        <pt x="352" y="426" on="0"/>
        <pt x="296" y="399" on="0"/>
        <pt x="255" y="350" on="0"/>
        <pt x="229" y="281" on="0"/>
        <pt x="224" y="240" on="1"/>
        <pt x="221" y="216" on="0"/>
        <pt x="221" y="164" on="0"/>
        <pt x="235" y="121" on="0"/>
        <pt x="263" y="95" on="0"/>
        <pt x="289" y="97" on="1"/>
        <pt x="318" y="99" on="0"/>
        <pt x="350" y="60" on="0"/>
        <pt x="366" y="32" on="1"/>
        <pt x="336" y="15" on="0"/>
        <pt x="275" y="-7" on="0"/>
        <pt x="249" y="-9" on="1"/>
        <pt x="201" y="-12" on="0"/>
        <pt x="131" y="32" on="0"/>
        <pt x="87" y="104" on="0"/>
        <pt x="69" y="195" on="0"/>
        <pt x="75" y="240" on="1"/>
        <pt x="82" y="300" on="0"/>
        <pt x="133" y="405" on="0"/>
        <pt x="215" y="483" on="0"/>
        <pt x="326" y="529" on="0"/>
        <pt x="393" y="529" on="1"/>
        <pt x="414" y="529" on="0"/>
        <pt x="455" y="527" on="0"/>
        <pt x="503" y="520" on="0"/>
        <pt x="560" y="508" on="0"/>
        <pt x="596" y="499" on="1"/>
      </contour>
      <contour>
        <pt x="270" y="740" on="1"/>
        <pt x="404" y="740" on="1"/>
        <pt x="460" y="602" on="1"/>
        <pt x="447" y="599" on="0"/>
        <pt x="410" y="599" on="0"/>
        <pt x="372" y="610" on="0"/>
        <pt x="336" y="631" on="0"/>
        <pt x="323" y="649" on="1"/>
      </contour>
    </TTGlyph>
    <TTGlyph name="agrave.001" xMin="39" yMin="-13" xMax="522" yMax="740">
      <contour>
        <pt x="197" y="740" on="1"/>
        <pt x="331" y="740" on="1"/>
        <pt x="387" y="602" on="1"/>
        <pt x="374" y="599" on="0"/>
        <pt x="337" y="599" on="0"/>
        <pt x="299" y="610" on="0"/>
        <pt x="263" y="631" on="0"/>
        <pt x="250" y="649" on="1"/>
      </contour>
      <contour>
        <pt x="384" y="0" on="1"/>
        <pt x="368" y="9" on="0"/>
        <pt x="353" y="45" on="0"/>
        <pt x="349" y="63" on="1"/>
        <pt x="322" y="39" on="0"/>
        <pt x="277" y="10" on="0"/>
        <pt x="237" y="-7" on="0"/>
        <pt x="199" y="-13" on="0"/>
        <pt x="179" y="-13" on="1"/>
        <pt x="143" y="-13" on="0"/>
        <pt x="89" y="12" on="0"/>
        <pt x="54" y="54" on="0"/>
        <pt x="39" y="108" on="0"/>
        <pt x="42" y="138" on="1"/>
        <pt x="46" y="169" on="0"/>
        <pt x="80" y="227" on="0"/>
        <pt x="149" y="274" on="0"/>
        <pt x="258" y="307" on="0"/>
        <pt x="338" y="313" on="1"/>
        <pt x="328" y="278" on="0"/>
        <pt x="291" y="226" on="0"/>
        <pt x="259" y="220" on="1"/>
        <pt x="221" y="214" on="0"/>
        <pt x="181" y="176" on="0"/>
        <pt x="178" y="151" on="1"/>
        <pt x="175" y="125" on="0"/>
        <pt x="208" y="90" on="0"/>
        <pt x="234" y="90" on="1"/>
        <pt x="263" y="90" on="0"/>
        <pt x="325" y="129" on="0"/>
        <pt x="355" y="160" on="1"/>
        <pt x="374" y="311" on="1"/>
        <pt x="380" y="363" on="0"/>
        <pt x="331" y="425" on="0"/>
        <pt x="278" y="425" on="1"/>
        <pt x="253" y="425" on="0"/>
        <pt x="195" y="415" on="0"/>
        <pt x="158" y="402" on="1"/>
        <pt x="135" y="490" on="1"/>
        <pt x="182" y="510" on="0"/>
        <pt x="263" y="528" on="0"/>
        <pt x="298" y="528" on="1"/>
        <pt x="416" y="528" on="0"/>
        <pt x="522" y="417" on="0"/>
        <pt x="509" y="311" on="1"/>
        <pt x="486" y="126" on="1"/>
        <pt x="482" y="98" on="0"/>
        <pt x="482" y="35" on="0"/>
        <pt x="487" y="0" on="1"/>
      </contour>
    </TTGlyph>
    <TTGlyph name="ampersand" xMin="127" yMin="-11" xMax="737" yMax="737">
      <contour>
        <pt x="336" y="324" on="1"/>
        <pt x="329" y="341" on="1"/>
        <pt x="318" y="323" on="1"/>
        <pt x="299" y="302" on="0"/>
        <pt x="274" y="254" on="0"/>
        <pt x="270" y="222" on="1"/>
        <pt x="263" y="167" on="0"/>
        <pt x="308" y="93" on="0"/>
        <pt x="361" y="93" on="1"/>
        <pt x="372" y="93" on="0"/>
        <pt x="385" y="95" on="0"/>
        <pt x="394" y="96" on="1"/>
        <pt x="413" y="97" on="0"/>
        <pt x="443" y="89" on="0"/>
        <pt x="467" y="72" on="0"/>
        <pt x="486" y="51" on="0"/>
        <pt x="495" y="39" on="1"/>
        <pt x="457" y="13" on="0"/>
        <pt x="378" y="-11" on="0"/>
        <pt x="333" y="-11" on="1"/>
        <pt x="282" y="-11" on="0"/>
        <pt x="203" y="20" on="0"/>
        <pt x="150" y="77" on="0"/>
        <pt x="127" y="159" on="0"/>
        <pt x="133" y="209" on="1"/>
        <pt x="141" y="276" on="0"/>
        <pt x="222" y="378" on="0"/>
        <pt x="275" y="415" on="1"/>
        <pt x="260" y="439" on="0"/>
        <pt x="243" y="477" on="0"/>
        <pt x="236" y="509" on="0"/>
        <pt x="235" y="536" on="0"/>
        <pt x="237" y="550" on="1"/>
        <pt x="243" y="596" on="0"/>
        <pt x="286" y="666" on="0"/>
        <pt x="352" y="713" on="0"/>
        <pt x="438" y="737" on="0"/>
        <pt x="486" y="737" on="1"/>
        <pt x="519" y="737" on="0"/>
        <pt x="601" y="720" on="0"/>
        <pt x="636" y="703" on="1"/>
        <pt x="595" y="611" on="1"/>
        <pt x="563" y="622" on="0"/>
        <pt x="498" y="633" on="0"/>
        <pt x="471" y="633" on="1"/>
        <pt x="428" y="633" on="0"/>
        <pt x="371" y="592" on="0"/>
        <pt x="366" y="559" on="1"/>
        <pt x="364" y="540" on="0"/>
        <pt x="372" y="505" on="0"/>
        <pt x="391" y="469" on="0"/>
        <pt x="419" y="429" on="0"/>
        <pt x="437" y="404" on="1"/>
        <pt x="552" y="246" on="1"/>
        <pt x="559" y="228" on="1"/>
        <pt x="569" y="249" on="1"/>
        <pt x="587" y="281" on="0"/>
        <pt x="612" y="343" on="0"/>
        <pt x="622" y="379" on="1"/>
        <pt x="737" y="379" on="1"/>
        <pt x="715" y="313" on="0"/>
        <pt x="663" y="198" on="0"/>
        <pt x="626" y="147" on="1"/>
        <pt x="735" y="0" on="1"/>
        <pt x="576" y="0" on="1"/>
      </contour>
    </TTGlyph>
    <TTGlyph name="aring" xMin="69" yMin="-12" xMax="596" yMax="751">
      <contour>
        <pt x="550" y="126" on="1"/>
        <pt x="546" y="98" on="0"/>
        <pt x="545" y="35" on="0"/>
        <pt x="550" y="0" on="1"/>
        <pt x="443" y="0" on="1"/>
        <pt x="437" y="3" on="0"/>
        <pt x="424" y="23" on="0"/>
        <pt x="414" y="52" on="0"/>
        <pt x="410" y="87" on="0"/>
        <pt x="412" y="105" on="1"/>
        <pt x="450" y="418" on="1"/>
        <pt x="430" y="423" on="0"/>
        <pt x="397" y="426" on="0"/>
        <pt x="386" y="426" on="1"/>
        <pt x="352" y="426" on="0"/>
        <pt x="296" y="399" on="0"/>
        <pt x="255" y="350" on="0"/>
        <pt x="229" y="281" on="0"/>
        <pt x="224" y="240" on="1"/>
        <pt x="221" y="216" on="0"/>
        <pt x="221" y="164" on="0"/>
        <pt x="235" y="121" on="0"/>
        <pt x="263" y="95" on="0"/>
        <pt x="289" y="97" on="1"/>
        <pt x="318" y="99" on="0"/>
        <pt x="350" y="60" on="0"/>
        <pt x="366" y="32" on="1"/>
        <pt x="336" y="15" on="0"/>
        <pt x="275" y="-7" on="0"/>
        <pt x="249" y="-9" on="1"/>
        <pt x="201" y="-12" on="0"/>
        <pt x="131" y="32" on="0"/>
        <pt x="87" y="104" on="0"/>
        <pt x="69" y="195" on="0"/>
        <pt x="75" y="240" on="1"/>
        <pt x="82" y="300" on="0"/>
        <pt x="133" y="405" on="0"/>
        <pt x="215" y="483" on="0"/>
        <pt x="326" y="529" on="0"/>
        <pt x="393" y="529" on="1"/>
        <pt x="414" y="529" on="0"/>
        <pt x="455" y="527" on="0"/>
        <pt x="503" y="520" on="0"/>
        <pt x="560" y="508" on="0"/>
        <pt x="596" y="499" on="1"/>
      </contour>
      <contour>
        <pt x="404" y="560" on="1"/>
        <pt x="356" y="560" on="0"/>
        <pt x="301" y="613" on="0"/>
        <pt x="306" y="653" on="1"/>
        <pt x="309" y="674" on="0"/>
        <pt x="330" y="710" on="0"/>
        <pt x="363" y="736" on="0"/>
        <pt x="405" y="751" on="0"/>
        <pt x="429" y="751" on="1"/>
        <pt x="477" y="751" on="0"/>
        <pt x="530" y="698" on="0"/>
        <pt x="525" y="654" on="1"/>
        <pt x="522" y="633" on="0"/>
        <pt x="501" y="599" on="0"/>
        <pt x="468" y="574" on="0"/>
        <pt x="426" y="560" on="0"/>
      </contour>
      <contour>
        <pt x="411" y="616" on="1"/>
        <pt x="429" y="616" on="0"/>
        <pt x="451" y="638" on="0"/>
        <pt x="453" y="655" on="1"/>
        <pt x="455" y="672" on="0"/>
        <pt x="439" y="695" on="0"/>
        <pt x="421" y="695" on="1"/>
        <pt x="404" y="695" on="0"/>
        <pt x="383" y="672" on="0"/>
        <pt x="381" y="654" on="1"/>
        <pt x="379" y="640" on="0"/>
        <pt x="394" y="616" on="0"/>
      </contour>
    </TTGlyph>
    <TTGlyph name="aring.001" xMin="40" yMin="-13" xMax="526" yMax="751">
      <contour>
        <pt x="385" y="0" on="1"/>
        <pt x="369" y="9" on="0"/>
        <pt x="354" y="45" on="0"/>
        <pt x="350" y="63" on="1"/>
        <pt x="323" y="39" on="0"/>
        <pt x="278" y="10" on="0"/>
        <pt x="238" y="-7" on="0"/>
        <pt x="200" y="-13" on="0"/>
        <pt x="180" y="-13" on="1"/>
        <pt x="144" y="-13" on="0"/>
        <pt x="90" y="12" on="0"/>
        <pt x="55" y="54" on="0"/>
        <pt x="40" y="108" on="0"/>
        <pt x="43" y="138" on="1"/>
        <pt x="47" y="169" on="0"/>
        <pt x="81" y="227" on="0"/>
        <pt x="150" y="274" on="0"/>
        <pt x="259" y="307" on="0"/>
        <pt x="339" y="313" on="1"/>
        <pt x="329" y="278" on="0"/>
        <pt x="292" y="226" on="0"/>
        <pt x="260" y="220" on="1"/>
        <pt x="222" y="214" on="0"/>
        <pt x="182" y="176" on="0"/>
        <pt x="179" y="151" on="1"/>
        <pt x="176" y="125" on="0"/>
        <pt x="209" y="90" on="0"/>
        <pt x="235" y="90" on="1"/>
        <pt x="264" y="90" on="0"/>
        <pt x="326" y="129" on="0"/>
        <pt x="356" y="160" on="1"/>
        <pt x="375" y="311" on="1"/>
        <pt x="381" y="363" on="0"/>
        <pt x="332" y="425" on="0"/>
        <pt x="279" y="425" on="1"/>
        <pt x="254" y="425" on="0"/>
        <pt x="196" y="415" on="0"/>
        <pt x="159" y="402" on="1"/>
        <pt x="136" y="490" on="1"/>
        <pt x="183" y="510" on="0"/>
        <pt x="279" y="528" on="0"/>
        <pt x="314" y="528" on="1"/>
        <pt x="421" y="528" on="0"/>
        <pt x="526" y="417" on="0"/>
        <pt x="513" y="311" on="1"/>
        <pt x="490" y="126" on="1"/>
        <pt x="486" y="98" on="0"/>
        <pt x="486" y="35" on="0"/>
        <pt x="491" y="0" on="1"/>
      </contour>
      <contour>
        <pt x="335" y="560" on="1"/>
        <pt x="287" y="560" on="0"/>
        <pt x="232" y="613" on="0"/>
        <pt x="237" y="653" on="1"/>
        <pt x="240" y="674" on="0"/>
        <pt x="261" y="710" on="0"/>
        <pt x="294" y="736" on="0"/>
        <pt x="336" y="751" on="0"/>
        <pt x="360" y="751" on="1"/>
        <pt x="408" y="751" on="0"/>
        <pt x="461" y="698" on="0"/>
        <pt x="456" y="654" on="1"/>
        <pt x="453" y="633" on="0"/>
        <pt x="432" y="599" on="0"/>
        <pt x="399" y="574" on="0"/>
        <pt x="357" y="560" on="0"/>
      </contour>
      <contour>
        <pt x="342" y="616" on="1"/>
        <pt x="360" y="616" on="0"/>
        <pt x="382" y="638" on="0"/>
        <pt x="384" y="655" on="1"/>
        <pt x="386" y="672" on="0"/>
        <pt x="370" y="695" on="0"/>
        <pt x="352" y="695" on="1"/>
        <pt x="335" y="695" on="0"/>
        <pt x="314" y="672" on="0"/>
        <pt x="312" y="654" on="1"/>
        <pt x="310" y="640" on="0"/>
        <pt x="325" y="616" on="0"/>
      </contour>
    </TTGlyph>
    <TTGlyph name="asciicircum" xMin="79" yMin="210" xMax="602" yMax="727">
      <contour>
        <pt x="208" y="210" on="1"/>
        <pt x="79" y="210" on="1"/>
        <pt x="354" y="727" on="1"/>
        <pt x="455" y="727" on="1"/>
        <pt x="602" y="210" on="1"/>
        <pt x="475" y="210" on="1"/>
        <pt x="389" y="543" on="1"/>
        <pt x="386" y="574" on="1"/>
        <pt x="375" y="543" on="1"/>
      </contour>
    </TTGlyph>
    <TTGlyph name="asciitilde" xMin="91" yMin="217" xMax="615" yMax="396">
      <contour>
        <pt x="91" y="236" on="1"/>
        <pt x="97" y="274" on="0"/>
        <pt x="132" y="334" on="0"/>
        <pt x="181" y="374" on="0"/>
        <pt x="238" y="396" on="0"/>
        <pt x="267" y="396" on="1"/>
        <pt x="302" y="396" on="0"/>
        <pt x="353" y="373" on="0"/>
        <pt x="393" y="346" on="0"/>
        <pt x="426" y="324" on="0"/>
        <pt x="444" y="324" on="1"/>
        <pt x="464" y="324" on="0"/>
        <pt x="493" y="358" on="0"/>
        <pt x="501" y="385" on="1"/>
        <pt x="615" y="377" on="1"/>
        <pt x="607" y="334" on="0"/>
        <pt x="570" y="274" on="0"/>
        <pt x="522" y="235" on="0"/>
        <pt x="469" y="217" on="0"/>
        <pt x="447" y="217" on="1"/>
        <pt x="407" y="217" on="0"/>
        <pt x="357" y="239" on="0"/>
        <pt x="321" y="266" on="0"/>
        <pt x="290" y="289" on="0"/>
        <pt x="271" y="289" on="1"/>
        <pt x="254" y="289" on="0"/>
        <pt x="216" y="262" on="0"/>
        <pt x="208" y="228" on="1"/>
      </contour>
    </TTGlyph>
    <TTGlyph name="asterisk" xMin="111" yMin="346" xMax="523" yMax="746">
      <contour>
        <pt x="321" y="590" on="1"/>
        <pt x="394" y="746" on="1"/>
        <pt x="481" y="691" on="1"/>
        <pt x="358" y="568" on="1"/>
        <pt x="523" y="599" on="1"/>
        <pt x="510" y="491" on="1"/>
        <pt x="351" y="523" on="1"/>
        <pt x="445" y="400" on="1"/>
        <pt x="344" y="346" on="1"/>
        <pt x="311" y="502" on="1"/>
        <pt x="239" y="346" on="1"/>
        <pt x="152" y="400" on="1"/>
        <pt x="276" y="524" on="1"/>
        <pt x="111" y="492" on="1"/>
        <pt x="124" y="600" on="1"/>
        <pt x="279" y="569" on="1"/>
        <pt x="186" y="691" on="1"/>
        <pt x="287" y="746" on="1"/>
      </contour>
    </TTGlyph>
    <TTGlyph name="at" xMin="94" yMin="-132" xMax="876" yMax="648">
      <contour>
        <pt x="649" y="170" on="1"/>
        <pt x="645" y="149" on="1"/>
        <pt x="660" y="161" on="1"/>
        <pt x="685" y="176" on="0"/>
        <pt x="723" y="217" on="0"/>
        <pt x="750" y="262" on="0"/>
        <pt x="765" y="307" on="0"/>
        <pt x="768" y="328" on="1"/>
        <pt x="774" y="382" on="0"/>
        <pt x="746" y="469" on="0"/>
        <pt x="683" y="531" on="0"/>
        <pt x="589" y="564" on="0"/>
        <pt x="530" y="564" on="1"/>
        <pt x="466" y="564" on="0"/>
        <pt x="355" y="522" on="0"/>
        <pt x="269" y="442" on="0"/>
        <pt x="213" y="329" on="0"/>
        <pt x="204" y="257" on="1"/>
        <pt x="195" y="186" on="0"/>
        <pt x="223" y="73" on="0"/>
        <pt x="287" y="-6" on="0"/>
        <pt x="382" y="-48" on="0"/>
        <pt x="441" y="-48" on="1"/>
        <pt x="463" y="-48" on="0"/>
        <pt x="502" y="-46" on="0"/>
        <pt x="545" y="-40" on="0"/>
        <pt x="595" y="-28" on="0"/>
        <pt x="627" y="-19" on="1"/>
        <pt x="647" y="-96" on="1"/>
        <pt x="610" y="-108" on="0"/>
        <pt x="551" y="-122" on="0"/>
        <pt x="501" y="-130" on="0"/>
        <pt x="455" y="-132" on="0"/>
        <pt x="430" y="-132" on="1"/>
        <pt x="353" y="-132" on="0"/>
        <pt x="224" y="-86" on="0"/>
        <pt x="134" y="10" on="0"/>
        <pt x="94" y="156" on="0"/>
        <pt x="106" y="257" on="1"/>
        <pt x="118" y="350" on="0"/>
        <pt x="200" y="496" on="0"/>
        <pt x="319" y="596" on="0"/>
        <pt x="465" y="648" on="0"/>
        <pt x="541" y="648" on="1"/>
        <pt x="613" y="648" on="0"/>
        <pt x="739" y="606" on="0"/>
        <pt x="831" y="525" on="0"/>
        <pt x="876" y="405" on="0"/>
        <pt x="867" y="328" on="1"/>
        <pt x="861" y="278" on="0"/>
        <pt x="810" y="188" on="0"/>
        <pt x="731" y="115" on="0"/>
        <pt x="630" y="65" on="0"/>
        <pt x="574" y="55" on="1"/>
        <pt x="563" y="61" on="0"/>
        <pt x="555" y="83" on="0"/>
        <pt x="552" y="96" on="1"/>
        <pt x="553" y="115" on="1"/>
        <pt x="540" y="95" on="1"/>
        <pt x="507" y="66" on="0"/>
        <pt x="450" y="47" on="0"/>
        <pt x="423" y="47" on="1"/>
        <pt x="362" y="47" on="0"/>
        <pt x="297" y="107" on="0"/>
        <pt x="303" y="158" on="1"/>
        <pt x="307" y="188" on="0"/>
        <pt x="335" y="234" on="0"/>
        <pt x="391" y="267" on="0"/>
        <pt x="476" y="289" on="0"/>
        <pt x="536" y="295" on="1"/>
        <pt x="534" y="288" on="0"/>
        <pt x="525" y="264" on="0"/>
        <pt x="509" y="240" on="0"/>
        <pt x="485" y="221" on="0"/>
        <pt x="470" y="219" on="1"/>
        <pt x="428" y="213" on="0"/>
        <pt x="400" y="181" on="0"/>
        <pt x="398" y="162" on="1"/>
        <pt x="396" y="142" on="0"/>
        <pt x="424" y="118" on="0"/>
        <pt x="452" y="118" on="1"/>
        <pt x="478" y="118" on="0"/>
        <pt x="530" y="144" on="0"/>
        <pt x="557" y="175" on="1"/>
        <pt x="573" y="304" on="1"/>
        <pt x="578" y="350" on="0"/>
        <pt x="535" y="389" on="0"/>
        <pt x="491" y="389" on="1"/>
        <pt x="470" y="389" on="0"/>
        <pt x="429" y="383" on="0"/>
        <pt x="394" y="372" on="1"/>
        <pt x="376" y="439" on="1"/>
        <pt x="419" y="455" on="0"/>
        <pt x="483" y="466" on="0"/>
        <pt x="515" y="466" on="1"/>
        <pt x="597" y="466" on="0"/>
        <pt x="676" y="383" on="0"/>
        <pt x="665" y="299" on="1"/>
      </contour>
    </TTGlyph>
    <TTGlyph name="atilde" xMin="69" yMin="-12" xMax="596" yMax="742">
      <contour>
        <pt x="550" y="126" on="1"/>
        <pt x="546" y="98" on="0"/>
        <pt x="545" y="35" on="0"/>
        <pt x="550" y="0" on="1"/>
        <pt x="443" y="0" on="1"/>
        <pt x="437" y="3" on="0"/>
        <pt x="424" y="23" on="0"/>
        <pt x="414" y="52" on="0"/>
        <pt x="410" y="87" on="0"/>
        <pt x="412" y="105" on="1"/>
        <pt x="450" y="418" on="1"/>
        <pt x="430" y="423" on="0"/>
        <pt x="397" y="426" on="0"/>
        <pt x="386" y="426" on="1"/>
        <pt x="352" y="426" on="0"/>
        <pt x="296" y="399" on="0"/>
        <pt x="255" y="350" on="0"/>
        <pt x="229" y="281" on="0"/>
        <pt x="224" y="240" on="1"/>
        <pt x="221" y="216" on="0"/>
        <pt x="221" y="164" on="0"/>
        <pt x="235" y="121" on="0"/>
        <pt x="263" y="95" on="0"/>
        <pt x="289" y="97" on="1"/>
        <pt x="318" y="99" on="0"/>
        <pt x="350" y="60" on="0"/>
        <pt x="366" y="32" on="1"/>
        <pt x="336" y="15" on="0"/>
        <pt x="275" y="-7" on="0"/>
        <pt x="249" y="-9" on="1"/>
        <pt x="201" y="-12" on="0"/>
        <pt x="131" y="32" on="0"/>
        <pt x="87" y="104" on="0"/>
        <pt x="69" y="195" on="0"/>
        <pt x="75" y="240" on="1"/>
        <pt x="82" y="300" on="0"/>
        <pt x="133" y="405" on="0"/>
        <pt x="215" y="483" on="0"/>
        <pt x="326" y="529" on="0"/>
        <pt x="393" y="529" on="1"/>
        <pt x="414" y="529" on="0"/>
        <pt x="455" y="527" on="0"/>
        <pt x="503" y="520" on="0"/>
        <pt x="560" y="508" on="0"/>
        <pt x="596" y="499" on="1"/>
      </contour>
      <contour>
        <pt x="234" y="624" on="1"/>
        <pt x="238" y="652" on="0"/>
        <pt x="261" y="696" on="0"/>
        <pt x="292" y="726" on="0"/>
        <pt x="330" y="742" on="0"/>
        <pt x="348" y="742" on="1"/>
        <pt x="370" y="742" on="0"/>
        <pt x="402" y="725" on="0"/>
        <pt x="427" y="706" on="0"/>
        <pt x="448" y="689" on="0"/>
        <pt x="459" y="689" on="1"/>
        <pt x="472" y="689" on="0"/>
        <pt x="491" y="714" on="0"/>
        <pt x="496" y="734" on="1"/>
        <pt x="568" y="728" on="1"/>
        <pt x="563" y="696" on="0"/>
        <pt x="538" y="652" on="0"/>
        <pt x="507" y="623" on="0"/>
        <pt x="473" y="610" on="0"/>
        <pt x="459" y="610" on="1"/>
        <pt x="434" y="610" on="0"/>
        <pt x="402" y="627" on="0"/>
        <pt x="380" y="646" on="0"/>
        <pt x="361" y="663" on="0"/>
        <pt x="349" y="663" on="1"/>
        <pt x="338" y="663" on="0"/>
        <pt x="314" y="644" on="0"/>
        <pt x="308" y="618" on="1"/>
      </contour>
    </TTGlyph>
    <TTGlyph name="atilde.001" xMin="40" yMin="-13" xMax="526" yMax="742">
      <contour>
        <pt x="181" y="624" on="1"/>
        <pt x="185" y="652" on="0"/>
        <pt x="208" y="696" on="0"/>
        <pt x="239" y="726" on="0"/>
        <pt x="277" y="742" on="0"/>
        <pt x="295" y="742" on="1"/>
        <pt x="317" y="742" on="0"/>
        <pt x="349" y="725" on="0"/>
        <pt x="374" y="706" on="0"/>
        <pt x="395" y="689" on="0"/>
        <pt x="406" y="689" on="1"/>
        <pt x="419" y="689" on="0"/>
        <pt x="438" y="714" on="0"/>
        <pt x="443" y="734" on="1"/>
        <pt x="515" y="728" on="1"/>
        <pt x="510" y="696" on="0"/>
        <pt x="485" y="652" on="0"/>
        <pt x="454" y="623" on="0"/>
        <pt x="420" y="610" on="0"/>
        <pt x="406" y="610" on="1"/>
        <pt x="381" y="610" on="0"/>
        <pt x="349" y="627" on="0"/>
        <pt x="327" y="646" on="0"/>
        <pt x="308" y="663" on="0"/>
        <pt x="296" y="663" on="1"/>
        <pt x="285" y="663" on="0"/>
        <pt x="261" y="644" on="0"/>
        <pt x="255" y="618" on="1"/>
      </contour>
      <contour>
        <pt x="385" y="0" on="1"/>
        <pt x="369" y="9" on="0"/>
        <pt x="354" y="45" on="0"/>
        <pt x="350" y="63" on="1"/>
        <pt x="323" y="39" on="0"/>
        <pt x="278" y="10" on="0"/>
        <pt x="238" y="-7" on="0"/>
        <pt x="200" y="-13" on="0"/>
        <pt x="180" y="-13" on="1"/>
        <pt x="144" y="-13" on="0"/>
        <pt x="90" y="12" on="0"/>
        <pt x="55" y="54" on="0"/>
        <pt x="40" y="108" on="0"/>
        <pt x="43" y="138" on="1"/>
        <pt x="47" y="169" on="0"/>
        <pt x="81" y="227" on="0"/>
        <pt x="150" y="274" on="0"/>
        <pt x="259" y="307" on="0"/>
        <pt x="339" y="313" on="1"/>
        <pt x="329" y="278" on="0"/>
        <pt x="292" y="226" on="0"/>
        <pt x="260" y="220" on="1"/>
        <pt x="222" y="214" on="0"/>
        <pt x="182" y="176" on="0"/>
        <pt x="179" y="151" on="1"/>
        <pt x="176" y="125" on="0"/>
        <pt x="209" y="90" on="0"/>
        <pt x="235" y="90" on="1"/>
        <pt x="264" y="90" on="0"/>
        <pt x="326" y="129" on="0"/>
        <pt x="356" y="160" on="1"/>
        <pt x="375" y="311" on="1"/>
        <pt x="381" y="363" on="0"/>
        <pt x="332" y="425" on="0"/>
        <pt x="279" y="425" on="1"/>
        <pt x="254" y="425" on="0"/>
        <pt x="196" y="415" on="0"/>
        <pt x="159" y="402" on="1"/>
        <pt x="136" y="490" on="1"/>
        <pt x="183" y="510" on="0"/>
        <pt x="264" y="528" on="0"/>
        <pt x="299" y="528" on="1"/>
        <pt x="417" y="528" on="0"/>
        <pt x="526" y="417" on="0"/>
        <pt x="513" y="311" on="1"/>
        <pt x="490" y="126" on="1"/>
        <pt x="486" y="98" on="0"/>
        <pt x="486" y="35" on="0"/>
        <pt x="491" y="0" on="1"/>
      </contour>
    </TTGlyph>
    <TTGlyph name="b" xMin="78" yMin="-15" xMax="607" yMax="758">
      <contour>
        <pt x="387" y="423" on="1"/>
        <pt x="370" y="421" on="0"/>
        <pt x="347" y="432" on="0"/>
        <pt x="329" y="453" on="0"/>
        <pt x="316" y="481" on="0"/>
        <pt x="309" y="496" on="1"/>
        <pt x="339" y="510" on="0"/>
        <pt x="399" y="524" on="0"/>
        <pt x="425" y="526" on="1"/>
        <pt x="473" y="529" on="0"/>
        <pt x="544" y="485" on="0"/>
        <pt x="589" y="413" on="0"/>
        <pt x="607" y="322" on="0"/>
        <pt x="602" y="277" on="1"/>
        <pt x="594" y="216" on="0"/>
        <pt x="542" y="109" on="0"/>
        <pt x="461" y="30" on="0"/>
        <pt x="354" y="-15" on="0"/>
        <pt x="291" y="-15" on="1"/>
        <pt x="236" y="-15" on="0"/>
        <pt x="135" y="10" on="0"/>
        <pt x="78" y="42" on="1"/>
        <pt x="166" y="758" on="1"/>
        <pt x="304" y="751" on="1"/>
        <pt x="224" y="98" on="1"/>
        <pt x="247" y="92" on="0"/>
        <pt x="283" y="88" on="0"/>
        <pt x="303" y="88" on="1"/>
        <pt x="332" y="88" on="0"/>
        <pt x="382" y="116" on="0"/>
        <pt x="421" y="166" on="0"/>
        <pt x="448" y="236" on="0"/>
        <pt x="453" y="277" on="1"/>
        <pt x="456" y="301" on="0"/>
        <pt x="454" y="354" on="0"/>
        <pt x="441" y="398" on="0"/>
        <pt x="412" y="425" on="0"/>
      </contour>
    </TTGlyph>
    <TTGlyph name="backslash" xMin="76" yMin="-62" xMax="343" yMax="727">
      <contour>
        <pt x="222" y="-62" on="1"/>
        <pt x="76" y="727" on="1"/>
        <pt x="197" y="727" on="1"/>
        <pt x="343" y="-62" on="1"/>
      </contour>
    </TTGlyph>
    <TTGlyph name="bar" xMin="79" yMin="-293" xMax="340" yMax="811">
      <contour>
        <pt x="79" y="-293" on="1"/>
        <pt x="214" y="811" on="1"/>
        <pt x="340" y="811" on="1"/>
        <pt x="205" y="-293" on="1"/>
      </contour>
    </TTGlyph>
    <TTGlyph name="braceleft" xMin="96" yMin="-176" xMax="491" yMax="767">
      <contour>
        <pt x="214" y="425" on="1"/>
        <pt x="226" y="488" on="0"/>
        <pt x="260" y="588" on="0"/>
        <pt x="312" y="669" on="0"/>
        <pt x="383" y="736" on="0"/>
        <pt x="433" y="767" on="1"/>
        <pt x="491" y="702" on="1"/>
        <pt x="456" y="674" on="0"/>
        <pt x="406" y="620" on="0"/>
        <pt x="370" y="558" on="0"/>
        <pt x="346" y="485" on="0"/>
        <pt x="337" y="439" on="1"/>
        <pt x="329" y="397" on="0"/>
        <pt x="281" y="335" on="0"/>
        <pt x="247" y="314" on="1"/>
        <pt x="222" y="303" on="1"/>
        <pt x="243" y="293" on="1"/>
        <pt x="273" y="272" on="0"/>
        <pt x="306" y="210" on="0"/>
        <pt x="304" y="168" on="1"/>
        <pt x="301" y="118" on="0"/>
        <pt x="306" y="40" on="0"/>
        <pt x="326" y="-25" on="0"/>
        <pt x="362" y="-82" on="0"/>
        <pt x="391" y="-110" on="1"/>
        <pt x="317" y="-176" on="1"/>
        <pt x="273" y="-144" on="0"/>
        <pt x="217" y="-73" on="0"/>
        <pt x="186" y="13" on="0"/>
        <pt x="178" y="119" on="0"/>
        <pt x="182" y="187" on="1"/>
        <pt x="184" y="222" on="0"/>
        <pt x="134" y="263" on="0"/>
        <pt x="96" y="270" on="1"/>
        <pt x="104" y="342" on="1"/>
        <pt x="144" y="349" on="0"/>
        <pt x="206" y="390" on="0"/>
      </contour>
    </TTGlyph>
    <TTGlyph name="braceright" xMin="62" yMin="-176" xMax="459" yMax="767">
      <contour>
        <pt x="371" y="425" on="1"/>
        <pt x="370" y="407" on="0"/>
        <pt x="384" y="380" on="0"/>
        <pt x="408" y="359" on="0"/>
        <pt x="441" y="345" on="0"/>
        <pt x="459" y="342" on="1"/>
        <pt x="451" y="270" on="1"/>
        <pt x="412" y="263" on="0"/>
        <pt x="351" y="222" on="0"/>
        <pt x="343" y="187" on="1"/>
        <pt x="331" y="119" on="0"/>
        <pt x="296" y="13" on="0"/>
        <pt x="244" y="-73" on="0"/>
        <pt x="171" y="-144" on="0"/>
        <pt x="120" y="-176" on="1"/>
        <pt x="62" y="-110" on="1"/>
        <pt x="97" y="-82" on="0"/>
        <pt x="148" y="-25" on="0"/>
        <pt x="184" y="40" on="0"/>
        <pt x="208" y="118" on="0"/>
        <pt x="217" y="168" on="1"/>
        <pt x="225" y="210" on="0"/>
        <pt x="273" y="271" on="0"/>
        <pt x="307" y="292" on="1"/>
        <pt x="334" y="303" on="1"/>
        <pt x="309" y="314" on="1"/>
        <pt x="280" y="335" on="0"/>
        <pt x="248" y="397" on="0"/>
        <pt x="250" y="439" on="1"/>
        <pt x="253" y="485" on="0"/>
        <pt x="247" y="558" on="0"/>
        <pt x="226" y="620" on="0"/>
        <pt x="190" y="674" on="0"/>
        <pt x="162" y="702" on="1"/>
        <pt x="236" y="767" on="1"/>
        <pt x="278" y="736" on="0"/>
        <pt x="333" y="669" on="0"/>
        <pt x="364" y="588" on="0"/>
        <pt x="374" y="488" on="0"/>
      </contour>
    </TTGlyph>
    <TTGlyph name="bracketleft" xMin="97" yMin="-199" xMax="519" yMax="771">
      <contour>
        <pt x="216" y="771" on="1"/>
        <pt x="519" y="771" on="1"/>
        <pt x="506" y="667" on="1"/>
        <pt x="335" y="667" on="1"/>
        <pt x="242" y="-95" on="1"/>
        <pt x="413" y="-95" on="1"/>
        <pt x="400" y="-199" on="1"/>
        <pt x="97" y="-199" on="1"/>
      </contour>
    </TTGlyph>
    <TTGlyph name="bracketright" xMin="15" yMin="-199" xMax="437" yMax="771">
      <contour>
        <pt x="318" y="-199" on="1"/>
        <pt x="15" y="-199" on="1"/>
        <pt x="28" y="-95" on="1"/>
        <pt x="199" y="-95" on="1"/>
        <pt x="292" y="667" on="1"/>
        <pt x="121" y="667" on="1"/>
        <pt x="134" y="771" on="1"/>
        <pt x="437" y="771" on="1"/>
      </contour>
    </TTGlyph>
    <TTGlyph name="brokenbar" xMin="32" yMin="-293" xMax="293" yMax="811">
      <contour>
        <pt x="115" y="387" on="1"/>
        <pt x="167" y="811" on="1"/>
        <pt x="293" y="811" on="1"/>
        <pt x="241" y="387" on="1"/>
      </contour>
      <contour>
        <pt x="32" y="-293" on="1"/>
        <pt x="85" y="141" on="1"/>
        <pt x="211" y="141" on="1"/>
        <pt x="158" y="-293" on="1"/>
      </contour>
    </TTGlyph>
    <TTGlyph name="bullet" xMin="197" yMin="222" xMax="395" yMax="410">
      <contour>
        <pt x="202" y="315" on="1"/>
        <pt x="207" y="356" on="0"/>
        <pt x="266" y="410" on="0"/>
        <pt x="307" y="410" on="1"/>
        <pt x="348" y="410" on="0"/>
        <pt x="395" y="356" on="0"/>
        <pt x="390" y="315" on="1"/>
        <pt x="385" y="274" on="0"/>
        <pt x="325" y="222" on="0"/>
        <pt x="284" y="222" on="1"/>
        <pt x="243" y="222" on="0"/>
        <pt x="197" y="274" on="0"/>
      </contour>
    </TTGlyph>
    <TTGlyph name="c" xMin="50" yMin="-13" xMax="479" yMax="530">
      <contour>
        <pt x="361" y="530" on="1"/>
        <pt x="388" y="530" on="0"/>
        <pt x="450" y="519" on="0"/>
        <pt x="479" y="508" on="1"/>
        <pt x="433" y="415" on="1"/>
        <pt x="410" y="421" on="0"/>
        <pt x="365" y="427" on="0"/>
        <pt x="348" y="427" on="1"/>
        <pt x="294" y="427" on="0"/>
        <pt x="217" y="337" on="0"/>
        <pt x="207" y="259" on="1"/>
        <pt x="197" y="180" on="0"/>
        <pt x="253" y="90" on="0"/>
        <pt x="307" y="90" on="1"/>
        <pt x="328" y="90" on="0"/>
        <pt x="376" y="101" on="0"/>
        <pt x="410" y="114" on="1"/>
        <pt x="433" y="22" on="1"/>
        <pt x="391" y="4" on="0"/>
        <pt x="321" y="-13" on="0"/>
        <pt x="294" y="-13" on="1"/>
        <pt x="242" y="-13" on="0"/>
        <pt x="149" y="18" on="0"/>
        <pt x="83" y="84" on="0"/>
        <pt x="50" y="187" on="0"/>
        <pt x="59" y="259" on="1"/>
        <pt x="68" y="327" on="0"/>
        <pt x="125" y="429" on="0"/>
        <pt x="208" y="496" on="0"/>
        <pt x="309" y="530" on="0"/>
      </contour>
    </TTGlyph>
    <TTGlyph name="ccedilla" xMin="40" yMin="-213" xMax="468" yMax="530">
      <contour>
        <pt x="350" y="530" on="1"/>
        <pt x="377" y="530" on="0"/>
        <pt x="439" y="519" on="0"/>
        <pt x="468" y="508" on="1"/>
        <pt x="422" y="415" on="1"/>
        <pt x="399" y="421" on="0"/>
        <pt x="354" y="427" on="0"/>
        <pt x="337" y="427" on="1"/>
        <pt x="283" y="427" on="0"/>
        <pt x="206" y="337" on="0"/>
        <pt x="196" y="259" on="1"/>
        <pt x="186" y="180" on="0"/>
        <pt x="242" y="90" on="0"/>
        <pt x="296" y="90" on="1"/>
        <pt x="317" y="90" on="0"/>
        <pt x="365" y="101" on="0"/>
        <pt x="399" y="114" on="1"/>
        <pt x="422" y="22" on="1"/>
        <pt x="381" y="5" on="0"/>
        <pt x="312" y="-12" on="0"/>
        <pt x="285" y="-13" on="1"/>
        <pt x="274" y="-43" on="1"/>
        <pt x="289" y="-46" on="0"/>
        <pt x="316" y="-60" on="0"/>
        <pt x="337" y="-80" on="0"/>
        <pt x="347" y="-107" on="0"/>
        <pt x="345" y="-123" on="1"/>
        <pt x="342" y="-146" on="0"/>
        <pt x="316" y="-179" on="0"/>
        <pt x="277" y="-202" on="0"/>
        <pt x="230" y="-213" on="0"/>
        <pt x="207" y="-213" on="1"/>
        <pt x="172" y="-213" on="0"/>
        <pt x="129" y="-193" on="1"/>
        <pt x="154" y="-138" on="1"/>
        <pt x="171" y="-145" on="0"/>
        <pt x="200" y="-150" on="0"/>
        <pt x="215" y="-150" on="1"/>
        <pt x="232" y="-150" on="0"/>
        <pt x="256" y="-137" on="0"/>
        <pt x="258" y="-126" on="1"/>
        <pt x="260" y="-111" on="0"/>
        <pt x="223" y="-95" on="0"/>
        <pt x="188" y="-91" on="1"/>
        <pt x="221" y="-7" on="1"/>
        <pt x="179" y="1" on="0"/>
        <pt x="109" y="40" on="0"/>
        <pt x="61" y="105" on="0"/>
        <pt x="40" y="198" on="0"/>
        <pt x="48" y="259" on="1"/>
        <pt x="57" y="327" on="0"/>
        <pt x="114" y="429" on="0"/>
        <pt x="197" y="496" on="0"/>
        <pt x="298" y="530" on="0"/>
      </contour>
    </TTGlyph>
    <TTGlyph name="cedilla" xMin="129" yMin="-213" xMax="347" yMax="3">
      <contour>
        <pt x="291" y="3" on="1"/>
        <pt x="274" y="-43" on="1"/>
        <pt x="289" y="-46" on="0"/>
        <pt x="316" y="-60" on="0"/>
        <pt x="337" y="-80" on="0"/>
        <pt x="347" y="-107" on="0"/>
        <pt x="345" y="-123" on="1"/>
        <pt x="342" y="-146" on="0"/>
        <pt x="316" y="-179" on="0"/>
        <pt x="277" y="-202" on="0"/>
        <pt x="230" y="-213" on="0"/>
        <pt x="207" y="-213" on="1"/>
        <pt x="172" y="-213" on="0"/>
        <pt x="129" y="-193" on="1"/>
        <pt x="154" y="-138" on="1"/>
        <pt x="171" y="-145" on="0"/>
        <pt x="200" y="-150" on="0"/>
        <pt x="215" y="-150" on="1"/>
        <pt x="232" y="-150" on="0"/>
        <pt x="256" y="-137" on="0"/>
        <pt x="258" y="-126" on="1"/>
        <pt x="260" y="-111" on="0"/>
        <pt x="223" y="-95" on="0"/>
        <pt x="188" y="-91" on="1"/>
        <pt x="222" y="-3" on="1"/>
      </contour>
    </TTGlyph>
    <TTGlyph name="cent" xMin="63" yMin="-14" xMax="491" yMax="716">
      <contour>
        <pt x="403" y="624" on="1"/>
        <pt x="425" y="622" on="0"/>
        <pt x="470" y="612" on="0"/>
        <pt x="491" y="604" on="1"/>
        <pt x="445" y="511" on="1"/>
        <pt x="422" y="517" on="0"/>
        <pt x="377" y="523" on="0"/>
        <pt x="360" y="523" on="1"/>
        <pt x="306" y="523" on="0"/>
        <pt x="229" y="433" on="0"/>
        <pt x="219" y="355" on="1"/>
        <pt x="209" y="276" on="0"/>
        <pt x="264" y="186" on="0"/>
        <pt x="318" y="186" on="1"/>
        <pt x="339" y="186" on="0"/>
        <pt x="388" y="197" on="0"/>
        <pt x="422" y="210" on="1"/>
        <pt x="445" y="118" on="1"/>
        <pt x="415" y="104" on="0"/>
        <pt x="360" y="89" on="0"/>
        <pt x="337" y="85" on="1"/>
        <pt x="325" y="-14" on="1"/>
        <pt x="227" y="-14" on="1"/>
        <pt x="239" y="89" on="1"/>
        <pt x="198" y="98" on="0"/>
        <pt x="130" y="138" on="0"/>
        <pt x="84" y="203" on="0"/>
        <pt x="63" y="295" on="0"/>
        <pt x="71" y="355" on="1"/>
        <pt x="78" y="412" on="0"/>
        <pt x="121" y="501" on="0"/>
        <pt x="183" y="567" on="0"/>
        <pt x="261" y="609" on="0"/>
        <pt x="304" y="618" on="1"/>
        <pt x="316" y="716" on="1"/>
        <pt x="414" y="716" on="1"/>
      </contour>
    </TTGlyph>
    <TTGlyph name="circumflex" xMin="85" yMin="585" xMax="400" yMax="743">
      <contour>
        <pt x="310" y="743" on="1"/>
        <pt x="400" y="603" on="1"/>
        <pt x="316" y="585" on="1"/>
        <pt x="247" y="658" on="1"/>
        <pt x="162" y="585" on="1"/>
        <pt x="85" y="603" on="1"/>
        <pt x="207" y="743" on="1"/>
      </contour>
    </TTGlyph>
    <TTGlyph name="colon" xMin="72" yMin="-15" xMax="290" yMax="510">
      <contour>
        <pt x="77" y="67" on="1"/>
        <pt x="79" y="84" on="0"/>
        <pt x="95" y="115" on="0"/>
        <pt x="120" y="138" on="0"/>
        <pt x="152" y="151" on="0"/>
        <pt x="170" y="151" on="1"/>
        <pt x="205" y="151" on="0"/>
        <pt x="246" y="102" on="0"/>
        <pt x="242" y="67" on="1"/>
        <pt x="237" y="32" on="0"/>
        <pt x="185" y="-15" on="0"/>
        <pt x="150" y="-15" on="1"/>
        <pt x="115" y="-15" on="0"/>
        <pt x="72" y="32" on="0"/>
      </contour>
      <contour>
        <pt x="121" y="426" on="1"/>
        <pt x="123" y="443" on="0"/>
        <pt x="139" y="474" on="0"/>
        <pt x="164" y="497" on="0"/>
        <pt x="196" y="510" on="0"/>
        <pt x="214" y="510" on="1"/>
        <pt x="249" y="510" on="0"/>
        <pt x="290" y="461" on="0"/>
        <pt x="286" y="426" on="1"/>
        <pt x="281" y="391" on="0"/>
        <pt x="229" y="344" on="0"/>
        <pt x="194" y="344" on="1"/>
        <pt x="159" y="344" on="0"/>
        <pt x="116" y="391" on="0"/>
      </contour>
    </TTGlyph>
    <TTGlyph name="comma" xMin="40" yMin="-135" xMax="190" yMax="98">
      <contour>
        <pt x="68" y="98" on="1"/>
        <pt x="190" y="98" on="1"/>
        <pt x="180" y="20" on="1"/>
        <pt x="176" y="-15" on="0"/>
        <pt x="155" y="-75" on="0"/>
        <pt x="120" y="-117" on="0"/>
        <pt x="71" y="-135" on="0"/>
        <pt x="40" y="-128" on="1"/>
      </contour>
    </TTGlyph>
    <TTGlyph name="copyright" xMin="56" yMin="21" xMax="741" yMax="690">
      <contour>
        <pt x="441" y="690" on="1"/>
        <pt x="515" y="690" on="0"/>
        <pt x="631" y="640" on="0"/>
        <pt x="708" y="552" on="0"/>
        <pt x="741" y="429" on="0"/>
        <pt x="732" y="357" on="1"/>
        <pt x="724" y="289" on="0"/>
        <pt x="659" y="167" on="0"/>
        <pt x="559" y="75" on="0"/>
        <pt x="431" y="21" on="0"/>
        <pt x="359" y="21" on="1"/>
        <pt x="284" y="21" on="0"/>
        <pt x="167" y="71" on="0"/>
        <pt x="90" y="160" on="0"/>
        <pt x="56" y="283" on="0"/>
        <pt x="65" y="357" on="1"/>
        <pt x="73" y="424" on="0"/>
        <pt x="138" y="544" on="0"/>
        <pt x="239" y="636" on="0"/>
        <pt x="368" y="690" on="0"/>
      </contour>
      <contour>
        <pt x="432" y="613" on="1"/>
        <pt x="381" y="613" on="0"/>
        <pt x="288" y="577" on="0"/>
        <pt x="214" y="509" on="0"/>
        <pt x="164" y="414" on="0"/>
        <pt x="157" y="354" on="1"/>
        <pt x="150" y="295" on="0"/>
        <pt x="176" y="201" on="0"/>
        <pt x="234" y="135" on="0"/>
        <pt x="318" y="99" on="0"/>
        <pt x="369" y="99" on="1"/>
        <pt x="419" y="99" on="0"/>
        <pt x="511" y="135" on="0"/>
        <pt x="584" y="201" on="0"/>
        <pt x="633" y="297" on="0"/>
        <pt x="640" y="357" on="1"/>
        <pt x="647" y="415" on="0"/>
        <pt x="621" y="510" on="0"/>
        <pt x="565" y="577" on="0"/>
        <pt x="482" y="613" on="0"/>
      </contour>
      <contour>
        <pt x="398" y="176" on="1"/>
        <pt x="362" y="176" on="0"/>
        <pt x="301" y="200" on="0"/>
        <pt x="260" y="246" on="0"/>
        <pt x="242" y="313" on="0"/>
        <pt x="247" y="357" on="1"/>
        <pt x="253" y="400" on="0"/>
        <pt x="288" y="468" on="0"/>
        <pt x="341" y="513" on="0"/>
        <pt x="406" y="537" on="0"/>
        <pt x="442" y="537" on="1"/>
        <pt x="482" y="537" on="0"/>
        <pt x="524" y="523" on="1"/>
        <pt x="494" y="459" on="1"/>
        <pt x="462" y="470" on="0"/>
        <pt x="434" y="470" on="1"/>
        <pt x="396" y="470" on="0"/>
        <pt x="341" y="405" on="0"/>
        <pt x="335" y="357" on="1"/>
        <pt x="329" y="308" on="0"/>
        <pt x="368" y="242" on="0"/>
        <pt x="406" y="242" on="1"/>
        <pt x="420" y="242" on="0"/>
        <pt x="455" y="248" on="0"/>
        <pt x="479" y="259" on="1"/>
        <pt x="493" y="199" on="1"/>
        <pt x="464" y="185" on="0"/>
        <pt x="414" y="176" on="0"/>
      </contour>
    </TTGlyph>
    <TTGlyph name="currency" xMin="40" yMin="99" xMax="557" yMax="581">
      <contour>
        <pt x="399" y="340" on="1"/>
        <pt x="402" y="366" on="0"/>
        <pt x="392" y="413" on="0"/>
        <pt x="368" y="449" on="0"/>
        <pt x="333" y="470" on="0"/>
        <pt x="312" y="470" on="1"/>
        <pt x="292" y="470" on="0"/>
        <pt x="252" y="451" on="0"/>
        <pt x="220" y="417" on="0"/>
        <pt x="197" y="369" on="0"/>
        <pt x="193" y="340" on="1"/>
        <pt x="190" y="311" on="0"/>
        <pt x="201" y="263" on="0"/>
        <pt x="225" y="229" on="0"/>
        <pt x="260" y="210" on="0"/>
        <pt x="280" y="210" on="1"/>
        <pt x="301" y="210" on="0"/>
        <pt x="342" y="231" on="0"/>
        <pt x="374" y="267" on="0"/>
        <pt x="396" y="314" on="0"/>
      </contour>
      <contour>
        <pt x="485" y="341" on="1"/>
        <pt x="480" y="305" on="0"/>
        <pt x="455" y="243" on="0"/>
        <pt x="441" y="226" on="1"/>
        <pt x="511" y="153" on="1"/>
        <pt x="455" y="100" on="1"/>
        <pt x="386" y="171" on="1"/>
        <pt x="367" y="157" on="0"/>
        <pt x="307" y="136" on="0"/>
        <pt x="272" y="136" on="1"/>
        <pt x="239" y="136" on="0"/>
        <pt x="187" y="156" on="0"/>
        <pt x="169" y="170" on="1"/>
        <pt x="87" y="99" on="1"/>
        <pt x="40" y="155" on="1"/>
        <pt x="126" y="226" on="1"/>
        <pt x="115" y="243" on="0"/>
        <pt x="101" y="302" on="0"/>
        <pt x="106" y="341" on="1"/>
        <pt x="111" y="379" on="0"/>
        <pt x="139" y="437" on="0"/>
        <pt x="154" y="454" on="1"/>
        <pt x="85" y="525" on="1"/>
        <pt x="146" y="581" on="1"/>
        <pt x="211" y="510" on="1"/>
        <pt x="232" y="524" on="0"/>
        <pt x="289" y="544" on="0"/>
        <pt x="322" y="544" on="1"/>
        <pt x="357" y="544" on="0"/>
        <pt x="412" y="523" on="0"/>
        <pt x="428" y="509" on="1"/>
        <pt x="514" y="580" on="1"/>
        <pt x="557" y="527" on="1"/>
        <pt x="469" y="454" on="1"/>
        <pt x="479" y="437" on="0"/>
        <pt x="490" y="377" on="0"/>
      </contour>
    </TTGlyph>
    <TTGlyph name="d" xMin="56" yMin="-13" xMax="633" yMax="758">
      <contour>
        <pt x="259" y="-13" on="1"/>
        <pt x="205" y="-13" on="0"/>
        <pt x="124" y="28" on="0"/>
        <pt x="75" y="102" on="0"/>
        <pt x="56" y="203" on="0"/>
        <pt x="64" y="262" on="1"/>
        <pt x="70" y="315" on="0"/>
        <pt x="118" y="411" on="0"/>
        <pt x="188" y="483" on="0"/>
        <pt x="273" y="526" on="0"/>
        <pt x="316" y="526" on="1"/>
        <pt x="342" y="526" on="0"/>
        <pt x="390" y="519" on="0"/>
        <pt x="428" y="508" on="1"/>
        <pt x="410" y="473" on="0"/>
        <pt x="368" y="430" on="0"/>
        <pt x="343" y="428" on="1"/>
        <pt x="312" y="426" on="0"/>
        <pt x="266" y="400" on="0"/>
        <pt x="235" y="357" on="0"/>
        <pt x="216" y="297" on="0"/>
        <pt x="212" y="262" on="1"/>
        <pt x="207" y="227" on="0"/>
        <pt x="214" y="165" on="0"/>
        <pt x="236" y="118" on="0"/>
        <pt x="272" y="90" on="0"/>
        <pt x="297" y="90" on="1"/>
        <pt x="326" y="90" on="0"/>
        <pt x="385" y="124" on="0"/>
        <pt x="421" y="160" on="1"/>
        <pt x="495" y="758" on="1"/>
        <pt x="633" y="751" on="1"/>
        <pt x="557" y="131" on="1"/>
        <pt x="553" y="103" on="0"/>
        <pt x="552" y="40" on="0"/>
        <pt x="557" y="5" on="1"/>
        <pt x="449" y="0" on="1"/>
        <pt x="437" y="7" on="0"/>
        <pt x="423" y="33" on="0"/>
        <pt x="419" y="47" on="1"/>
        <pt x="417" y="70" on="1"/>
        <pt x="397" y="48" on="1"/>
        <pt x="354" y="13" on="0"/>
        <pt x="288" y="-13" on="0"/>
      </contour>
    </TTGlyph>
    <TTGlyph name="dagger" xMin="47" yMin="-30" xMax="609" yMax="697">
      <contour>
        <pt x="330" y="-30" on="1"/>
        <pt x="210" y="-30" on="1"/>
        <pt x="299" y="697" on="1"/>
        <pt x="419" y="697" on="1"/>
      </contour>
      <contour>
        <pt x="530" y="391" on="1"/>
        <pt x="506" y="391" on="0"/>
        <pt x="471" y="408" on="0"/>
        <pt x="447" y="437" on="0"/>
        <pt x="433" y="473" on="0"/>
        <pt x="429" y="492" on="1"/>
        <pt x="609" y="492" on="1"/>
        <pt x="597" y="391" on="1"/>
      </contour>
      <contour>
        <pt x="47" y="391" on="1"/>
        <pt x="59" y="492" on="1"/>
        <pt x="239" y="492" on="1"/>
        <pt x="230" y="473" on="0"/>
        <pt x="207" y="437" on="0"/>
        <pt x="177" y="408" on="0"/>
        <pt x="138" y="391" on="0"/>
        <pt x="114" y="391" on="1"/>
      </contour>
    </TTGlyph>
    <TTGlyph name="daggerdbl" xMin="42" yMin="-30" xMax="635" yMax="697">
      <contour>
        <pt x="354" y="-30" on="1"/>
        <pt x="234" y="-30" on="1"/>
        <pt x="323" y="697" on="1"/>
        <pt x="443" y="697" on="1"/>
      </contour>
      <contour>
        <pt x="556" y="411" on="1"/>
        <pt x="532" y="411" on="0"/>
        <pt x="497" y="428" on="0"/>
        <pt x="473" y="457" on="0"/>
        <pt x="459" y="493" on="0"/>
        <pt x="455" y="512" on="1"/>
        <pt x="635" y="512" on="1"/>
        <pt x="623" y="411" on="1"/>
      </contour>
      <contour>
        <pt x="73" y="411" on="1"/>
        <pt x="85" y="512" on="1"/>
        <pt x="265" y="512" on="1"/>
        <pt x="256" y="493" on="0"/>
        <pt x="233" y="457" on="0"/>
        <pt x="203" y="428" on="0"/>
        <pt x="164" y="411" on="0"/>
        <pt x="140" y="411" on="1"/>
      </contour>
      <contour>
        <pt x="525" y="155" on="1"/>
        <pt x="501" y="155" on="0"/>
        <pt x="466" y="172" on="0"/>
        <pt x="442" y="201" on="0"/>
        <pt x="428" y="237" on="0"/>
        <pt x="424" y="256" on="1"/>
        <pt x="604" y="256" on="1"/>
        <pt x="592" y="155" on="1"/>
      </contour>
      <contour>
        <pt x="42" y="155" on="1"/>
        <pt x="54" y="256" on="1"/>
        <pt x="234" y="256" on="1"/>
        <pt x="225" y="237" on="0"/>
        <pt x="202" y="201" on="0"/>
        <pt x="172" y="172" on="0"/>
        <pt x="133" y="155" on="0"/>
        <pt x="109" y="155" on="1"/>
      </contour>
    </TTGlyph>
    <TTGlyph name="degree" xMin="91" yMin="473" xMax="411" yMax="773">
      <contour>
        <pt x="180" y="623" on="1"/>
        <pt x="175" y="585" on="0"/>
        <pt x="213" y="546" on="0"/>
        <pt x="242" y="546" on="1"/>
        <pt x="271" y="546" on="0"/>
        <pt x="318" y="585" on="0"/>
        <pt x="323" y="623" on="1"/>
        <pt x="328" y="661" on="0"/>
        <pt x="290" y="701" on="0"/>
        <pt x="261" y="701" on="1"/>
        <pt x="232" y="701" on="0"/>
        <pt x="185" y="661" on="0"/>
      </contour>
      <contour>
        <pt x="95" y="623" on="1"/>
        <pt x="99" y="656" on="0"/>
        <pt x="132" y="711" on="0"/>
        <pt x="180" y="751" on="0"/>
        <pt x="239" y="773" on="0"/>
        <pt x="269" y="773" on="1"/>
        <pt x="299" y="773" on="0"/>
        <pt x="353" y="752" on="0"/>
        <pt x="392" y="713" on="0"/>
        <pt x="411" y="657" on="0"/>
        <pt x="407" y="623" on="1"/>
        <pt x="403" y="590" on="0"/>
        <pt x="370" y="535" on="0"/>
        <pt x="322" y="495" on="0"/>
        <pt x="263" y="473" on="0"/>
        <pt x="233" y="473" on="1"/>
        <pt x="203" y="473" on="0"/>
        <pt x="149" y="494" on="0"/>
        <pt x="110" y="533" on="0"/>
        <pt x="91" y="588" on="0"/>
      </contour>
    </TTGlyph>
    <TTGlyph name="dieresis" xMin="185" yMin="607" xMax="514" yMax="733">
      <contour>
        <pt x="189" y="670" on="1"/>
        <pt x="192" y="696" on="0"/>
        <pt x="234" y="733" on="0"/>
        <pt x="260" y="733" on="1"/>
        <pt x="286" y="733" on="0"/>
        <pt x="319" y="696" on="0"/>
        <pt x="316" y="670" on="1"/>
        <pt x="312" y="644" on="0"/>
        <pt x="270" y="607" on="0"/>
        <pt x="244" y="607" on="1"/>
        <pt x="218" y="607" on="0"/>
        <pt x="185" y="644" on="0"/>
      </contour>
      <contour>
        <pt x="384" y="670" on="1"/>
        <pt x="387" y="696" on="0"/>
        <pt x="429" y="733" on="0"/>
        <pt x="455" y="733" on="1"/>
        <pt x="481" y="733" on="0"/>
        <pt x="514" y="696" on="0"/>
        <pt x="511" y="670" on="1"/>
        <pt x="507" y="644" on="0"/>
        <pt x="465" y="607" on="0"/>
        <pt x="439" y="607" on="1"/>
        <pt x="413" y="607" on="0"/>
        <pt x="380" y="644" on="0"/>
      </contour>
    </TTGlyph>
    <TTGlyph name="divide" xMin="78" yMin="51" xMax="558" yMax="556">
      <contour>
        <pt x="232" y="112" on="1"/>
        <pt x="236" y="140" on="0"/>
        <pt x="274" y="175" on="0"/>
        <pt x="301" y="175" on="1"/>
        <pt x="329" y="175" on="0"/>
        <pt x="360" y="140" on="0"/>
        <pt x="356" y="112" on="1"/>
        <pt x="353" y="85" on="0"/>
        <pt x="314" y="51" on="0"/>
        <pt x="286" y="51" on="1"/>
        <pt x="259" y="51" on="0"/>
        <pt x="229" y="85" on="0"/>
      </contour>
      <contour>
        <pt x="90" y="353" on="1"/>
        <pt x="558" y="353" on="1"/>
        <pt x="546" y="257" on="1"/>
        <pt x="78" y="257" on="1"/>
      </contour>
      <contour>
        <pt x="280" y="494" on="1"/>
        <pt x="284" y="521" on="0"/>
        <pt x="322" y="556" on="0"/>
        <pt x="348" y="556" on="1"/>
        <pt x="375" y="556" on="0"/>
        <pt x="406" y="521" on="0"/>
        <pt x="402" y="494" on="1"/>
        <pt x="399" y="468" on="0"/>
        <pt x="360" y="434" on="0"/>
        <pt x="333" y="434" on="1"/>
        <pt x="307" y="434" on="0"/>
        <pt x="277" y="468" on="0"/>
      </contour>
    </TTGlyph>
    <TTGlyph name="dollar" xMin="30" yMin="-107" xMax="535" yMax="810">
      <contour>
        <pt x="339" y="612" on="1"/>
        <pt x="294" y="612" on="0"/>
        <pt x="235" y="569" on="0"/>
        <pt x="230" y="537" on="1"/>
        <pt x="226" y="504" on="0"/>
        <pt x="271" y="457" on="0"/>
        <pt x="342" y="415" on="0"/>
        <pt x="425" y="372" on="0"/>
        <pt x="494" y="315" on="0"/>
        <pt x="535" y="237" on="0"/>
        <pt x="528" y="181" on="1"/>
        <pt x="518" y="100" on="0"/>
        <pt x="403" y="5" on="0"/>
        <pt x="315" y="-8" on="1"/>
        <pt x="302" y="-107" on="1"/>
        <pt x="196" y="-107" on="1"/>
        <pt x="208" y="-11" on="1"/>
        <pt x="170" y="-7" on="0"/>
        <pt x="81" y="17" on="0"/>
        <pt x="30" y="40" on="1"/>
        <pt x="80" y="134" on="1"/>
        <pt x="131" y="110" on="0"/>
        <pt x="224" y="91" on="0"/>
        <pt x="262" y="91" on="1"/>
        <pt x="316" y="91" on="0"/>
        <pt x="391" y="145" on="0"/>
        <pt x="396" y="183" on="1"/>
        <pt x="400" y="218" on="0"/>
        <pt x="356" y="267" on="0"/>
        <pt x="286" y="309" on="0"/>
        <pt x="203" y="350" on="0"/>
        <pt x="134" y="404" on="0"/>
        <pt x="93" y="476" on="0"/>
        <pt x="99" y="529" on="1"/>
        <pt x="104" y="570" on="0"/>
        <pt x="139" y="633" on="0"/>
        <pt x="192" y="677" on="0"/>
        <pt x="259" y="704" on="0"/>
        <pt x="297" y="709" on="1"/>
        <pt x="309" y="810" on="1"/>
        <pt x="415" y="810" on="1"/>
        <pt x="403" y="709" on="1"/>
        <pt x="432" y="706" on="0"/>
        <pt x="493" y="693" on="0"/>
        <pt x="534" y="680" on="1"/>
        <pt x="486" y="589" on="1"/>
        <pt x="443" y="601" on="0"/>
        <pt x="372" y="612" on="0"/>
      </contour>
    </TTGlyph>
    <TTGlyph name="e" xMin="71" yMin="-13" xMax="559" yMax="530">
      <contour>
        <pt x="426" y="317" on="1"/>
        <pt x="432" y="340" on="0"/>
        <pt x="428" y="382" on="0"/>
        <pt x="409" y="414" on="0"/>
        <pt x="376" y="433" on="0"/>
        <pt x="353" y="433" on="1"/>
        <pt x="332" y="433" on="0"/>
        <pt x="288" y="415" on="0"/>
        <pt x="250" y="376" on="0"/>
        <pt x="221" y="315" on="0"/>
        <pt x="216" y="272" on="1"/>
        <pt x="205" y="185" on="0"/>
        <pt x="272" y="90" on="0"/>
        <pt x="335" y="90" on="1"/>
        <pt x="370" y="90" on="0"/>
        <pt x="439" y="107" on="0"/>
        <pt x="485" y="127" on="1"/>
        <pt x="509" y="34" on="1"/>
        <pt x="452" y="8" on="0"/>
        <pt x="354" y="-13" on="0"/>
        <pt x="307" y="-13" on="1"/>
        <pt x="238" y="-13" on="0"/>
        <pt x="145" y="37" on="0"/>
        <pt x="90" y="116" on="0"/>
        <pt x="71" y="216" on="0"/>
        <pt x="77" y="267" on="1"/>
        <pt x="85" y="329" on="0"/>
        <pt x="138" y="427" on="0"/>
        <pt x="218" y="494" on="0"/>
        <pt x="318" y="530" on="0"/>
        <pt x="372" y="530" on="1"/>
        <pt x="427" y="530" on="0"/>
        <pt x="513" y="486" on="0"/>
        <pt x="559" y="408" on="0"/>
        <pt x="559" y="299" on="0"/>
        <pt x="529" y="235" on="1"/>
        <pt x="249" y="235" on="1"/>
        <pt x="264" y="270" on="0"/>
        <pt x="311" y="317" on="0"/>
        <pt x="337" y="317" on="1"/>
      </contour>
    </TTGlyph>
    <TTGlyph name="eacute" xMin="59" yMin="-13" xMax="547" yMax="740">
      <contour>
        <pt x="414" y="317" on="1"/>
        <pt x="420" y="340" on="0"/>
        <pt x="416" y="382" on="0"/>
        <pt x="397" y="414" on="0"/>
        <pt x="364" y="433" on="0"/>
        <pt x="341" y="433" on="1"/>
        <pt x="320" y="433" on="0"/>
        <pt x="276" y="415" on="0"/>
        <pt x="238" y="376" on="0"/>
        <pt x="209" y="315" on="0"/>
        <pt x="204" y="272" on="1"/>
        <pt x="193" y="185" on="0"/>
        <pt x="260" y="90" on="0"/>
        <pt x="323" y="90" on="1"/>
        <pt x="358" y="90" on="0"/>
        <pt x="427" y="107" on="0"/>
        <pt x="473" y="127" on="1"/>
        <pt x="497" y="34" on="1"/>
        <pt x="440" y="8" on="0"/>
        <pt x="342" y="-13" on="0"/>
        <pt x="295" y="-13" on="1"/>
        <pt x="226" y="-13" on="0"/>
        <pt x="133" y="37" on="0"/>
        <pt x="78" y="116" on="0"/>
        <pt x="59" y="216" on="0"/>
        <pt x="65" y="267" on="1"/>
        <pt x="73" y="329" on="0"/>
        <pt x="126" y="427" on="0"/>
        <pt x="206" y="494" on="0"/>
        <pt x="306" y="530" on="0"/>
        <pt x="360" y="530" on="1"/>
        <pt x="415" y="530" on="0"/>
        <pt x="501" y="486" on="0"/>
        <pt x="547" y="408" on="0"/>
        <pt x="547" y="299" on="0"/>
        <pt x="517" y="235" on="1"/>
        <pt x="237" y="235" on="1"/>
        <pt x="252" y="270" on="0"/>
        <pt x="299" y="317" on="0"/>
        <pt x="325" y="317" on="1"/>
      </contour>
      <contour>
        <pt x="451" y="645" on="1"/>
        <pt x="434" y="627" on="0"/>
        <pt x="392" y="607" on="0"/>
        <pt x="349" y="598" on="0"/>
        <pt x="311" y="599" on="0"/>
        <pt x="299" y="602" on="1"/>
        <pt x="402" y="740" on="1"/>
        <pt x="541" y="740" on="1"/>
      </contour>
    </TTGlyph>
    <TTGlyph name="ecircumflex" xMin="58" yMin="-13" xMax="546" yMax="743">
      <contour>
        <pt x="413" y="317" on="1"/>
        <pt x="419" y="340" on="0"/>
        <pt x="415" y="382" on="0"/>
        <pt x="396" y="414" on="0"/>
        <pt x="363" y="433" on="0"/>
        <pt x="340" y="433" on="1"/>
        <pt x="319" y="433" on="0"/>
        <pt x="275" y="415" on="0"/>
        <pt x="237" y="376" on="0"/>
        <pt x="208" y="315" on="0"/>
        <pt x="203" y="272" on="1"/>
        <pt x="192" y="185" on="0"/>
        <pt x="259" y="90" on="0"/>
        <pt x="322" y="90" on="1"/>
        <pt x="357" y="90" on="0"/>
        <pt x="426" y="107" on="0"/>
        <pt x="472" y="127" on="1"/>
        <pt x="496" y="34" on="1"/>
        <pt x="439" y="8" on="0"/>
        <pt x="341" y="-13" on="0"/>
        <pt x="294" y="-13" on="1"/>
        <pt x="225" y="-13" on="0"/>
        <pt x="132" y="37" on="0"/>
        <pt x="77" y="116" on="0"/>
        <pt x="58" y="216" on="0"/>
        <pt x="64" y="267" on="1"/>
        <pt x="72" y="329" on="0"/>
        <pt x="125" y="427" on="0"/>
        <pt x="205" y="494" on="0"/>
        <pt x="305" y="530" on="0"/>
        <pt x="359" y="530" on="1"/>
        <pt x="414" y="530" on="0"/>
        <pt x="500" y="486" on="0"/>
        <pt x="546" y="408" on="0"/>
        <pt x="546" y="299" on="0"/>
        <pt x="516" y="235" on="1"/>
        <pt x="236" y="235" on="1"/>
        <pt x="251" y="270" on="0"/>
        <pt x="298" y="317" on="0"/>
        <pt x="324" y="317" on="1"/>
      </contour>
      <contour>
        <pt x="434" y="743" on="1"/>
        <pt x="524" y="603" on="1"/>
        <pt x="440" y="585" on="1"/>
        <pt x="371" y="658" on="1"/>
        <pt x="286" y="585" on="1"/>
        <pt x="209" y="603" on="1"/>
        <pt x="331" y="743" on="1"/>
      </contour>
    </TTGlyph>
    <TTGlyph name="edieresis" xMin="60" yMin="-13" xMax="548" yMax="733">
      <contour>
        <pt x="415" y="317" on="1"/>
        <pt x="421" y="340" on="0"/>
        <pt x="417" y="382" on="0"/>
        <pt x="398" y="414" on="0"/>
        <pt x="365" y="433" on="0"/>
        <pt x="342" y="433" on="1"/>
        <pt x="321" y="433" on="0"/>
        <pt x="277" y="415" on="0"/>
        <pt x="239" y="376" on="0"/>
        <pt x="210" y="315" on="0"/>
        <pt x="205" y="272" on="1"/>
        <pt x="194" y="185" on="0"/>
        <pt x="261" y="90" on="0"/>
        <pt x="324" y="90" on="1"/>
        <pt x="359" y="90" on="0"/>
        <pt x="428" y="107" on="0"/>
        <pt x="474" y="127" on="1"/>
        <pt x="498" y="34" on="1"/>
        <pt x="441" y="8" on="0"/>
        <pt x="343" y="-13" on="0"/>
        <pt x="296" y="-13" on="1"/>
        <pt x="227" y="-13" on="0"/>
        <pt x="134" y="37" on="0"/>
        <pt x="79" y="116" on="0"/>
        <pt x="60" y="216" on="0"/>
        <pt x="66" y="267" on="1"/>
        <pt x="74" y="329" on="0"/>
        <pt x="127" y="427" on="0"/>
        <pt x="207" y="494" on="0"/>
        <pt x="307" y="530" on="0"/>
        <pt x="361" y="530" on="1"/>
        <pt x="416" y="530" on="0"/>
        <pt x="502" y="486" on="0"/>
        <pt x="548" y="408" on="0"/>
        <pt x="548" y="299" on="0"/>
        <pt x="518" y="235" on="1"/>
        <pt x="238" y="235" on="1"/>
        <pt x="253" y="270" on="0"/>
        <pt x="300" y="317" on="0"/>
        <pt x="326" y="317" on="1"/>
      </contour>
      <contour>
        <pt x="206" y="670" on="1"/>
        <pt x="209" y="696" on="0"/>
        <pt x="251" y="733" on="0"/>
        <pt x="277" y="733" on="1"/>
        <pt x="303" y="733" on="0"/>
        <pt x="336" y="696" on="0"/>
        <pt x="333" y="670" on="1"/>
        <pt x="329" y="644" on="0"/>
        <pt x="287" y="607" on="0"/>
        <pt x="261" y="607" on="1"/>
        <pt x="235" y="607" on="0"/>
        <pt x="202" y="644" on="0"/>
      </contour>
      <contour>
        <pt x="401" y="670" on="1"/>
        <pt x="404" y="696" on="0"/>
        <pt x="446" y="733" on="0"/>
        <pt x="472" y="733" on="1"/>
        <pt x="498" y="733" on="0"/>
        <pt x="531" y="696" on="0"/>
        <pt x="528" y="670" on="1"/>
        <pt x="524" y="644" on="0"/>
        <pt x="482" y="607" on="0"/>
        <pt x="456" y="607" on="1"/>
        <pt x="430" y="607" on="0"/>
        <pt x="397" y="644" on="0"/>
      </contour>
    </TTGlyph>
    <TTGlyph name="egrave" xMin="60" yMin="-13" xMax="548" yMax="740">
      <contour>
        <pt x="415" y="317" on="1"/>
        <pt x="421" y="340" on="0"/>
        <pt x="417" y="382" on="0"/>
        <pt x="398" y="414" on="0"/>
        <pt x="365" y="433" on="0"/>
        <pt x="342" y="433" on="1"/>
        <pt x="321" y="433" on="0"/>
        <pt x="277" y="415" on="0"/>
        <pt x="239" y="376" on="0"/>
        <pt x="210" y="315" on="0"/>
        <pt x="205" y="272" on="1"/>
        <pt x="194" y="185" on="0"/>
        <pt x="261" y="90" on="0"/>
        <pt x="324" y="90" on="1"/>
        <pt x="359" y="90" on="0"/>
        <pt x="428" y="107" on="0"/>
        <pt x="474" y="127" on="1"/>
        <pt x="498" y="34" on="1"/>
        <pt x="441" y="8" on="0"/>
        <pt x="343" y="-13" on="0"/>
        <pt x="296" y="-13" on="1"/>
        <pt x="227" y="-13" on="0"/>
        <pt x="134" y="37" on="0"/>
        <pt x="79" y="116" on="0"/>
        <pt x="60" y="216" on="0"/>
        <pt x="66" y="267" on="1"/>
        <pt x="74" y="329" on="0"/>
        <pt x="127" y="427" on="0"/>
        <pt x="207" y="494" on="0"/>
        <pt x="307" y="530" on="0"/>
        <pt x="361" y="530" on="1"/>
        <pt x="416" y="530" on="0"/>
        <pt x="502" y="486" on="0"/>
        <pt x="548" y="408" on="0"/>
        <pt x="548" y="299" on="0"/>
        <pt x="518" y="235" on="1"/>
        <pt x="238" y="235" on="1"/>
        <pt x="253" y="270" on="0"/>
        <pt x="300" y="317" on="0"/>
        <pt x="326" y="317" on="1"/>
      </contour>
      <contour>
        <pt x="223" y="740" on="1"/>
        <pt x="357" y="740" on="1"/>
        <pt x="413" y="602" on="1"/>
        <pt x="400" y="599" on="0"/>
        <pt x="363" y="599" on="0"/>
        <pt x="325" y="610" on="0"/>
        <pt x="289" y="631" on="0"/>
        <pt x="276" y="649" on="1"/>
      </contour>
    </TTGlyph>
    <TTGlyph name="eight" xMin="96" yMin="-13" xMax="644" yMax="714">
      <contour>
        <pt x="639" y="531" on="1"/>
        <pt x="634" y="496" on="0"/>
        <pt x="585" y="420" on="0"/>
        <pt x="545" y="378" on="1"/>
        <pt x="523" y="363" on="1"/>
        <pt x="539" y="355" on="1"/>
        <pt x="578" y="326" on="0"/>
        <pt x="626" y="243" on="0"/>
        <pt x="618" y="178" on="1"/>
        <pt x="612" y="132" on="0"/>
        <pt x="564" y="61" on="0"/>
        <pt x="488" y="12" on="0"/>
        <pt x="391" y="-13" on="0"/>
        <pt x="336" y="-13" on="1"/>
        <pt x="280" y="-13" on="0"/>
        <pt x="188" y="12" on="0"/>
        <pt x="126" y="61" on="0"/>
        <pt x="96" y="132" on="0"/>
        <pt x="102" y="178" on="1"/>
        <pt x="107" y="213" on="0"/>
        <pt x="153" y="291" on="0"/>
        <pt x="207" y="341" on="1"/>
        <pt x="219" y="329" on="0"/>
        <pt x="240" y="301" on="0"/>
        <pt x="254" y="271" on="0"/>
        <pt x="258" y="238" on="0"/>
        <pt x="252" y="222" on="1"/>
        <pt x="245" y="208" on="0"/>
        <pt x="239" y="189" on="0"/>
        <pt x="237" y="178" on="1"/>
        <pt x="232" y="136" on="0"/>
        <pt x="294" y="88" on="0"/>
        <pt x="348" y="88" on="1"/>
        <pt x="405" y="88" on="0"/>
        <pt x="473" y="141" on="0"/>
        <pt x="478" y="178" on="1"/>
        <pt x="483" y="216" on="0"/>
        <pt x="437" y="266" on="0"/>
        <pt x="364" y="305" on="0"/>
        <pt x="277" y="343" on="0"/>
        <pt x="205" y="396" on="0"/>
        <pt x="163" y="472" on="0"/>
        <pt x="170" y="531" on="1"/>
        <pt x="175" y="574" on="0"/>
        <pt x="221" y="642" on="0"/>
        <pt x="291" y="689" on="0"/>
        <pt x="380" y="714" on="0"/>
        <pt x="428" y="714" on="1"/>
        <pt x="478" y="714" on="0"/>
        <pt x="560" y="689" on="0"/>
        <pt x="617" y="642" on="0"/>
        <pt x="644" y="574" on="0"/>
      </contour>
      <contour>
        <pt x="310" y="531" on="1"/>
        <pt x="307" y="509" on="0"/>
        <pt x="326" y="475" on="0"/>
        <pt x="362" y="447" on="0"/>
        <pt x="411" y="423" on="0"/>
        <pt x="438" y="410" on="1"/>
        <pt x="467" y="439" on="0"/>
        <pt x="497" y="495" on="0"/>
        <pt x="501" y="520" on="1"/>
        <pt x="504" y="545" on="0"/>
        <pt x="493" y="580" on="0"/>
        <pt x="469" y="602" on="0"/>
        <pt x="435" y="612" on="0"/>
        <pt x="416" y="612" on="1"/>
        <pt x="375" y="612" on="0"/>
        <pt x="315" y="572" on="0"/>
      </contour>
    </TTGlyph>
    <TTGlyph name="ellipsis" xMin="71" yMin="-15" xMax="786" yMax="151">
      <contour>
        <pt x="76" y="67" on="1"/>
        <pt x="78" y="84" on="0"/>
        <pt x="94" y="115" on="0"/>
        <pt x="119" y="138" on="0"/>
        <pt x="151" y="151" on="0"/>
        <pt x="169" y="151" on="1"/>
        <pt x="204" y="151" on="0"/>
        <pt x="245" y="102" on="0"/>
        <pt x="241" y="67" on="1"/>
        <pt x="236" y="32" on="0"/>
        <pt x="184" y="-15" on="0"/>
        <pt x="149" y="-15" on="1"/>
        <pt x="114" y="-15" on="0"/>
        <pt x="71" y="32" on="0"/>
      </contour>
      <contour>
        <pt x="347" y="67" on="1"/>
        <pt x="349" y="84" on="0"/>
        <pt x="365" y="115" on="0"/>
        <pt x="390" y="138" on="0"/>
        <pt x="422" y="151" on="0"/>
        <pt x="440" y="151" on="1"/>
        <pt x="475" y="151" on="0"/>
        <pt x="516" y="102" on="0"/>
        <pt x="512" y="67" on="1"/>
        <pt x="507" y="32" on="0"/>
        <pt x="455" y="-15" on="0"/>
        <pt x="420" y="-15" on="1"/>
        <pt x="385" y="-15" on="0"/>
        <pt x="342" y="32" on="0"/>
      </contour>
      <contour>
        <pt x="617" y="67" on="1"/>
        <pt x="619" y="84" on="0"/>
        <pt x="635" y="115" on="0"/>
        <pt x="660" y="138" on="0"/>
        <pt x="692" y="151" on="0"/>
        <pt x="710" y="151" on="1"/>
        <pt x="745" y="151" on="0"/>
        <pt x="786" y="102" on="0"/>
        <pt x="782" y="67" on="1"/>
        <pt x="777" y="32" on="0"/>
        <pt x="725" y="-15" on="0"/>
        <pt x="690" y="-15" on="1"/>
        <pt x="655" y="-15" on="0"/>
        <pt x="612" y="32" on="0"/>
      </contour>
    </TTGlyph>
    <TTGlyph name="emdash" xMin="72" yMin="226" xMax="823" yMax="324">
      <contour>
        <pt x="72" y="226" on="1"/>
        <pt x="84" y="324" on="1"/>
        <pt x="823" y="324" on="1"/>
        <pt x="811" y="226" on="1"/>
      </contour>
    </TTGlyph>
    <TTGlyph name="endash" xMin="72" yMin="226" xMax="508" yMax="324">
      <contour>
        <pt x="72" y="226" on="1"/>
        <pt x="84" y="324" on="1"/>
        <pt x="508" y="324" on="1"/>
        <pt x="496" y="226" on="1"/>
      </contour>
    </TTGlyph>
    <TTGlyph name="equal" xMin="86" yMin="161" xMax="597" yMax="480">
      <contour>
        <pt x="98" y="259" on="1"/>
        <pt x="570" y="259" on="1"/>
        <pt x="558" y="161" on="1"/>
        <pt x="86" y="161" on="1"/>
      </contour>
      <contour>
        <pt x="125" y="480" on="1"/>
        <pt x="597" y="480" on="1"/>
        <pt x="585" y="382" on="1"/>
        <pt x="113" y="382" on="1"/>
      </contour>
    </TTGlyph>
    <TTGlyph name="eth" xMin="37" yMin="-13" xMax="596" yMax="762">
      <contour>
        <pt x="581" y="259" on="1"/>
        <pt x="574" y="201" on="0"/>
        <pt x="520" y="102" on="0"/>
        <pt x="439" y="29" on="0"/>
        <pt x="336" y="-13" on="0"/>
        <pt x="280" y="-13" on="1"/>
        <pt x="224" y="-13" on="0"/>
        <pt x="131" y="25" on="0"/>
        <pt x="67" y="96" on="0"/>
        <pt x="37" y="196" on="0"/>
        <pt x="45" y="259" on="1"/>
        <pt x="52" y="316" on="0"/>
        <pt x="106" y="415" on="0"/>
        <pt x="188" y="488" on="0"/>
        <pt x="291" y="530" on="0"/>
        <pt x="347" y="530" on="1"/>
        <pt x="364" y="530" on="0"/>
        <pt x="402" y="523" on="0"/>
        <pt x="419" y="515" on="1"/>
        <pt x="387" y="562" on="0"/>
        <pt x="340" y="600" on="1"/>
        <pt x="219" y="546" on="1"/>
        <pt x="199" y="604" on="1"/>
        <pt x="282" y="642" on="1"/>
        <pt x="262" y="654" on="0"/>
        <pt x="224" y="676" on="0"/>
        <pt x="204" y="686" on="1"/>
        <pt x="256" y="762" on="1"/>
        <pt x="291" y="747" on="0"/>
        <pt x="356" y="711" on="0"/>
        <pt x="385" y="688" on="1"/>
        <pt x="501" y="741" on="1"/>
        <pt x="523" y="682" on="1"/>
        <pt x="439" y="644" on="1"/>
        <pt x="514" y="572" on="0"/>
        <pt x="596" y="379" on="0"/>
      </contour>
      <contour>
        <pt x="193" y="259" on="1"/>
        <pt x="189" y="224" on="0"/>
        <pt x="197" y="162" on="0"/>
        <pt x="221" y="116" on="0"/>
        <pt x="263" y="89" on="0"/>
        <pt x="292" y="89" on="1"/>
        <pt x="321" y="89" on="0"/>
        <pt x="369" y="116" on="0"/>
        <pt x="405" y="162" on="0"/>
        <pt x="428" y="224" on="0"/>
        <pt x="432" y="259" on="1"/>
        <pt x="436" y="294" on="0"/>
        <pt x="429" y="355" on="0"/>
        <pt x="405" y="401" on="0"/>
        <pt x="363" y="428" on="0"/>
        <pt x="334" y="428" on="1"/>
        <pt x="305" y="428" on="0"/>
        <pt x="257" y="401" on="0"/>
        <pt x="221" y="355" on="0"/>
        <pt x="197" y="294" on="0"/>
      </contour>
    </TTGlyph>
    <TTGlyph name="exclam" xMin="35" yMin="-14" xMax="276" yMax="727">
      <contour>
        <pt x="276" y="727" on="1"/>
        <pt x="194" y="230" on="1"/>
        <pt x="94" y="230" on="1"/>
        <pt x="136" y="727" on="1"/>
      </contour>
      <contour>
        <pt x="40" y="68" on="1"/>
        <pt x="42" y="85" on="0"/>
        <pt x="58" y="116" on="0"/>
        <pt x="83" y="139" on="0"/>
        <pt x="115" y="152" on="0"/>
        <pt x="133" y="152" on="1"/>
        <pt x="168" y="152" on="0"/>
        <pt x="209" y="103" on="0"/>
        <pt x="205" y="68" on="1"/>
        <pt x="200" y="33" on="0"/>
        <pt x="148" y="-14" on="0"/>
        <pt x="113" y="-14" on="1"/>
        <pt x="78" y="-14" on="0"/>
        <pt x="35" y="33" on="0"/>
      </contour>
    </TTGlyph>
    <TTGlyph name="exclamdown" xMin="21" yMin="-210" xMax="256" yMax="531">
      <contour>
        <pt x="21" y="-210" on="1"/>
        <pt x="101" y="287" on="1"/>
        <pt x="201" y="287" on="1"/>
        <pt x="161" y="-210" on="1"/>
      </contour>
      <contour>
        <pt x="87" y="449" on="1"/>
        <pt x="91" y="483" on="0"/>
        <pt x="145" y="531" on="0"/>
        <pt x="180" y="531" on="1"/>
        <pt x="215" y="531" on="0"/>
        <pt x="256" y="484" on="0"/>
        <pt x="252" y="449" on="1"/>
        <pt x="247" y="414" on="0"/>
        <pt x="194" y="365" on="0"/>
        <pt x="159" y="365" on="1"/>
        <pt x="124" y="365" on="0"/>
        <pt x="82" y="414" on="0"/>
      </contour>
    </TTGlyph>
    <TTGlyph name="f" xMin="73" yMin="0" xMax="547" yMax="763">
      <contour>
        <pt x="156" y="418" on="1"/>
        <pt x="73" y="418" on="1"/>
        <pt x="83" y="497" on="1"/>
        <pt x="168" y="517" on="1"/>
        <pt x="171" y="545" on="1"/>
        <pt x="177" y="594" on="0"/>
        <pt x="218" y="675" on="0"/>
        <pt x="282" y="732" on="0"/>
        <pt x="367" y="763" on="0"/>
        <pt x="417" y="763" on="1"/>
        <pt x="442" y="763" on="0"/>
        <pt x="509" y="750" on="0"/>
        <pt x="547" y="733" on="1"/>
        <pt x="505" y="644" on="1"/>
        <pt x="476" y="652" on="0"/>
        <pt x="437" y="660" on="0"/>
        <pt x="420" y="660" on="1"/>
        <pt x="371" y="660" on="0"/>
        <pt x="310" y="597" on="0"/>
        <pt x="303" y="545" on="1"/>
        <pt x="237" y="0" on="1"/>
        <pt x="105" y="0" on="1"/>
      </contour>
      <contour>
        <pt x="478" y="517" on="1"/>
        <pt x="466" y="418" on="1"/>
        <pt x="322" y="418" on="1"/>
        <pt x="329" y="434" on="0"/>
        <pt x="349" y="470" on="0"/>
        <pt x="377" y="498" on="0"/>
        <pt x="412" y="517" on="0"/>
        <pt x="434" y="517" on="1"/>
      </contour>
    </TTGlyph>
    <TTGlyph name="five" xMin="24" yMin="-12" xMax="546" yMax="701">
      <contour>
        <pt x="234" y="442" on="1"/>
        <pt x="229" y="428" on="1"/>
        <pt x="248" y="432" on="1"/>
        <pt x="258" y="433" on="0"/>
        <pt x="274" y="433" on="0"/>
        <pt x="280" y="433" on="1"/>
        <pt x="341" y="433" on="0"/>
        <pt x="435" y="399" on="0"/>
        <pt x="495" y="339" on="0"/>
        <pt x="522" y="259" on="0"/>
        <pt x="516" y="213" on="1"/>
        <pt x="510" y="162" on="0"/>
        <pt x="456" y="79" on="0"/>
        <pt x="373" y="20" on="0"/>
        <pt x="265" y="-12" on="0"/>
        <pt x="205" y="-12" on="1"/>
        <pt x="167" y="-12" on="0"/>
        <pt x="78" y="7" on="0"/>
        <pt x="24" y="36" on="1"/>
        <pt x="68" y="127" on="1"/>
        <pt x="118" y="107" on="0"/>
        <pt x="189" y="90" on="0"/>
        <pt x="217" y="90" on="1"/>
        <pt x="249" y="90" on="0"/>
        <pt x="302" y="111" on="0"/>
        <pt x="342" y="146" on="0"/>
        <pt x="366" y="191" on="0"/>
        <pt x="369" y="215" on="1"/>
        <pt x="376" y="272" on="0"/>
        <pt x="299" y="332" on="0"/>
        <pt x="233" y="332" on="1"/>
        <pt x="207" y="332" on="0"/>
        <pt x="141" y="326" on="0"/>
        <pt x="93" y="318" on="1"/>
        <pt x="165" y="701" on="1"/>
        <pt x="546" y="701" on="1"/>
        <pt x="532" y="592" on="1"/>
        <pt x="263" y="592" on="1"/>
      </contour>
    </TTGlyph>
    <TTGlyph name="florin" xMin="-13" yMin="-141" xMax="604" yMax="712">
      <contour>
        <pt x="183" y="367" on="1"/>
        <pt x="106" y="367" on="1"/>
        <pt x="116" y="446" on="1"/>
        <pt x="204" y="466" on="1"/>
        <pt x="210" y="494" on="1"/>
        <pt x="221" y="543" on="0"/>
        <pt x="270" y="624" on="0"/>
        <pt x="340" y="681" on="0"/>
        <pt x="428" y="712" on="0"/>
        <pt x="478" y="712" on="1"/>
        <pt x="503" y="712" on="0"/>
        <pt x="569" y="699" on="0"/>
        <pt x="604" y="682" on="1"/>
        <pt x="553" y="593" on="1"/>
        <pt x="526" y="601" on="0"/>
        <pt x="487" y="609" on="0"/>
        <pt x="470" y="609" on="1"/>
        <pt x="421" y="609" on="0"/>
        <pt x="354" y="546" on="0"/>
        <pt x="342" y="494" on="1"/>
        <pt x="250" y="75" on="1"/>
        <pt x="239" y="25" on="0"/>
        <pt x="191" y="-47" on="0"/>
        <pt x="125" y="-98" on="0"/>
        <pt x="43" y="-131" on="0"/>
        <pt x="-1" y="-141" on="1"/>
        <pt x="-13" y="-52" on="1"/>
        <pt x="11" y="-44" on="0"/>
        <pt x="54" y="-23" on="0"/>
        <pt x="88" y="9" on="0"/>
        <pt x="113" y="53" on="0"/>
        <pt x="120" y="83" on="1"/>
      </contour>
      <contour>
        <pt x="514" y="466" on="1"/>
        <pt x="502" y="367" on="1"/>
        <pt x="349" y="367" on="1"/>
        <pt x="357" y="383" on="0"/>
        <pt x="381" y="419" on="0"/>
        <pt x="411" y="447" on="0"/>
        <pt x="448" y="466" on="0"/>
        <pt x="470" y="466" on="1"/>
      </contour>
    </TTGlyph>
    <TTGlyph name="four" xMin="40" yMin="0" xMax="593" yMax="701">
      <contour>
        <pt x="243" y="242" on="1"/>
        <pt x="265" y="242" on="0"/>
        <pt x="295" y="223" on="0"/>
        <pt x="316" y="194" on="0"/>
        <pt x="328" y="158" on="0"/>
        <pt x="331" y="141" on="1"/>
        <pt x="40" y="141" on="1"/>
        <pt x="52" y="238" on="1"/>
        <pt x="401" y="701" on="1"/>
        <pt x="569" y="701" on="1"/>
        <pt x="512" y="242" on="1"/>
        <pt x="593" y="242" on="1"/>
        <pt x="581" y="141" on="1"/>
        <pt x="500" y="141" on="1"/>
        <pt x="483" y="0" on="1"/>
        <pt x="350" y="0" on="1"/>
        <pt x="413" y="518" on="1"/>
        <pt x="419" y="551" on="1"/>
        <pt x="401" y="523" on="1"/>
        <pt x="205" y="261" on="1"/>
        <pt x="186" y="241" on="1"/>
        <pt x="207" y="242" on="1"/>
      </contour>
    </TTGlyph>
    <TTGlyph name="g" xMin="40" yMin="-250" xMax="590" yMax="529">
      <contour>
        <pt x="219" y="240" on="1"/>
        <pt x="216" y="216" on="0"/>
        <pt x="216" y="164" on="0"/>
        <pt x="229" y="121" on="0"/>
        <pt x="258" y="95" on="0"/>
        <pt x="283" y="97" on="1"/>
        <pt x="313" y="99" on="0"/>
        <pt x="345" y="60" on="0"/>
        <pt x="360" y="32" on="1"/>
        <pt x="331" y="15" on="0"/>
        <pt x="270" y="-7" on="0"/>
        <pt x="244" y="-9" on="1"/>
        <pt x="196" y="-12" on="0"/>
        <pt x="125" y="32" on="0"/>
        <pt x="81" y="104" on="0"/>
        <pt x="64" y="195" on="0"/>
        <pt x="70" y="240" on="1"/>
        <pt x="77" y="300" on="0"/>
        <pt x="128" y="405" on="0"/>
        <pt x="210" y="483" on="0"/>
        <pt x="320" y="529" on="0"/>
        <pt x="387" y="529" on="1"/>
        <pt x="408" y="529" on="0"/>
        <pt x="450" y="527" on="0"/>
        <pt x="498" y="520" on="0"/>
        <pt x="554" y="508" on="0"/>
        <pt x="590" y="499" on="1"/>
        <pt x="529" y="0" on="1"/>
        <pt x="520" y="-69" on="0"/>
        <pt x="467" y="-164" on="0"/>
        <pt x="387" y="-223" on="0"/>
        <pt x="288" y="-250" on="0"/>
        <pt x="233" y="-250" on="1"/>
        <pt x="194" y="-250" on="0"/>
        <pt x="96" y="-234" on="0"/>
        <pt x="40" y="-208" on="1"/>
        <pt x="86" y="-115" on="1"/>
        <pt x="134" y="-135" on="0"/>
        <pt x="205" y="-150" on="0"/>
        <pt x="237" y="-150" on="1"/>
        <pt x="265" y="-150" on="0"/>
        <pt x="317" y="-132" on="0"/>
        <pt x="359" y="-98" on="0"/>
        <pt x="387" y="-46" on="0"/>
        <pt x="391" y="-11" on="1"/>
        <pt x="444" y="418" on="1"/>
        <pt x="425" y="423" on="0"/>
        <pt x="392" y="426" on="0"/>
        <pt x="381" y="426" on="1"/>
        <pt x="347" y="426" on="0"/>
        <pt x="291" y="399" on="0"/>
        <pt x="250" y="350" on="0"/>
        <pt x="224" y="281" on="0"/>
      </contour>
    </TTGlyph>
    <TTGlyph name="germandbls" xMin="67" yMin="-12" xMax="585" yMax="763">
      <contour>
        <pt x="298" y="115" on="1"/>
        <pt x="327" y="101" on="0"/>
        <pt x="374" y="92" on="0"/>
        <pt x="389" y="92" on="1"/>
        <pt x="416" y="92" on="0"/>
        <pt x="455" y="121" on="0"/>
        <pt x="458" y="144" on="1"/>
        <pt x="461" y="165" on="0"/>
        <pt x="439" y="198" on="0"/>
        <pt x="404" y="229" on="0"/>
        <pt x="363" y="262" on="0"/>
        <pt x="330" y="305" on="0"/>
        <pt x="311" y="362" on="0"/>
        <pt x="316" y="401" on="1"/>
        <pt x="319" y="423" on="0"/>
        <pt x="340" y="466" on="0"/>
        <pt x="375" y="504" on="0"/>
        <pt x="422" y="536" on="0"/>
        <pt x="449" y="546" on="1"/>
        <pt x="453" y="557" on="0"/>
        <pt x="456" y="577" on="0"/>
        <pt x="458" y="588" on="1"/>
        <pt x="462" y="620" on="0"/>
        <pt x="420" y="663" on="0"/>
        <pt x="382" y="663" on="1"/>
        <pt x="338" y="663" on="0"/>
        <pt x="275" y="606" on="0"/>
        <pt x="269" y="555" on="1"/>
        <pt x="201" y="0" on="1"/>
        <pt x="67" y="-1" on="1"/>
        <pt x="134" y="544" on="1"/>
        <pt x="141" y="600" on="0"/>
        <pt x="188" y="682" on="0"/>
        <pt x="256" y="736" on="0"/>
        <pt x="341" y="763" on="0"/>
        <pt x="387" y="763" on="1"/>
        <pt x="480" y="763" on="0"/>
        <pt x="577" y="667" on="0"/>
        <pt x="567" y="588" on="1"/>
        <pt x="559" y="535" on="0"/>
        <pt x="515" y="476" on="1"/>
        <pt x="480" y="462" on="0"/>
        <pt x="441" y="427" on="0"/>
        <pt x="438" y="401" on="1"/>
        <pt x="435" y="379" on="0"/>
        <pt x="457" y="347" on="0"/>
        <pt x="492" y="316" on="0"/>
        <pt x="533" y="284" on="0"/>
        <pt x="566" y="241" on="0"/>
        <pt x="585" y="182" on="0"/>
        <pt x="580" y="141" on="1"/>
        <pt x="575" y="104" on="0"/>
        <pt x="540" y="47" on="0"/>
        <pt x="487" y="8" on="0"/>
        <pt x="424" y="-12" on="0"/>
        <pt x="392" y="-12" on="1"/>
        <pt x="362" y="-12" on="0"/>
        <pt x="297" y="1" on="0"/>
        <pt x="252" y="25" on="1"/>
      </contour>
    </TTGlyph>
    <TTGlyph name="grave" xMin="109" yMin="594" xMax="266" yMax="727">
      <contour>
        <pt x="109" y="727" on="1"/>
        <pt x="216" y="727" on="1"/>
        <pt x="266" y="602" on="1"/>
        <pt x="235" y="594" on="0"/>
        <pt x="185" y="607" on="0"/>
        <pt x="169" y="631" on="1"/>
      </contour>
    </TTGlyph>
    <TTGlyph name="greater" xMin="55" yMin="0" xMax="611" yMax="552">
      <contour>
        <pt x="435" y="270" on="1"/>
        <pt x="461" y="276" on="1"/>
        <pt x="436" y="283" on="1"/>
        <pt x="106" y="422" on="1"/>
        <pt x="122" y="552" on="1"/>
        <pt x="611" y="321" on="1"/>
        <pt x="600" y="231" on="1"/>
        <pt x="55" y="0" on="1"/>
        <pt x="71" y="131" on="1"/>
      </contour>
    </TTGlyph>
    <TTGlyph name="guillemotleft" xMin="79" yMin="45" xMax="661" yMax="472">
      <contour>
        <pt x="79" y="258" on="1"/>
        <pt x="338" y="472" on="1"/>
        <pt x="387" y="418" on="1"/>
        <pt x="241" y="258" on="1"/>
        <pt x="348" y="98" on="1"/>
        <pt x="286" y="45" on="1"/>
      </contour>
      <contour>
        <pt x="353" y="258" on="1"/>
        <pt x="612" y="472" on="1"/>
        <pt x="661" y="418" on="1"/>
        <pt x="515" y="258" on="1"/>
        <pt x="622" y="98" on="1"/>
        <pt x="560" y="45" on="1"/>
      </contour>
    </TTGlyph>
    <TTGlyph name="guillemotright" xMin="54" yMin="45" xMax="634" yMax="472">
      <contour>
        <pt x="375" y="45" on="1"/>
        <pt x="327" y="98" on="1"/>
        <pt x="472" y="258" on="1"/>
        <pt x="366" y="418" on="1"/>
        <pt x="427" y="472" on="1"/>
        <pt x="634" y="258" on="1"/>
      </contour>
      <contour>
        <pt x="102" y="45" on="1"/>
        <pt x="54" y="98" on="1"/>
        <pt x="199" y="258" on="1"/>
        <pt x="93" y="418" on="1"/>
        <pt x="154" y="472" on="1"/>
        <pt x="361" y="258" on="1"/>
      </contour>
    </TTGlyph>
    <TTGlyph name="guilsinglleft" xMin="205" yMin="45" xMax="513" yMax="472">
      <contour>
        <pt x="205" y="258" on="1"/>
        <pt x="464" y="472" on="1"/>
        <pt x="513" y="418" on="1"/>
        <pt x="367" y="258" on="1"/>
        <pt x="474" y="98" on="1"/>
        <pt x="412" y="45" on="1"/>
      </contour>
    </TTGlyph>
    <TTGlyph name="guilsinglright" xMin="201" yMin="45" xMax="508" yMax="472">
      <contour>
        <pt x="249" y="45" on="1"/>
        <pt x="201" y="98" on="1"/>
        <pt x="346" y="258" on="1"/>
        <pt x="240" y="418" on="1"/>
        <pt x="301" y="472" on="1"/>
        <pt x="508" y="258" on="1"/>
      </contour>
    </TTGlyph>
    <TTGlyph name="h" xMin="73" yMin="0" xMax="585" yMax="758">
      <contour>
        <pt x="73" y="0" on="1"/>
        <pt x="166" y="758" on="1"/>
        <pt x="304" y="751" on="1"/>
        <pt x="212" y="0" on="1"/>
      </contour>
      <contour>
        <pt x="441" y="367" on="1"/>
        <pt x="444" y="392" on="0"/>
        <pt x="427" y="424" on="0"/>
        <pt x="404" y="424" on="1"/>
        <pt x="395" y="424" on="0"/>
        <pt x="382" y="420" on="0"/>
        <pt x="369" y="419" on="1"/>
        <pt x="358" y="418" on="0"/>
        <pt x="340" y="429" on="0"/>
        <pt x="325" y="448" on="0"/>
        <pt x="313" y="472" on="0"/>
        <pt x="307" y="486" on="1"/>
        <pt x="360" y="514" on="0"/>
        <pt x="433" y="530" on="0"/>
        <pt x="461" y="530" on="1"/>
        <pt x="487" y="530" on="0"/>
        <pt x="534" y="510" on="0"/>
        <pt x="568" y="470" on="0"/>
        <pt x="585" y="410" on="0"/>
        <pt x="580" y="369" on="1"/>
        <pt x="535" y="0" on="1"/>
        <pt x="396" y="0" on="1"/>
      </contour>
    </TTGlyph>
    <TTGlyph name="hyphen" xMin="76" yMin="255" xMax="390" yMax="353">
      <contour>
        <pt x="76" y="255" on="1"/>
        <pt x="88" y="353" on="1"/>
        <pt x="390" y="353" on="1"/>
        <pt x="378" y="255" on="1"/>
      </contour>
    </TTGlyph>
    <TTGlyph name="i" xMin="70" yMin="0" xMax="305" yMax="751">
      <contour>
        <pt x="70" y="0" on="1"/>
        <pt x="133" y="517" on="1"/>
        <pt x="273" y="517" on="1"/>
        <pt x="210" y="0" on="1"/>
      </contour>
      <contour>
        <pt x="139" y="667" on="1"/>
        <pt x="144" y="702" on="0"/>
        <pt x="197" y="751" on="0"/>
        <pt x="232" y="751" on="1"/>
        <pt x="249" y="751" on="0"/>
        <pt x="277" y="738" on="0"/>
        <pt x="297" y="715" on="0"/>
        <pt x="305" y="685" on="0"/>
        <pt x="303" y="667" on="1"/>
        <pt x="299" y="632" on="0"/>
        <pt x="246" y="585" on="0"/>
        <pt x="211" y="585" on="1"/>
        <pt x="176" y="585" on="0"/>
        <pt x="135" y="632" on="0"/>
      </contour>
    </TTGlyph>
    <TTGlyph name="iacute" xMin="48" yMin="0" xMax="370" yMax="740">
      <contour>
        <pt x="48" y="0" on="1"/>
        <pt x="111" y="517" on="1"/>
        <pt x="251" y="517" on="1"/>
        <pt x="188" y="0" on="1"/>
      </contour>
      <contour>
        <pt x="280" y="645" on="1"/>
        <pt x="263" y="627" on="0"/>
        <pt x="221" y="607" on="0"/>
        <pt x="178" y="598" on="0"/>
        <pt x="140" y="599" on="0"/>
        <pt x="128" y="602" on="1"/>
        <pt x="231" y="740" on="1"/>
        <pt x="370" y="740" on="1"/>
      </contour>
    </TTGlyph>
    <TTGlyph name="icircumflex" xMin="85" yMin="0" xMax="400" yMax="743">
      <contour>
        <pt x="97" y="0" on="1"/>
        <pt x="160" y="517" on="1"/>
        <pt x="300" y="517" on="1"/>
        <pt x="237" y="0" on="1"/>
      </contour>
      <contour>
        <pt x="310" y="743" on="1"/>
        <pt x="400" y="603" on="1"/>
        <pt x="316" y="585" on="1"/>
        <pt x="247" y="658" on="1"/>
        <pt x="162" y="585" on="1"/>
        <pt x="85" y="603" on="1"/>
        <pt x="207" y="743" on="1"/>
      </contour>
    </TTGlyph>
    <TTGlyph name="idieresis" xMin="92" yMin="0" xMax="421" yMax="733">
      <contour>
        <pt x="106" y="0" on="1"/>
        <pt x="169" y="517" on="1"/>
        <pt x="309" y="517" on="1"/>
        <pt x="246" y="0" on="1"/>
      </contour>
      <contour>
        <pt x="96" y="670" on="1"/>
        <pt x="99" y="696" on="0"/>
        <pt x="141" y="733" on="0"/>
        <pt x="167" y="733" on="1"/>
        <pt x="193" y="733" on="0"/>
        <pt x="226" y="696" on="0"/>
        <pt x="223" y="670" on="1"/>
        <pt x="219" y="644" on="0"/>
        <pt x="177" y="607" on="0"/>
        <pt x="151" y="607" on="1"/>
        <pt x="125" y="607" on="0"/>
        <pt x="92" y="644" on="0"/>
      </contour>
      <contour>
        <pt x="291" y="670" on="1"/>
        <pt x="294" y="696" on="0"/>
        <pt x="336" y="733" on="0"/>
        <pt x="362" y="733" on="1"/>
        <pt x="388" y="733" on="0"/>
        <pt x="421" y="696" on="0"/>
        <pt x="418" y="670" on="1"/>
        <pt x="414" y="644" on="0"/>
        <pt x="372" y="607" on="0"/>
        <pt x="346" y="607" on="1"/>
        <pt x="320" y="607" on="0"/>
        <pt x="287" y="644" on="0"/>
      </contour>
    </TTGlyph>
    <TTGlyph name="igrave" xMin="87" yMin="0" xMax="292" yMax="740">
      <contour>
        <pt x="89" y="0" on="1"/>
        <pt x="152" y="517" on="1"/>
        <pt x="292" y="517" on="1"/>
        <pt x="229" y="0" on="1"/>
      </contour>
      <contour>
        <pt x="87" y="740" on="1"/>
        <pt x="221" y="740" on="1"/>
        <pt x="277" y="602" on="1"/>
        <pt x="264" y="599" on="0"/>
        <pt x="227" y="599" on="0"/>
        <pt x="189" y="610" on="0"/>
        <pt x="153" y="631" on="0"/>
        <pt x="140" y="649" on="1"/>
      </contour>
    </TTGlyph>
    <TTGlyph name="j" xMin="-56" yMin="-249" xMax="321" yMax="751">
      <contour>
        <pt x="227" y="48" on="1"/>
        <pt x="221" y="1" on="0"/>
        <pt x="194" y="-75" on="0"/>
        <pt x="140" y="-144" on="0"/>
        <pt x="56" y="-211" on="0"/>
        <pt x="-6" y="-249" on="1"/>
        <pt x="-56" y="-176" on="1"/>
        <pt x="-16" y="-144" on="0"/>
        <pt x="36" y="-94" on="0"/>
        <pt x="68" y="-44" on="0"/>
        <pt x="83" y="11" on="0"/>
        <pt x="88" y="48" on="1"/>
        <pt x="146" y="517" on="1"/>
        <pt x="285" y="517" on="1"/>
      </contour>
      <contour>
        <pt x="152" y="667" on="1"/>
        <pt x="157" y="702" on="0"/>
        <pt x="210" y="751" on="0"/>
        <pt x="245" y="751" on="1"/>
        <pt x="280" y="751" on="0"/>
        <pt x="321" y="702" on="0"/>
        <pt x="317" y="667" on="1"/>
        <pt x="315" y="650" on="0"/>
        <pt x="299" y="620" on="0"/>
        <pt x="274" y="598" on="0"/>
        <pt x="242" y="585" on="0"/>
        <pt x="224" y="585" on="1"/>
        <pt x="189" y="585" on="0"/>
        <pt x="148" y="632" on="0"/>
      </contour>
    </TTGlyph>
    <TTGlyph name="k" xMin="73" yMin="0" xMax="630" yMax="758">
      <contour>
        <pt x="212" y="0" on="1"/>
        <pt x="73" y="0" on="1"/>
        <pt x="166" y="758" on="1"/>
        <pt x="304" y="751" on="1"/>
      </contour>
      <contour>
        <pt x="448" y="338" on="1"/>
        <pt x="606" y="0" on="1"/>
        <pt x="452" y="0" on="1"/>
        <pt x="362" y="233" on="1"/>
        <pt x="358" y="257" on="1"/>
        <pt x="342" y="237" on="1"/>
        <pt x="281" y="180" on="1"/>
        <pt x="278" y="249" on="0"/>
        <pt x="332" y="363" on="0"/>
        <pt x="374" y="408" on="1"/>
        <pt x="477" y="517" on="1"/>
        <pt x="630" y="510" on="1"/>
      </contour>
    </TTGlyph>
    <TTGlyph name="l" xMin="75" yMin="0" xMax="306" yMax="758">
      <contour>
        <pt x="214" y="0" on="1"/>
        <pt x="75" y="0" on="1"/>
        <pt x="168" y="758" on="1"/>
        <pt x="306" y="751" on="1"/>
      </contour>
    </TTGlyph>
    <TTGlyph name="less" xMin="65" yMin="0" xMax="621" yMax="552">
      <contour>
        <pt x="570" y="131" on="1"/>
        <pt x="554" y="0" on="1"/>
        <pt x="65" y="231" on="1"/>
        <pt x="76" y="321" on="1"/>
        <pt x="621" y="552" on="1"/>
        <pt x="605" y="422" on="1"/>
        <pt x="241" y="283" on="1"/>
        <pt x="214" y="276" on="1"/>
        <pt x="240" y="270" on="1"/>
      </contour>
    </TTGlyph>
    <TTGlyph name="logicalnot" xMin="86" yMin="156" xMax="601" yMax="455">
      <contour>
        <pt x="601" y="455" on="1"/>
        <pt x="565" y="156" on="1"/>
        <pt x="458" y="156" on="1"/>
        <pt x="482" y="357" on="1"/>
        <pt x="86" y="357" on="1"/>
        <pt x="98" y="455" on="1"/>
      </contour>
    </TTGlyph>
    <TTGlyph name="m" xMin="75" yMin="0" xMax="902" yMax="530">
      <contour>
        <pt x="239" y="517" on="1"/>
        <pt x="260" y="490" on="0"/>
        <pt x="268" y="437" on="0"/>
        <pt x="264" y="407" on="1"/>
        <pt x="215" y="0" on="1"/>
        <pt x="75" y="0" on="1"/>
        <pt x="122" y="386" on="1"/>
        <pt x="125" y="414" on="0"/>
        <pt x="126" y="477" on="0"/>
        <pt x="122" y="512" on="1"/>
      </contour>
      <contour>
        <pt x="439" y="367" on="1"/>
        <pt x="442" y="392" on="0"/>
        <pt x="428" y="424" on="0"/>
        <pt x="402" y="424" on="1"/>
        <pt x="393" y="424" on="0"/>
        <pt x="374" y="420" on="0"/>
        <pt x="362" y="419" on="1"/>
        <pt x="350" y="418" on="0"/>
        <pt x="330" y="429" on="0"/>
        <pt x="314" y="449" on="0"/>
        <pt x="301" y="474" on="0"/>
        <pt x="296" y="488" on="1"/>
        <pt x="353" y="510" on="0"/>
        <pt x="429" y="530" on="0"/>
        <pt x="464" y="530" on="1"/>
        <pt x="490" y="530" on="0"/>
        <pt x="536" y="510" on="0"/>
        <pt x="569" y="470" on="0"/>
        <pt x="584" y="410" on="0"/>
        <pt x="579" y="369" on="1"/>
        <pt x="534" y="0" on="1"/>
        <pt x="394" y="0" on="1"/>
      </contour>
      <contour>
        <pt x="758" y="367" on="1"/>
        <pt x="761" y="392" on="0"/>
        <pt x="743" y="424" on="0"/>
        <pt x="715" y="424" on="1"/>
        <pt x="706" y="424" on="0"/>
        <pt x="684" y="419" on="0"/>
        <pt x="671" y="418" on="1"/>
        <pt x="659" y="417" on="0"/>
        <pt x="639" y="428" on="0"/>
        <pt x="622" y="448" on="0"/>
        <pt x="608" y="473" on="0"/>
        <pt x="603" y="487" on="1"/>
        <pt x="661" y="510" on="0"/>
        <pt x="740" y="530" on="0"/>
        <pt x="775" y="530" on="1"/>
        <pt x="801" y="530" on="0"/>
        <pt x="849" y="510" on="0"/>
        <pt x="884" y="470" on="0"/>
        <pt x="902" y="410" on="0"/>
        <pt x="897" y="369" on="1"/>
        <pt x="852" y="0" on="1"/>
        <pt x="713" y="0" on="1"/>
      </contour>
    </TTGlyph>
    <TTGlyph name="macron" xMin="184" yMin="603" xMax="496" yMax="687">
      <contour>
        <pt x="184" y="603" on="1"/>
        <pt x="194" y="687" on="1"/>
        <pt x="496" y="687" on="1"/>
        <pt x="486" y="603" on="1"/>
      </contour>
    </TTGlyph>
    <TTGlyph name="mu" xMin="30" yMin="-211" xMax="575" yMax="517">
      <contour>
        <pt x="396" y="52" on="1"/>
        <pt x="370" y="21" on="0"/>
        <pt x="308" y="-10" on="0"/>
        <pt x="263" y="-10" on="1"/>
        <pt x="246" y="-10" on="0"/>
        <pt x="206" y="2" on="0"/>
        <pt x="192" y="14" on="1"/>
        <pt x="180" y="31" on="1"/>
        <pt x="178" y="7" on="1"/>
        <pt x="152" y="-211" on="1"/>
        <pt x="30" y="-211" on="1"/>
        <pt x="119" y="517" on="1"/>
        <pt x="247" y="517" on="1"/>
        <pt x="209" y="210" on="1"/>
        <pt x="202" y="150" on="0"/>
        <pt x="244" y="88" on="0"/>
        <pt x="284" y="88" on="1"/>
        <pt x="331" y="88" on="0"/>
        <pt x="397" y="151" on="0"/>
        <pt x="403" y="199" on="1"/>
        <pt x="442" y="517" on="1"/>
        <pt x="571" y="517" on="1"/>
        <pt x="528" y="164" on="1"/>
        <pt x="523" y="122" on="0"/>
        <pt x="542" y="88" on="0"/>
        <pt x="574" y="90" on="1"/>
        <pt x="575" y="5" on="1"/>
        <pt x="558" y="-2" on="0"/>
        <pt x="513" y="-8" on="0"/>
        <pt x="502" y="-8" on="1"/>
        <pt x="489" y="-8" on="0"/>
        <pt x="462" y="-1" on="0"/>
        <pt x="436" y="14" on="0"/>
        <pt x="416" y="37" on="0"/>
        <pt x="410" y="53" on="1"/>
        <pt x="407" y="71" on="1"/>
      </contour>
    </TTGlyph>
    <TTGlyph name="multiply" xMin="56" yMin="64" xMax="577" yMax="546">
      <contour>
        <pt x="56" y="139" on="1"/>
        <pt x="242" y="306" on="1"/>
        <pt x="96" y="471" on="1"/>
        <pt x="182" y="546" on="1"/>
        <pt x="327" y="381" on="1"/>
        <pt x="512" y="546" on="1"/>
        <pt x="577" y="471" on="1"/>
        <pt x="393" y="306" on="1"/>
        <pt x="539" y="139" on="1"/>
        <pt x="454" y="64" on="1"/>
        <pt x="309" y="230" on="1"/>
        <pt x="121" y="64" on="1"/>
      </contour>
    </TTGlyph>
</ttFont>
